<?xml version="1.0" encoding="UTF-8"?>
<!DOCTYPE svg PUBLIC "-//W3C//DTD SVG 1.1//EN" "http://www.w3.org/Graphics/SVG/1.1/DTD/svg11.dtd">
<svg xmlns="http://www.w3.org/2000/svg" version="1.1" width="200px" height="200px" style="shape-rendering:geometricPrecision; text-rendering:geometricPrecision; image-rendering:optimizeQuality; fill-rule:evenodd; clip-rule:evenodd" xmlns:xlink="http://www.w3.org/1999/xlink">
<g><path style="opacity:0.973" fill="#24201f" d="M 199.5,85.5 C 199.5,95.1667 199.5,104.833 199.5,114.5C 189.5,161.167 161.167,189.5 114.5,199.5C 104.833,199.5 95.1667,199.5 85.5,199.5C 38.8467,189.68 10.68,161.346 1,114.5C -3.17987,65.3419 16.6535,29.8419 60.5,8C 104.214,-7.85936 142.381,0.64064 175,33.5C 187.776,48.7156 195.942,66.049 199.5,85.5 Z"/></g>
<g><path style="opacity:1" fill="#edded1" d="M 94.5,36.5 C 115.673,36.5005 124.173,46.8338 120,67.5C 116.692,72.3081 113.192,76.9748 109.5,81.5C 112.484,84.9846 115.651,88.318 119,91.5C 123.299,86.1951 128.466,82.0284 134.5,79C 147.549,76.6067 156.716,81.4401 162,93.5C 163.878,114.624 154.378,123.791 133.5,121C 128.368,117.533 123.534,113.7 119,109.5C 114.988,112.012 111.822,115.345 109.5,119.5C 114.291,123.788 118.125,128.788 121,134.5C 123.619,155.546 114.452,165.046 93.5,163C 80.996,156.825 76.496,146.992 80,133.5C 83.2665,128.397 87.0998,123.73 91.5,119.5C 88.464,115.275 84.7973,112.108 80.5,110C 77.5,113 74.5,116 71.5,119C 55.6973,126.016 44.5307,121.516 38,105.5C 37.552,84.2803 47.7186,75.7803 68.5,80C 73.6013,82.9328 77.9346,86.7661 81.5,91.5C 85.7249,88.464 88.8916,84.7973 91,80.5C 73.1604,64.0342 74.327,49.3676 94.5,36.5 Z"/></g>
<g><path style="opacity:1" fill="#282321" d="M 99.5,90.5 C 103.57,93.0604 107.236,96.2271 110.5,100C 106.956,103.375 103.623,106.875 100.5,110.5C 96.8333,107.5 93.5,104.167 90.5,100.5C 93.5222,97.1467 96.5222,93.8134 99.5,90.5 Z"/></g>
<g><path style="opacity:1" fill="#272221" d="M 55.5,90.5 C 64.1655,89.8875 69.6655,93.5542 72,101.5C 69.5,104 67,106.5 64.5,109C 57.9486,111.811 53.1152,109.977 50,103.5C 48.8312,97.8527 50.6645,93.5194 55.5,90.5 Z"/></g>
<g><path style="opacity:1" fill="#262221" d="M 135.5,90.5 C 146.542,89.0444 151.376,93.711 150,104.5C 146.252,110.542 141.085,112.042 134.5,109C 131.5,106 128.5,103 125.5,100C 128.729,96.6014 132.062,93.4347 135.5,90.5 Z"/></g>
<g><path style="opacity:1" fill="#262120" d="M 97.5,48.5 C 107.485,48.6617 111.318,53.6617 109,63.5C 105.956,66.3753 103.123,69.3753 100.5,72.5C 93.3358,68.5014 90.1691,62.5014 91,54.5C 93.0627,52.2659 95.2294,50.2659 97.5,48.5 Z"/></g>
<g><path style="opacity:1" fill="#262120" d="M 99.5,128.5 C 107.665,131.838 110.832,137.838 109,146.5C 103.755,152.778 98.0882,153.111 92,147.5C 90.1015,143.803 90.1015,140.136 92,136.5C 94.705,133.964 97.205,131.297 99.5,128.5 Z"/></g>
</svg>
