<?xml version="1.0" standalone="no"?>
<!DOCTYPE svg PUBLIC "-//W3C//DTD SVG 20010904//EN"
 "http://www.w3.org/TR/2001/REC-SVG-20010904/DTD/svg10.dtd">
<svg version="1.0" xmlns="http://www.w3.org/2000/svg"
 width="250.000000pt" height="250.000000pt" viewBox="0 0 250.000000 250.000000"
 preserveAspectRatio="xMidYMid meet">

<g transform="translate(0.000000,250.000000) scale(0.100000,-0.100000)"
fill="#000000" stroke="none">
<path d="M0 1250 l0 -1250 1250 0 1250 0 0 1250 0 1250 -1250 0 -1250 0 0
-1250z m1278 1048 c92 -23 169 -43 171 -44 2 -2 7 -22 12 -46 5 -24 24 -100
42 -170 35 -130 34 -158 -2 -158 -10 0 -24 -7 -31 -15 -7 -8 -17 -12 -23 -8
-6 4 -7 1 -2 -7 6 -9 4 -11 -5 -5 -10 6 -8 12 8 26 23 18 29 39 11 39 -5 0 -8
4 -5 8 3 5 -8 6 -25 4 -28 -4 -42 12 -17 20 7 3 5 7 -6 11 -9 4 -15 3 -11 -2
11 -19 -13 -20 -69 -3 -31 9 -56 21 -56 27 1 5 -4 11 -11 14 -7 2 -9 -1 -5 -8
4 -6 2 -11 -3 -11 -6 0 -11 4 -11 10 0 17 -34 -2 -78 -44 -25 -24 -40 -33 -36
-22 5 14 3 17 -7 14 -8 -3 -13 -11 -11 -17 5 -24 -19 -52 -39 -46 -11 4 -19 2
-19 -4 0 -6 5 -11 12 -11 6 0 8 -3 5 -6 -4 -4 -13 -2 -21 5 -12 10 -3 24 55
84 37 40 69 80 69 89 0 9 5 18 11 20 14 5 2 68 -12 68 -6 0 -5 -9 2 -21 8 -16
8 -24 -1 -33 -6 -6 -10 -6 -9 -1 2 6 -3 27 -10 48 -7 21 -10 44 -7 52 2 7 1
15 -4 17 -6 2 -15 27 -22 56 -7 28 -16 52 -20 52 -5 0 -24 -18 -44 -40 -20
-22 -40 -37 -45 -34 -5 3 -6 10 -3 16 4 7 2 8 -5 4 -9 -6 -9 -11 0 -22 10 -12
8 -17 -7 -28 -10 -8 -22 -12 -27 -9 -4 2 -12 -9 -18 -26 -7 -19 -17 -29 -29
-28 -25 2 -18 29 11 44 13 7 20 13 15 13 -6 0 -4 6 3 13 6 6 17 12 23 12 6 0
12 9 14 19 2 18 28 40 47 41 4 0 6 3 5 7 -3 6 61 78 69 78 2 0 79 -19 171 -42z
m-375 -201 c4 3 7 4 7 1 0 -3 -7 -11 -16 -18 -8 -8 -14 -9 -12 -3 2 6 -1 10
-7 10 -5 -1 -9 -9 -8 -19 1 -9 -5 -22 -13 -29 -13 -10 -17 -10 -24 2 -12 19
38 73 55 59 7 -5 15 -7 18 -3z m-84 -70 c8 -10 1 -23 -31 -53 -23 -21 -36 -30
-28 -19 14 19 14 19 -3 6 -12 -10 -14 -17 -7 -26 8 -9 7 -15 -2 -19 -7 -3 -1
-3 15 0 16 4 27 2 27 -5 0 -6 5 -11 11 -11 5 0 8 4 4 9 -3 5 11 5 32 -1 48
-13 58 -23 16 -15 -18 4 -33 3 -33 -2 0 -12 26 -21 64 -21 18 0 37 -5 44 -12
6 -6 15 -8 19 -4 4 4 1 12 -7 17 -10 7 -3 8 25 3 48 -8 58 -14 24 -14 -14 0
-30 -5 -36 -11 -7 -7 -16 -8 -29 0 -11 5 -45 13 -77 16 -35 4 -55 10 -51 17 4
6 -1 8 -15 3 -14 -4 -21 -2 -21 7 -1 9 -3 9 -9 -2 -6 -10 2 -54 22 -125 17
-61 32 -112 34 -114 2 -2 11 3 21 12 10 10 25 17 32 17 7 0 10 3 7 7 -12 11
14 34 27 24 7 -6 17 -6 26 -1 12 7 12 12 2 22 -9 9 -12 9 -12 -2 0 -7 -3 -11
-6 -7 -7 6 70 87 82 87 3 0 1 -6 -5 -14 -6 -7 -9 -20 -6 -28 3 -8 -2 -21 -11
-29 -16 -13 -16 -12 -6 7 6 12 8 24 5 28 -10 9 -34 -31 -28 -46 4 -9 -13 -31
-40 -56 -25 -22 -45 -45 -45 -51 0 -5 24 -17 53 -27 64 -22 54 -19 105 -29 23
-4 45 -11 48 -16 2 -4 12 -5 22 -2 14 5 15 3 5 -8 -10 -10 -16 -10 -25 -1 -13
13 -62 17 -54 4 2 -4 -5 -8 -17 -9 -12 0 -17 1 -10 4 10 3 10 7 0 18 -8 8 -19
10 -33 4 -12 -4 -24 -6 -26 -3 -3 2 -18 6 -34 8 -16 2 -40 7 -54 10 -22 6 -41
-9 -163 -132 l-138 -139 31 -124 c17 -68 35 -128 39 -132 4 -4 52 35 106 87
53 53 102 93 108 89 6 -3 7 -1 3 5 -7 11 187 207 205 207 5 0 9 5 10 10 1 14
19 35 30 35 5 0 6 -7 3 -15 -4 -8 -11 -12 -17 -8 -6 4 -7 1 -2 -7 6 -10 12 -8
27 9 21 27 17 37 -25 54 -21 9 -27 16 -19 21 7 4 12 2 12 -3 0 -6 5 -11 11
-11 6 0 22 -8 35 -19 l23 -18 -24 -29 c-13 -15 -27 -25 -31 -21 -11 11 -34
-13 -34 -35 0 -15 -3 -17 -19 -9 -15 8 -20 7 -25 -5 -4 -12 -2 -15 9 -10 13 5
13 3 0 -18 -14 -22 -12 -36 7 -36 5 0 6 5 3 10 -7 11 9 11 45 0 l25 -8 -28 -1
c-19 -1 -26 -5 -21 -13 5 -7 2 -9 -8 -6 -36 14 -39 -7 -13 -88 14 -43 25 -82
25 -86 0 -4 5 -19 10 -33 8 -22 13 -25 25 -15 8 6 19 9 24 5 6 -3 9 0 6 8 -3
7 4 22 16 33 22 19 22 19 10 -3 -8 -16 -8 -24 1 -29 6 -4 8 -3 4 4 -3 6 -1 14
5 17 21 14 19 -4 -4 -29 -13 -14 -26 -24 -28 -21 -3 2 -6 -7 -7 -19 -1 -20 4
-25 33 -30 19 -4 35 -12 35 -18 0 -6 -9 -8 -21 -5 -17 5 -19 3 -10 -6 9 -9 16
-9 30 0 10 7 29 9 42 6 21 -6 22 -7 3 -14 -33 -12 27 -30 65 -19 17 5 31 5 31
0 0 -25 -127 -6 -233 36 -14 5 -31 -5 -68 -42 -27 -26 -49 -57 -49 -68 0 -20
59 -248 66 -255 3 -3 31 21 62 52 32 32 61 54 65 51 4 -4 7 -1 7 7 0 19 67 85
77 76 3 -4 1 -7 -7 -7 -10 0 -10 -3 0 -15 10 -12 6 -21 -21 -49 -18 -19 -36
-33 -41 -30 -5 3 -7 0 -6 -8 2 -7 -4 -12 -12 -10 -8 2 -12 0 -7 -4 4 -4 -14
-29 -40 -56 -33 -33 -42 -49 -32 -52 8 -3 61 -17 119 -31 120 -29 150 -40 150
-55 0 -6 -4 -8 -10 -5 -5 3 -10 1 -10 -5 0 -7 6 -10 13 -7 6 2 12 13 12 24 1
29 23 52 45 48 22 -4 47 20 30 30 -5 3 -10 1 -10 -6 0 -7 -3 -9 -7 -6 -13 13
28 45 50 39 20 -5 21 -4 7 14 -14 17 -13 18 1 7 22 -18 33 -3 11 14 -9 8 -12
13 -7 10 6 -2 30 20 55 49 34 39 51 51 67 49 13 -2 25 1 29 6 3 5 23 8 44 7
21 -2 36 -6 34 -10 -3 -4 -18 -5 -35 -1 -24 5 -35 0 -63 -30 -24 -26 -36 -33
-45 -24 -6 6 -14 7 -18 3 -4 -4 -2 -10 5 -15 13 -8 -59 -83 -91 -95 -10 -3
-16 -10 -12 -15 9 -15 -34 -49 -56 -44 -11 3 -19 0 -19 -6 0 -7 5 -9 10 -6 16
10 7 -17 -12 -39 -22 -24 -22 -45 -3 -70 13 -17 15 -18 15 -3 0 9 -4 17 -10
17 -5 0 -10 10 -10 22 0 37 17 7 34 -58 19 -72 21 -97 6 -74 -11 17 -13 1 -4
-25 5 -12 9 -13 14 -5 4 7 10 -3 14 -25 4 -20 5 -40 2 -43 -3 -3 -6 5 -6 17 0
13 -4 20 -11 16 -6 -4 -8 -14 -5 -22 3 -8 1 -11 -5 -8 -5 4 -7 15 -4 26 4 10
2 19 -3 19 -12 0 -45 127 -37 141 4 5 1 9 -4 9 -6 0 -11 12 -11 28 l-1 27 -15
-28 c-8 -15 -19 -25 -25 -22 -5 4 -8 2 -7 -3 2 -5 -28 -40 -65 -78 l-69 -69
84 -27 c61 -20 75 -27 53 -28 -25 -1 -27 -3 -10 -9 11 -5 31 -5 45 -1 21 6 26
4 27 -12 2 -17 -3 -19 -25 -15 -35 7 -226 59 -231 63 -2 2 -25 74 -50 160
l-47 157 -153 43 c-85 24 -157 47 -161 51 -4 4 -26 75 -49 158 -23 82 -43 150
-44 151 -1 1 -69 21 -152 44 -82 23 -153 45 -158 49 -9 9 -97 309 -97 332 0
23 468 481 483 473 7 -4 8 -3 4 1 -9 11 112 135 132 135 8 0 11 3 8 7 -4 3 -2
12 4 20 14 16 14 16 28 0z m626 -218 c-33 -33 -70 -65 -83 -70 -13 -5 -20 -14
-17 -19 4 -6 3 -9 -2 -8 -4 2 -10 -1 -12 -7 -12 -26 -53 -60 -74 -60 -12 0
-23 -5 -24 -10 0 -6 3 -9 8 -8 20 6 7 -12 -47 -64 -45 -44 -58 -52 -70 -43 -7
7 -12 16 -9 20 3 5 -4 11 -15 15 -11 3 -20 11 -20 18 0 8 3 8 12 -1 18 -18 39
-15 66 11 14 12 22 16 18 10 -4 -7 -2 -13 5 -13 6 0 9 8 6 20 -4 17 -2 18 14
9 10 -5 19 -7 19 -4 0 16 -3 20 -13 17 -6 -2 -3 6 7 17 10 11 23 19 30 18 6
-1 10 4 8 12 -2 11 0 12 11 3 11 -10 17 -9 28 4 13 16 23 52 11 39 -4 -4 -8
-11 -8 -16 -3 -19 -4 -20 -15 -13 -18 11 89 113 114 108 11 -2 17 -1 13 3 -3
3 0 13 6 22 8 10 4 9 -10 -3 -12 -11 -22 -15 -22 -9 0 13 46 37 58 29 5 -3 17
3 27 14 10 11 23 20 29 20 6 0 -16 -27 -49 -61z m-455 26 c0 -9 -6 -12 -16 -8
-13 5 -13 7 -2 14 17 11 18 11 18 -6z m40 -19 c0 -8 5 -18 11 -22 8 -4 9 1 4
17 -6 19 -5 22 6 12 10 -10 10 -18 1 -38 -17 -37 -15 -48 7 -42 16 4 20 -3 28
-44 6 -27 6 -49 2 -49 -5 0 -9 11 -9 24 0 30 -17 43 -22 19 -5 -21 -28 49 -28
85 0 27 -8 28 -26 5 -11 -15 -12 -13 -2 15 13 33 28 43 28 18z m32 -58 c-7 -7
-12 -8 -12 -2 0 14 12 26 19 19 2 -3 -1 -11 -7 -17z m5 -125 c-3 -10 -5 -4 -5
12 0 17 2 24 5 18 2 -7 2 -21 0 -30z m21 -17 c-1 -14 -5 -23 -9 -20 -7 4 0 44
7 44 2 0 3 -11 2 -24z m25 -26 c3 -11 1 -18 -4 -14 -5 3 -9 12 -9 20 0 20 7
17 13 -6z m8 -87 c13 -17 13 -17 -6 -3 -11 8 -22 16 -24 17 -2 2 0 3 6 3 6 0
17 -8 24 -17z m884 4 c62 -11 240 -60 251 -69 7 -5 14 -21 16 -36 3 -15 22
-90 42 -167 l36 -139 -62 -63 c-45 -45 -65 -59 -71 -50 -6 8 -7 7 -4 -4 6 -18
-529 -559 -552 -559 -8 0 -11 -3 -8 -7 4 -3 0 -15 -9 -25 -13 -14 -20 -15 -31
-7 -11 10 -12 8 -6 -7 6 -16 4 -17 -9 -6 -13 11 -10 18 30 57 43 43 68 61 42
30 -21 -26 0 -16 25 11 30 32 33 44 5 19 -11 -10 -20 -13 -20 -7 0 15 38 35
50 27 6 -3 10 -1 10 4 0 6 -5 11 -10 11 -6 0 14 25 44 56 35 36 59 53 67 48 8
-4 10 -3 5 5 -10 15 13 43 30 37 8 -3 11 0 8 8 -4 10 2 12 23 8 15 -2 26 -2
23 1 -3 3 -27 8 -54 11 -26 4 -55 10 -64 15 -10 5 -43 14 -75 22 -41 9 -56 16
-53 26 9 22 -35 36 -69 22 -49 -20 -59 -20 -42 -1 20 22 20 27 1 63 -9 19 -13
42 -10 58 4 17 3 21 -2 13 -7 -10 -11 -8 -15 9 -4 13 -1 30 7 39 16 18 10 41
-9 34 -19 -8 -40 67 -23 78 7 4 9 10 6 14 -4 3 -14 -1 -23 -9 -9 -9 -23 -13
-32 -10 -11 4 -14 3 -9 -6 5 -7 15 -10 23 -7 8 4 -18 -28 -58 -69 -41 -41 -75
-71 -77 -65 -6 16 -29 12 -36 -6 -9 -22 3 -32 14 -14 6 8 10 10 10 4 0 -6 -6
-16 -13 -22 -10 -8 -16 -6 -25 9 -8 12 -9 19 -1 19 20 0 -2 20 -24 21 -20 1
-20 2 -3 6 27 7 49 31 41 44 -7 10 -45 156 -45 172 0 4 4 7 9 7 4 0 11 -21 14
-46 2 -25 10 -51 17 -57 10 -10 11 -7 6 13 -4 14 -11 42 -16 63 -4 21 -13 44
-20 50 -10 9 -11 9 -6 0 13 -24 -2 -13 -19 13 -14 22 -15 28 -4 35 11 7 10 9
-5 9 -13 0 -17 -5 -13 -19 3 -15 1 -18 -11 -14 -10 4 -13 2 -8 -5 12 -20 -4
-35 -22 -20 -13 11 -15 10 -9 -4 3 -10 -1 -26 -11 -39 -17 -20 -18 -20 -32 -3
-14 17 -13 18 2 6 14 -11 18 -10 28 7 10 20 7 26 -15 21 -5 -1 12 19 38 44 33
30 54 43 65 39 24 -9 32 -25 20 -40 -8 -10 -7 -13 4 -13 9 0 20 -25 31 -72 27
-115 37 -148 47 -148 5 0 37 29 71 65 34 35 67 61 72 58 6 -3 7 -1 4 4 -10 16
16 34 33 23 8 -5 11 -12 7 -17 -5 -4 -12 -1 -17 7 -7 11 -10 11 -10 2 0 -7 7
-15 15 -19 14 -5 14 -8 0 -29 -13 -20 -13 -23 0 -18 8 3 16 0 19 -7 2 -8 9
-31 15 -52 7 -20 15 -49 17 -64 3 -14 9 -34 14 -43 5 -9 7 -29 6 -44 -3 -19 0
-24 7 -17 17 17 31 13 17 -4 -7 -8 -20 -15 -28 -15 -13 0 -13 -3 -4 -12 9 -9
15 -10 20 -2 4 6 15 14 26 17 15 6 16 10 6 22 -10 12 -8 18 11 34 15 12 28 16
33 11 6 -6 15 -5 23 1 7 7 13 8 13 4 0 -9 -43 -44 -55 -45 -5 0 -3 5 5 10 8 5
10 10 4 10 -18 0 -24 -13 -13 -27 9 -9 8 -13 0 -13 -6 0 -11 -6 -11 -13 0 -9
40 -25 113 -44 61 -17 113 -29 115 -28 2 2 -9 55 -25 119 -22 93 -31 116 -45
116 -10 0 -17 -6 -16 -12 2 -7 -4 -13 -12 -13 -8 0 -14 6 -12 14 3 12 0 12
-13 1 -13 -11 -15 -10 -9 4 6 16 14 19 49 17 18 -1 19 0 2 7 -10 4 -18 12 -17
17 0 5 -41 19 -92 33 -115 29 -120 30 -137 31 -11 1 -11 4 -1 16 9 11 9 15 1
15 -7 0 -9 5 -5 12 6 9 9 9 12 0 2 -7 14 -12 28 -12 13 0 68 -11 121 -25 54
-14 109 -23 121 -20 18 4 22 2 16 -7 -6 -11 -4 -11 7 0 8 7 14 20 14 30 0 10
8 17 20 17 11 0 20 7 20 15 0 8 16 31 36 50 20 19 35 42 34 50 -5 27 -26 103
-47 164 -10 33 -17 68 -15 78 3 10 0 21 -5 25 -6 3 -8 1 -5 -4 7 -11 -20 -28
-36 -24 -5 1 -6 -2 -3 -7 6 -11 -289 -305 -309 -308 -8 -1 -18 2 -21 8 -8 13
46 69 59 61 6 -3 7 -2 4 4 -8 13 98 115 108 105 5 -4 5 -2 2 4 -3 6 8 24 25
40 17 16 27 23 23 15 -5 -9 -4 -12 3 -7 7 4 12 12 12 19 0 6 28 40 63 75 67
68 62 67 162 49z m-870 -199 c30 -14 32 -24 4 -33 -26 -9 -38 2 -14 12 15 5
11 9 -21 19 -26 8 -32 12 -17 13 12 1 34 -4 48 -11z m-78 -14 c-3 -3 -12 -4
-19 -1 -8 3 -5 6 6 6 11 1 17 -2 13 -5z m182 -14 c49 -13 54 -21 9 -14 -18 3
-42 6 -52 7 -11 1 -21 8 -24 16 -3 10 0 12 11 8 9 -3 34 -11 56 -17z m28 -306
c-3 -3 -12 -4 -19 -1 -8 3 -5 6 6 6 11 1 17 -2 13 -5z m512 -33 c2 -1 -2 -8
-9 -16 -10 -12 -16 -13 -26 -4 -29 24 -17 30 35 20z m-39 -26 c7 -9 10 -18 7
-22 -8 -7 -37 15 -37 28 0 14 16 11 30 -6z m-25 -14 c3 -5 1 -12 -4 -15 -5 -3
-11 1 -15 9 -6 16 9 21 19 6z m-447 -73 c-19 -18 -30 -29 -26 -23 11 13 10 35
-3 35 -5 0 -7 -5 -3 -12 5 -7 3 -8 -5 -3 -9 5 -5 15 14 36 24 24 30 26 42 14
12 -13 10 -19 -19 -47z m312 -478 c-6 -4 -11 -10 -11 -14 3 -24 0 -28 -12 -17
-16 13 -28 5 -21 -14 3 -7 1 -16 -5 -20 -7 -4 -8 0 -4 11 5 13 3 15 -8 9 -8
-5 -6 1 4 13 11 12 25 18 35 15 10 -4 13 -2 8 5 -9 15 2 34 16 26 7 -4 6 -9
-2 -14z m-80 -70 c0 -5 -5 -10 -11 -10 -5 0 -7 5 -4 10 3 6 8 10 11 10 2 0 4
-4 4 -10z m-149 -97 c-8 -15 -10 -15 -11 -2 0 17 10 32 18 25 2 -3 -1 -13 -7
-23z"/>
<path d="M1117 2309 c7 -7 15 -10 18 -7 3 3 -2 9 -12 12 -14 6 -15 5 -6 -5z"/>
<path d="M1085 2300 c3 -5 8 -10 11 -10 2 0 4 5 4 10 0 6 -5 10 -11 10 -5 0
-7 -4 -4 -10z"/>
<path d="M1150 2292 c0 -7 -4 -11 -9 -7 -11 6 -26 -33 -17 -42 3 -4 6 1 6 10
0 10 4 17 8 17 10 0 62 -175 65 -218 1 -17 4 -30 7 -29 15 2 128 -38 144 -52
14 -11 17 -12 11 -2 -6 11 -4 13 8 8 36 -14 99 -28 104 -23 3 3 -7 51 -22 106
-14 56 -24 108 -21 116 3 9 1 12 -4 9 -6 -3 -10 1 -10 9 0 9 -9 25 -20 36 -11
11 -20 16 -20 10 0 -5 -5 -10 -11 -10 -5 0 -7 5 -3 12 5 7 3 8 -5 4 -15 -10
-193 33 -203 48 -5 7 -8 7 -8 -2z"/>
<path d="M1056 2282 c-4 -7 -4 -12 0 -12 4 0 -1 -10 -12 -22 l-18 -23 23 21
c13 12 21 28 19 35 -3 10 -6 10 -12 1z"/>
<path d="M1139 2211 c6 -10 7 -21 4 -25 -3 -3 -1 -6 6 -6 8 0 11 6 7 16 -3 9
-6 20 -6 25 0 5 -5 9 -10 9 -7 0 -7 -6 -1 -19z"/>
<path d="M956 2182 c-3 -5 1 -9 9 -9 8 0 12 4 9 9 -3 4 -7 8 -9 8 -2 0 -6 -4
-9 -8z"/>
<path d="M1151 2133 c0 -12 2 -14 6 -4 5 11 7 11 15 0 8 -12 9 -12 6 0 -6 22
-28 25 -27 4z"/>
<path d="M1184 2008 c3 -17 36 -23 36 -8 0 7 -6 10 -14 7 -8 -3 -17 -2 -20 4
-2 5 -3 4 -2 -3z"/>
<path d="M1304 1976 c11 -9 24 -16 30 -16 12 0 7 5 -24 19 -24 11 -24 11 -6
-3z"/>
<path d="M1133 1956 c-6 -8 -9 -17 -6 -20 12 -11 19 -6 20 14 2 23 2 23 -14 6z"/>
<path d="M1493 1943 c4 -6 2 -13 -5 -15 -8 -3 -6 -6 4 -10 17 -7 19 15 3 29
-4 4 -5 3 -2 -4z"/>
<path d="M1070 1880 c0 -5 5 -10 11 -10 5 0 7 5 4 10 -3 6 -8 10 -11 10 -2 0
-4 -4 -4 -10z"/>
<path d="M835 2061 c-6 -11 9 -23 19 -14 9 9 7 23 -3 23 -6 0 -12 -4 -16 -9z"/>
<path d="M800 2030 c-8 -26 -7 -41 2 -32 6 6 8 16 5 24 -3 7 -6 11 -7 8z"/>
<path d="M765 1980 c3 -5 8 -10 11 -10 2 0 4 5 4 10 0 6 -5 10 -11 10 -5 0 -7
-4 -4 -10z"/>
<path d="M676 1855 c-4 -10 -14 -14 -31 -11 -15 3 -23 1 -20 -5 4 -5 11 -7 16
-4 35 22 -17 -35 -193 -212 -112 -112 -204 -208 -206 -213 -4 -10 15 -15 161
-51 l98 -23 134 134 c74 74 135 140 135 147 0 7 -14 61 -31 120 -17 60 -31
114 -32 121 -1 17 -24 15 -31 -3z"/>
<path d="M876 1701 c-4 -5 -2 -12 3 -15 5 -4 12 -2 15 3 4 5 2 12 -3 15 -5 4
-12 2 -15 -3z"/>
<path d="M875 1580 c-3 -6 1 -7 9 -4 18 7 21 14 7 14 -6 0 -13 -4 -16 -10z"/>
<path d="M999 1413 c-13 -16 -12 -17 4 -4 9 7 17 15 17 17 0 8 -8 3 -21 -13z"/>
<path d="M223 1333 c45 -154 59 -198 62 -202 3 -2 42 32 87 77 45 44 80 84 76
87 -7 7 -196 55 -217 55 -8 0 -11 -7 -8 -17z"/>
<path d="M946 1333 c-8 -20 9 -40 19 -22 6 8 4 10 -5 4 -9 -5 -10 -2 -5 14 8
25 0 29 -9 4z"/>
<path d="M784 1150 c-76 -78 -140 -144 -142 -148 -1 -4 57 -22 130 -40 l132
-33 50 50 50 50 -33 123 c-19 68 -37 127 -41 131 -4 4 -69 -56 -146 -133z"/>
<path d="M401 1175 c-52 -53 -78 -87 -69 -89 96 -32 209 -62 212 -57 5 8 -44
213 -53 224 -4 4 -44 -31 -90 -78z"/>
<path d="M987 993 c-4 -3 -7 -11 -7 -17 0 -6 5 -5 12 2 6 6 9 14 7 17 -3 3 -9
2 -12 -2z"/>
<path d="M630 936 c0 -6 14 -64 32 -129 l33 -117 55 -15 c30 -9 83 -25 117
-35 77 -25 97 -25 89 -4 -3 8 -15 52 -27 97 -42 170 -34 154 -87 166 -26 6
-84 19 -129 30 -58 13 -83 15 -83 7z"/>
<path d="M1190 779 c0 -5 5 -7 10 -4 6 3 10 8 10 11 0 2 -4 4 -10 4 -5 0 -10
-5 -10 -11z"/>
<path d="M1488 676 c-19 -14 -23 -26 -10 -26 4 0 13 9 20 20 14 23 13 24 -10
6z"/>
<path d="M1030 534 c0 -12 61 -218 66 -224 3 -2 32 24 65 59 53 55 62 61 77
49 15 -11 15 -11 5 2 -14 19 -1 46 17 35 8 -5 11 -4 6 3 -3 6 2 18 11 28 17
17 17 18 0 11 -10 -4 -64 4 -119 18 -105 26 -128 29 -128 19z"/>
<path d="M1188 223 c7 -3 16 -2 19 1 4 3 -2 6 -13 5 -11 0 -14 -3 -6 -6z"/>
<path d="M1288 193 c6 -2 18 -2 25 0 6 3 1 5 -13 5 -14 0 -19 -2 -12 -5z"/>
<path d="M1356 1772 c-3 -4 4 -9 15 -9 23 -2 25 3 4 10 -8 4 -16 3 -19 -1z"/>
<path d="M1319 1733 c-13 -16 -12 -17 4 -4 16 13 21 21 13 21 -2 0 -10 -8 -17
-17z"/>
<path d="M1150 1563 c-8 -9 -15 -24 -17 -32 -1 -11 5 -8 18 8 27 34 27 55 -1
24z"/>
<path d="M1988 1353 c28 -93 33 -120 23 -135 -7 -11 -7 -18 -1 -18 5 0 10 5
10 10 0 7 6 7 18 1 28 -15 243 -74 249 -68 3 3 -10 64 -28 135 l-32 130 -123
31 c-68 17 -130 31 -137 31 -11 0 -6 -27 21 -117z"/>
<path d="M1687 1279 c7 -7 15 -10 18 -7 3 3 -2 9 -12 12 -14 6 -15 5 -6 -5z"/>
<path d="M1660 1255 c-7 -9 -8 -15 -2 -15 5 0 12 7 16 15 3 8 4 15 2 15 -2 0
-9 -7 -16 -15z"/>
<path d="M1632 1235 c4 -4 3 -14 -3 -22 -7 -8 -8 -13 -1 -13 15 0 23 28 9 36
-7 4 -9 4 -5 -1z"/>
<path d="M1190 1201 c0 -6 4 -13 10 -16 6 -3 7 1 4 9 -7 18 -14 21 -14 7z"/>
<path d="M2005 1154 c-10 -14 -25 -22 -32 -20 -8 3 -11 2 -8 -4 3 -5 -14 -29
-37 -53 -44 -44 -89 -105 -69 -93 11 7 22 -24 25 -69 0 -14 4 -25 8 -25 4 0
12 -26 19 -57 22 -105 16 -106 150 30 66 67 117 113 113 102 -5 -16 -4 -17 4
-5 6 8 9 17 7 21 -3 3 21 30 52 60 46 44 53 55 37 57 -47 8 -240 65 -244 73
-3 5 -14 -3 -25 -17z"/>
<path d="M1316 1025 c-9 -26 -7 -32 5 -12 6 10 9 21 6 23 -2 3 -7 -2 -11 -11z"/>
<path d="M1428 1026 c-10 -7 -18 -19 -18 -25 0 -7 -4 -9 -10 -6 -5 3 -10 1
-10 -4 0 -16 12 -13 38 9 27 22 26 45 0 26z"/>
<path d="M1530 1030 c0 -5 5 -10 10 -10 6 0 10 5 10 10 0 6 -4 10 -10 10 -5 0
-10 -4 -10 -10z"/>
<path d="M1329 993 c-1 -5 -1 -12 0 -17 1 -5 -6 -17 -15 -27 -11 -12 -13 -19
-5 -19 6 0 14 7 17 15 8 20 24 19 24 -2 0 -9 3 -13 7 -9 9 9 13 37 5 32 -10
-5 -32 20 -25 28 4 3 3 6 0 6 -4 0 -8 -3 -8 -7z"/>
<path d="M1380 959 c0 -5 5 -7 10 -4 6 3 10 8 10 11 0 2 -4 4 -10 4 -5 0 -10
-5 -10 -11z"/>
<path d="M1836 722 c-3 -5 1 -9 9 -9 8 0 12 4 9 9 -3 4 -7 8 -9 8 -2 0 -6 -4
-9 -8z"/>
<path d="M1780 565 c-7 -9 -8 -15 -2 -15 5 0 12 7 16 15 3 8 4 15 2 15 -2 0
-9 -7 -16 -15z"/>
<path d="M1630 410 c0 -5 5 -10 11 -10 5 0 7 5 4 10 -3 6 -8 10 -11 10 -2 0
-4 -4 -4 -10z"/>
<path d="M1260 860 c0 -5 7 -10 16 -10 8 0 12 5 9 10 -3 6 -10 10 -16 10 -5 0
-9 -4 -9 -10z"/>
</g>
</svg>
