<?xml version="1.0" encoding="UTF-8"?>
<!DOCTYPE svg PUBLIC "-//W3C//DTD SVG 1.1//EN" "http://www.w3.org/Graphics/SVG/1.1/DTD/svg11.dtd">
<svg xmlns="http://www.w3.org/2000/svg" version="1.1" width="205px" height="205px" style="shape-rendering:geometricPrecision; text-rendering:geometricPrecision; image-rendering:optimizeQuality; fill-rule:evenodd; clip-rule:evenodd" xmlns:xlink="http://www.w3.org/1999/xlink">
<g><path style="opacity:0.957" fill="#fdfdfd" d="M 204.5,88.5 C 204.5,97.8333 204.5,107.167 204.5,116.5C 197.255,156.108 174.922,183.608 137.5,199C 130.486,201.295 123.486,203.128 116.5,204.5C 107.167,204.5 97.8333,204.5 88.5,204.5C 48.8916,197.255 21.3916,174.922 6,137.5C -8.43038,88.1262 4.73628,47.9596 45.5,17C 76.3462,-1.54441 108.68,-4.54441 142.5,8C 176.986,24.3048 197.653,51.1381 204.5,88.5 Z"/></g>
<g><path style="opacity:1" fill="#7965d8" d="M 97.5,12.5 C 99.8056,12.9926 102.139,13.3259 104.5,13.5C 104.611,14.1174 104.944,14.6174 105.5,15C 109.992,15.8914 114.326,17.0581 118.5,18.5C 118.649,19.552 118.483,20.552 118,21.5C 117.329,20.7476 116.496,20.4142 115.5,20.5C 111.96,20.2474 108.627,19.5808 105.5,18.5C 105.03,17.3065 104.03,16.6399 102.5,16.5C 99.5318,15.8384 96.5318,15.505 93.5,15.5C 93.6633,17.8568 93.4966,20.1902 93,22.5C 91.9426,19.441 90.1093,16.941 87.5,15C 87.6667,14.5 87.8333,14 88,13.5C 91.0567,12.5495 94.2234,12.2161 97.5,12.5 Z"/></g>
<g><path style="opacity:1" fill="#fcf9fb" d="M 105.5,18.5 C 108.627,19.5808 111.96,20.2474 115.5,20.5C 117.167,27.8345 118.834,35.1678 120.5,42.5C 116.658,42.1075 112.991,41.1075 109.5,39.5C 106.347,38.9617 103.347,37.9617 100.5,36.5C 98.5,30.1667 96.5,23.8333 94.5,17.5C 95,17.1667 95.5,16.8333 96,16.5C 99.0261,17.8718 102.193,18.5385 105.5,18.5 Z"/></g>
<g><path style="opacity:1" fill="#726cd3" d="M 97.5,12.5 C 94.2234,12.2161 91.0567,12.5495 88,13.5C 87.8333,14 87.6667,14.5 87.5,15C 90.1093,16.941 91.9426,19.441 93,22.5C 93.4966,20.1902 93.6633,17.8568 93.5,15.5C 96.5318,15.505 99.5318,15.8384 102.5,16.5C 104.03,16.6399 105.03,17.3065 105.5,18.5C 102.193,18.5385 99.0261,17.8718 96,16.5C 95.5,16.8333 95,17.1667 94.5,17.5C 96.5,23.8333 98.5,30.1667 100.5,36.5C 103.347,37.9617 106.347,38.9617 109.5,39.5C 111.078,41.3176 110.578,42.3176 108,42.5C 103.874,41.6707 99.7071,41.3374 95.5,41.5C 95.5,40.5 95.5,39.5 95.5,38.5C 94.3283,31.3131 91.995,24.6464 88.5,18.5C 80.4794,26.1881 72.4794,33.8548 64.5,41.5C 62.6453,41.728 61.8119,41.0613 62,39.5C 66.4358,35.5724 70.2692,31.2391 73.5,26.5C 78.2969,21.202 83.2969,16.0354 88.5,11C 91.7715,10.4236 94.7715,10.9236 97.5,12.5 Z"/></g>
<g><path style="opacity:1" fill="#f8f9fa" d="M 95.5,38.5 C 94.1667,39.1667 93.1667,40.1667 92.5,41.5C 89.7029,43.795 87.0362,46.295 84.5,49C 76.8096,49.3288 69.4763,47.8288 62.5,44.5C 63.1925,43.4822 63.8592,42.4822 64.5,41.5C 72.4794,33.8548 80.4794,26.1881 88.5,18.5C 91.995,24.6464 94.3283,31.3131 95.5,38.5 Z"/></g>
<g><path style="opacity:1" fill="#8768d6" d="M 121.5,25.5 C 122.924,30.3956 124.424,35.3956 126,40.5C 126.667,43.1667 126.667,45.8333 126,48.5C 125.617,49.056 125.117,49.3893 124.5,49.5C 124.905,45.9521 124.405,42.6188 123,39.5C 122.768,40.7375 122.268,41.7375 121.5,42.5C 120.72,36.8159 119.72,31.1493 118.5,25.5C 118.667,24.8333 118.833,24.1667 119,23.5C 119.708,24.3805 120.542,25.0472 121.5,25.5 Z"/></g>
<g><path style="opacity:1" fill="#8873cf" d="M 104.5,13.5 C 109.729,14.224 114.729,15.724 119.5,18C 120.867,20.3015 121.534,22.8015 121.5,25.5C 120.542,25.0472 119.708,24.3805 119,23.5C 118.833,24.1667 118.667,24.8333 118.5,25.5C 119.72,31.1493 120.72,36.8159 121.5,42.5C 121.5,43.1667 121.167,43.5 120.5,43.5C 117.455,43.4921 114.455,43.1587 111.5,42.5C 111.5,43.5 111.5,44.5 111.5,45.5C 107.661,44.5818 103.828,43.5818 100,42.5C 97.8077,42.8627 95.9744,43.8627 94.5,45.5C 94.8432,43.5168 94.1765,42.1834 92.5,41.5C 93.1667,40.1667 94.1667,39.1667 95.5,38.5C 95.5,39.5 95.5,40.5 95.5,41.5C 99.7071,41.3374 103.874,41.6707 108,42.5C 110.578,42.3176 111.078,41.3176 109.5,39.5C 112.991,41.1075 116.658,42.1075 120.5,42.5C 118.834,35.1678 117.167,27.8345 115.5,20.5C 116.496,20.4142 117.329,20.7476 118,21.5C 118.483,20.552 118.649,19.552 118.5,18.5C 114.326,17.0581 109.992,15.8914 105.5,15C 104.944,14.6174 104.611,14.1174 104.5,13.5 Z"/></g>
<g><path style="opacity:1" fill="#845fe9" d="M 124.5,49.5 C 122.408,49.4386 120.908,48.4386 120,46.5C 119.53,45.4232 119.697,44.4232 120.5,43.5C 121.167,43.5 121.5,43.1667 121.5,42.5C 122.268,41.7375 122.768,40.7375 123,39.5C 124.405,42.6188 124.905,45.9521 124.5,49.5 Z"/></g>
<g><path style="opacity:1" fill="#6d81d0" d="M 73.5,26.5 C 70.2692,31.2391 66.4358,35.5724 62,39.5C 61.8119,41.0613 62.6453,41.728 64.5,41.5C 63.8592,42.4822 63.1925,43.4822 62.5,44.5C 69.4763,47.8288 76.8096,49.3288 84.5,49C 87.0362,46.295 89.7029,43.795 92.5,41.5C 90.7801,44.7311 88.4468,47.5644 85.5,50C 81.4112,50.141 77.4112,50.3076 73.5,50.5C 75.0225,52.2825 77.0225,52.9492 79.5,52.5C 79.7529,54.8273 79.0863,56.8273 77.5,58.5C 78.6998,59.2916 80.0331,59.2916 81.5,58.5C 79.1667,61.5 76.5,64.1667 73.5,66.5C 73.5,65.5 73.5,64.5 73.5,63.5C 72.5,63.5 71.5,63.5 70.5,63.5C 68.5216,67.4784 65.5216,70.4784 61.5,72.5C 60.0072,66.1959 58.6738,59.8626 57.5,53.5C 58.3149,54.4293 59.1482,55.4293 60,56.5C 60.2695,53.7759 60.7695,51.1092 61.5,48.5C 60.8333,47.8333 60.1667,47.1667 59.5,46.5C 60.8532,45.4763 61.5198,44.143 61.5,42.5C 58.9616,43.0427 56.6282,44.0427 54.5,45.5C 60.5,38.8333 66.8333,32.5 73.5,26.5 Z"/></g>
<g><path style="opacity:1" fill="#5a81e2" d="M 57.5,53.5 C 56.8485,52.9094 56.1818,52.2427 55.5,51.5C 53.8783,53.641 51.8783,55.3076 49.5,56.5C 48.325,56.719 47.325,56.3857 46.5,55.5C 48.9337,53.079 50.9337,50.4123 52.5,47.5C 52.8333,46.5 53.5,45.8333 54.5,45.5C 56.6282,44.0427 58.9616,43.0427 61.5,42.5C 61.5198,44.143 60.8532,45.4763 59.5,46.5C 60.1667,47.1667 60.8333,47.8333 61.5,48.5C 60.7695,51.1092 60.2695,53.7759 60,56.5C 59.1482,55.4293 58.3149,54.4293 57.5,53.5 Z"/></g>
<g><path style="opacity:1" fill="#f3fbfc" d="M 70.5,63.5 C 68.8712,64.6253 67.3712,65.9586 66,67.5C 64.0306,61.9554 62.5306,56.2888 61.5,50.5C 67.2888,51.5306 72.9554,53.0306 78.5,55C 75.6286,57.7028 72.9619,60.5361 70.5,63.5 Z"/></g>
<g><path style="opacity:1" fill="#f6fbfb" d="M 57.5,53.5 C 58.6738,59.8626 60.0072,66.1959 61.5,72.5C 53.8333,79.5 46.5,86.8333 39.5,94.5C 34.0987,93.632 28.7654,92.4653 23.5,91C 21.7795,90.2607 20.1128,89.4274 18.5,88.5C 23.4937,83.1725 28.4937,77.8392 33.5,72.5C 39.1396,67.5271 44.4729,62.1937 49.5,56.5C 51.8783,55.3076 53.8783,53.641 55.5,51.5C 56.1818,52.2427 56.8485,52.9094 57.5,53.5 Z"/></g>
<g><path style="opacity:1" fill="#f1f4fb" d="M 81.5,58.5 C 82.4972,58.4701 83.1639,58.9701 83.5,60C 84.9436,65.4924 86.2769,70.9924 87.5,76.5C 81.3074,75.2301 75.3074,73.3968 69.5,71C 71.0414,69.6288 72.3747,68.1288 73.5,66.5C 76.5,64.1667 79.1667,61.5 81.5,58.5 Z"/></g>
<g><path style="opacity:1" fill="#5396e2" d="M 52.5,47.5 C 50.9337,50.4123 48.9337,53.079 46.5,55.5C 47.325,56.3857 48.325,56.719 49.5,56.5C 44.4729,62.1937 39.1396,67.5271 33.5,72.5C 32.448,72.6495 31.448,72.4828 30.5,72C 33.4068,68.6049 36.0735,65.1049 38.5,61.5C 42.8333,56.5 47.5,51.8333 52.5,47.5 Z"/></g>
<g><path style="opacity:1" fill="#7067d6" d="M 92.5,41.5 C 94.1765,42.1834 94.8432,43.5168 94.5,45.5C 91.8556,48.4802 89.189,51.4802 86.5,54.5C 88.7009,60.7209 90.3676,67.0542 91.5,73.5C 91.8425,75.2252 92.8425,75.7252 94.5,75C 103.093,66.912 111.093,58.412 118.5,49.5C 118.611,48.8826 118.944,48.3826 119.5,48C 116.798,47.16 114.132,46.3267 111.5,45.5C 111.5,44.5 111.5,43.5 111.5,42.5C 114.455,43.1587 117.455,43.4921 120.5,43.5C 119.697,44.4232 119.53,45.4232 120,46.5C 120.908,48.4386 122.408,49.4386 124.5,49.5C 111.833,62.8333 98.8333,75.8333 85.5,88.5C 84.325,88.719 83.325,88.3857 82.5,87.5C 83.9524,86.0603 84.9524,84.3936 85.5,82.5C 87.3079,81.0821 87.9746,79.0821 87.5,76.5C 86.2769,70.9924 84.9436,65.4924 83.5,60C 83.1639,58.9701 82.4972,58.4701 81.5,58.5C 80.0331,59.2916 78.6998,59.2916 77.5,58.5C 79.0863,56.8273 79.7529,54.8273 79.5,52.5C 77.0225,52.9492 75.0225,52.2825 73.5,50.5C 77.4112,50.3076 81.4112,50.141 85.5,50C 88.4468,47.5644 90.7801,44.7311 92.5,41.5 Z"/></g>
<g><path style="opacity:1" fill="#8a7dca" d="M 118.5,49.5 C 111.093,58.412 103.093,66.912 94.5,75C 92.8425,75.7252 91.8425,75.2252 91.5,73.5C 92.1174,73.6107 92.6174,73.944 93,74.5C 101.368,65.9643 109.868,57.631 118.5,49.5 Z"/></g>
<g><path style="opacity:1" fill="#fbfafb" d="M 111.5,45.5 C 114.132,46.3267 116.798,47.16 119.5,48C 118.944,48.3826 118.611,48.8826 118.5,49.5C 109.868,57.631 101.368,65.9643 93,74.5C 92.6174,73.944 92.1174,73.6107 91.5,73.5C 90.3676,67.0542 88.7009,60.7209 86.5,54.5C 89.189,51.4802 91.8556,48.4802 94.5,45.5C 95.9744,43.8627 97.8077,42.8627 100,42.5C 103.828,43.5818 107.661,44.5818 111.5,45.5 Z"/></g>
<g><path style="opacity:1" fill="#6874d4" d="M 70.5,63.5 C 71.5,63.5 72.5,63.5 73.5,63.5C 73.5,64.5 73.5,65.5 73.5,66.5C 72.3747,68.1288 71.0414,69.6288 69.5,71C 75.3074,73.3968 81.3074,75.2301 87.5,76.5C 87.9746,79.0821 87.3079,81.0821 85.5,82.5C 85.3893,81.8826 85.056,81.3826 84.5,81C 78.7159,79.0849 73.0492,77.2516 67.5,75.5C 65.4664,74.8747 63.4664,74.5413 61.5,74.5C 61.5,73.8333 61.5,73.1667 61.5,72.5C 65.5216,70.4784 68.5216,67.4784 70.5,63.5 Z"/></g>
<g><path style="opacity:1" fill="#f8fcfb" d="M 67.5,75.5 C 73.0492,77.2516 78.7159,79.0849 84.5,81C 85.056,81.3826 85.3893,81.8826 85.5,82.5C 80.8333,86.5 76.5,90.8333 72.5,95.5C 69.8333,97.5 67.5,99.8333 65.5,102.5C 59.5353,107.964 53.7019,113.63 48,119.5C 46.3212,112.451 44.4879,105.451 42.5,98.5C 43.1925,97.4822 43.8592,96.4822 44.5,95.5C 47.8333,92.8333 50.8333,89.8333 53.5,86.5C 57.2976,83.2039 60.9643,79.7039 64.5,76C 65.448,75.5172 66.448,75.3505 67.5,75.5 Z"/></g>
<g><path style="opacity:1" fill="#5b84d8" d="M 61.5,74.5 C 63.4664,74.5413 65.4664,74.8747 67.5,75.5C 66.448,75.3505 65.448,75.5172 64.5,76C 60.9643,79.7039 57.2976,83.2039 53.5,86.5C 51.6453,86.728 50.8119,86.0613 51,84.5C 54.3691,80.9626 57.8691,77.6293 61.5,74.5 Z"/></g>
<g><path style="opacity:1" fill="#f9e6fc" d="M 188.5,86.5 C 187.292,85.7659 185.959,85.4326 184.5,85.5C 181.811,83.883 178.811,82.883 175.5,82.5C 173.194,82.0074 170.861,81.6741 168.5,81.5C 168.5,81.1667 168.5,80.8333 168.5,80.5C 169.822,80.67 170.989,80.3366 172,79.5C 177.411,81.1905 182.911,82.6905 188.5,84C 189.598,84.7697 189.598,85.603 188.5,86.5 Z"/></g>
<g><path style="opacity:1" fill="#ac7cd6" d="M 175.5,82.5 C 178.811,82.883 181.811,83.883 184.5,85.5C 180.971,85.4433 177.971,84.4433 175.5,82.5 Z"/></g>
<g><path style="opacity:1" fill="#a160eb" d="M 168.5,81.5 C 170.861,81.6741 173.194,82.0074 175.5,82.5C 177.971,84.4433 180.971,85.4433 184.5,85.5C 187.313,86.743 187.979,88.743 186.5,91.5C 185.817,91.1373 185.15,90.8039 184.5,90.5C 184.586,89.5041 184.252,88.6708 183.5,88C 177.076,87.3543 171.076,85.521 165.5,82.5C 166.325,81.6143 167.325,81.281 168.5,81.5 Z"/></g>
<g><path style="opacity:1" fill="#fbf9fb" d="M 159.5,110.5 C 159.5,110.833 159.5,111.167 159.5,111.5C 157.037,113.461 154.703,115.628 152.5,118C 150.866,118.494 149.199,118.66 147.5,118.5C 142.49,116.323 137.156,114.99 131.5,114.5C 131.196,113.85 130.863,113.183 130.5,112.5C 134.215,109.452 137.548,106.119 140.5,102.5C 146.38,101.621 150.046,98.2879 151.5,92.5C 153.484,92.6168 155.15,91.9501 156.5,90.5C 157.086,90.7093 157.586,91.0426 158,91.5C 158.852,95.9332 160.019,100.267 161.5,104.5C 160.349,106.325 159.682,108.325 159.5,110.5 Z"/></g>
<g><path style="opacity:1" fill="#ad6ddb" d="M 184.5,85.5 C 185.959,85.4326 187.292,85.7659 188.5,86.5C 189.326,90.1359 189.992,93.8026 190.5,97.5C 189.542,97.0472 188.708,96.3805 188,95.5C 187.833,96.3333 187.667,97.1667 187.5,98C 188.945,102.729 189.612,107.562 189.5,112.5C 187.219,112.923 185.552,112.256 184.5,110.5C 185.833,110.5 187.167,110.5 188.5,110.5C 187.485,103.771 186.151,97.1048 184.5,90.5C 185.15,90.8039 185.817,91.1373 186.5,91.5C 187.979,88.743 187.313,86.743 184.5,85.5 Z"/></g>
<g><path style="opacity:1" fill="#5f95d6" d="M 61.5,72.5 C 61.5,73.1667 61.5,73.8333 61.5,74.5C 57.8691,77.6293 54.3691,80.9626 51,84.5C 50.8119,86.0613 51.6453,86.728 53.5,86.5C 50.8333,89.8333 47.8333,92.8333 44.5,95.5C 44.5299,94.5028 44.0299,93.8361 43,93.5C 41.8615,93.9891 40.6948,94.3225 39.5,94.5C 46.5,86.8333 53.8333,79.5 61.5,72.5 Z"/></g>
<g><path style="opacity:1" fill="#fcfbfb" d="M 172.5,87.5 C 172.611,88.1174 172.944,88.6174 173.5,89C 176.55,89.679 179.55,90.5123 182.5,91.5C 183.939,96.4567 185.272,101.457 186.5,106.5C 186.167,107.167 185.833,107.833 185.5,108.5C 182.444,106.711 179.111,106.044 175.5,106.5C 173.139,106.326 170.806,105.993 168.5,105.5C 166.813,98.7544 164.813,92.0878 162.5,85.5C 163,85.1667 163.5,84.8333 164,84.5C 166.98,85.4356 169.814,86.4356 172.5,87.5 Z"/></g>
<g><path style="opacity:1" fill="#4fafe4" d="M 38.5,61.5 C 36.0735,65.1049 33.4068,68.6049 30.5,72C 31.448,72.4828 32.448,72.6495 33.5,72.5C 28.4937,77.8392 23.4937,83.1725 18.5,88.5C 20.1128,89.4274 21.7795,90.2607 23.5,91C 28.7654,92.4653 34.0987,93.632 39.5,94.5C 37.5126,95.5034 35.346,95.5034 33,94.5C 30.4219,94.6824 29.9219,95.6824 31.5,97.5C 26.4715,96.4882 21.4715,95.6548 16.5,95C 17.9464,100.615 19.7797,106.115 22,111.5C 26.1667,107.333 30.3333,103.167 34.5,99C 33.944,98.6174 33.6107,98.1174 33.5,97.5C 34.4972,97.4701 35.1639,97.9701 35.5,99C 34.8333,100.333 34.1667,101.667 33.5,103C 33.8361,104.03 34.5028,104.53 35.5,104.5C 32.1887,108.147 28.8554,111.813 25.5,115.5C 30.7186,117.472 36.052,119.139 41.5,120.5C 42.3857,119.675 42.719,118.675 42.5,117.5C 43.4345,118.568 43.7678,119.901 43.5,121.5C 40.7814,121.603 38.1147,121.269 35.5,120.5C 34.8333,120.833 34.1667,121.167 33.5,121.5C 34.2427,122.182 34.9094,122.849 35.5,123.5C 29.2474,122.583 23.4141,120.583 18,117.5C 14.8579,107.935 12.5246,98.2681 11,88.5C 20.035,79.2977 29.2016,70.2977 38.5,61.5 Z"/></g>
<g><path style="opacity:1" fill="#6971d3" d="M 85.5,82.5 C 84.9524,84.3936 83.9524,86.0603 82.5,87.5C 83.325,88.3857 84.325,88.719 85.5,88.5C 84.1902,90.1477 82.8569,91.8144 81.5,93.5C 86.9458,95.188 92.2792,96.8547 97.5,98.5C 95.076,98.1924 92.7427,98.5258 90.5,99.5C 91.6016,100.176 92.6016,100.842 93.5,101.5C 88.8974,100.288 84.2307,99.2876 79.5,98.5C 77.2436,99.4385 74.9103,99.4385 72.5,98.5C 72.5,97.5 72.5,96.5 72.5,95.5C 76.5,90.8333 80.8333,86.5 85.5,82.5 Z"/></g>
<g><path style="opacity:1" fill="#637dd7" d="M 72.5,95.5 C 72.5,96.5 72.5,97.5 72.5,98.5C 74.9103,99.4385 77.2436,99.4385 79.5,98.5C 81.1373,102.376 82.4706,106.376 83.5,110.5C 82.448,110.351 81.448,110.517 80.5,111C 81.2524,111.671 81.5858,112.504 81.5,113.5C 80.5,112.833 79.5,112.167 78.5,111.5C 77.6232,107.654 76.2899,103.988 74.5,100.5C 69.8131,104.855 65.1464,109.188 60.5,113.5C 59.325,113.719 58.325,113.386 57.5,112.5C 60.5939,109.417 63.2606,106.084 65.5,102.5C 67.5,99.8333 69.8333,97.5 72.5,95.5 Z"/></g>
<g><path style="opacity:1" fill="#6e65d9" d="M 97.5,98.5 C 99.5648,98.5172 101.565,98.8505 103.5,99.5C 104.15,101.435 104.483,103.435 104.5,105.5C 102.821,105.285 101.821,105.952 101.5,107.5C 100.833,107.833 100.167,108.167 99.5,108.5C 98.325,108.719 97.325,108.386 96.5,107.5C 98.3788,105.93 98.7122,104.264 97.5,102.5C 96.1667,102.167 94.8333,101.833 93.5,101.5C 92.6016,100.842 91.6016,100.176 90.5,99.5C 92.7427,98.5258 95.076,98.1924 97.5,98.5 Z"/></g>
<g><path style="opacity:1" fill="#f7f8fb" d="M 79.5,98.5 C 84.2307,99.2876 88.8974,100.288 93.5,101.5C 94.8333,101.833 96.1667,102.167 97.5,102.5C 94.2517,107.419 90.2517,111.753 85.5,115.5C 84.438,113.978 83.7713,112.312 83.5,110.5C 82.4706,106.376 81.1373,102.376 79.5,98.5 Z"/></g>
<g><path style="opacity:1" fill="#edfcfb" d="M 31.5,97.5 C 32.1667,97.5 32.8333,97.5 33.5,97.5C 33.6107,98.1174 33.944,98.6174 34.5,99C 30.3333,103.167 26.1667,107.333 22,111.5C 19.7797,106.115 17.9464,100.615 16.5,95C 21.4715,95.6548 26.4715,96.4882 31.5,97.5 Z"/></g>
<g><path style="opacity:1" fill="#5499e1" d="M 44.5,95.5 C 43.8592,96.4822 43.1925,97.4822 42.5,98.5C 44.4879,105.451 46.3212,112.451 48,119.5C 53.7019,113.63 59.5353,107.964 65.5,102.5C 63.2606,106.084 60.5939,109.417 57.5,112.5C 58.325,113.386 59.325,113.719 60.5,113.5C 57.6684,116.501 55.0017,119.667 52.5,123C 56.9649,124.501 61.2982,126.001 65.5,127.5C 64.6236,127.369 63.9569,127.702 63.5,128.5C 65.1836,129.15 66.5169,130.15 67.5,131.5C 61.7534,130.807 56.0867,129.974 50.5,129C 52.7997,135.4 54.7997,141.9 56.5,148.5C 55.5,148.5 54.5,148.5 53.5,148.5C 53.3505,149.552 53.5172,150.552 54,151.5C 55.8761,152.609 57.7095,153.609 59.5,154.5C 57.0637,154.683 54.897,154.016 53,152.5C 49.7861,144.027 47.2861,135.36 45.5,126.5C 41.9523,125.87 38.6189,124.87 35.5,123.5C 34.9094,122.849 34.2427,122.182 33.5,121.5C 34.1667,121.167 34.8333,120.833 35.5,120.5C 38.1147,121.269 40.7814,121.603 43.5,121.5C 43.7678,119.901 43.4345,118.568 42.5,117.5C 42.7373,116.209 42.404,115.209 41.5,114.5C 41.5,114.167 41.5,113.833 41.5,113.5C 41.0202,109.586 39.8535,105.919 38,102.5C 37.2917,103.381 36.4584,104.047 35.5,104.5C 34.5028,104.53 33.8361,104.03 33.5,103C 34.1667,101.667 34.8333,100.333 35.5,99C 35.1639,97.9701 34.4972,97.4701 33.5,97.5C 32.8333,97.5 32.1667,97.5 31.5,97.5C 29.9219,95.6824 30.4219,94.6824 33,94.5C 35.346,95.5034 37.5126,95.5034 39.5,94.5C 40.6948,94.3225 41.8615,93.9891 43,93.5C 44.0299,93.8361 44.5299,94.5028 44.5,95.5 Z"/></g>
<g><path style="opacity:1" fill="#fceafe" d="M 172.5,87.5 C 176.678,87.8779 180.678,88.8779 184.5,90.5C 186.151,97.1048 187.485,103.771 188.5,110.5C 187.167,110.5 185.833,110.5 184.5,110.5C 181.433,109.317 178.433,107.983 175.5,106.5C 179.111,106.044 182.444,106.711 185.5,108.5C 185.833,107.833 186.167,107.167 186.5,106.5C 185.272,101.457 183.939,96.4567 182.5,91.5C 179.55,90.5123 176.55,89.679 173.5,89C 172.944,88.6174 172.611,88.1174 172.5,87.5 Z"/></g>
<g><path style="opacity:1" fill="#f6fafb" d="M 78.5,111.5 C 79.1621,114.148 79.8288,116.815 80.5,119.5C 78.8937,122.443 76.8937,125.109 74.5,127.5C 71.5785,128.372 68.5785,128.372 65.5,127.5C 61.2982,126.001 56.9649,124.501 52.5,123C 55.0017,119.667 57.6684,116.501 60.5,113.5C 65.1464,109.188 69.8131,104.855 74.5,100.5C 76.2899,103.988 77.6232,107.654 78.5,111.5 Z"/></g>
<g><path style="opacity:1" fill="#9a71d9" d="M 168.5,80.5 C 168.5,80.8333 168.5,81.1667 168.5,81.5C 167.325,81.281 166.325,81.6143 165.5,82.5C 171.076,85.521 177.076,87.3543 183.5,88C 184.252,88.6708 184.586,89.5041 184.5,90.5C 180.678,88.8779 176.678,87.8779 172.5,87.5C 169.814,86.4356 166.98,85.4356 164,84.5C 163.5,84.8333 163,85.1667 162.5,85.5C 164.813,92.0878 166.813,98.7544 168.5,105.5C 170.806,105.993 173.139,106.326 175.5,106.5C 178.433,107.983 181.433,109.317 184.5,110.5C 182.712,110.215 181.045,110.548 179.5,111.5C 181.145,112.696 182.811,113.696 184.5,114.5C 179.108,113.485 173.774,112.152 168.5,110.5C 165.221,112.442 162.221,114.776 159.5,117.5C 159.92,115.906 160.586,114.406 161.5,113C 161.164,111.97 160.497,111.47 159.5,111.5C 159.5,111.167 159.5,110.833 159.5,110.5C 161.571,109.428 162.905,107.761 163.5,105.5C 161.58,99.5614 159.913,93.5614 158.5,87.5C 157.883,87.3893 157.383,87.056 157,86.5C 151.631,92.0363 146.131,97.3697 140.5,102.5C 137.548,106.119 134.215,109.452 130.5,112.5C 130.863,113.183 131.196,113.85 131.5,114.5C 129.883,113.411 129.05,111.744 129,109.5C 127.259,110.758 125.426,111.758 123.5,112.5C 134.837,101.656 145.837,90.4892 156.5,79C 160.623,78.5634 164.623,79.0634 168.5,80.5 Z"/></g>
<g><path style="opacity:1" fill="#9762e9" d="M 168.5,105.5 C 171.098,107.669 174.098,109.169 177.5,110C 173.126,110.094 168.792,109.594 164.5,108.5C 163.64,102.803 162.806,97.1362 162,91.5C 163.646,96.4809 165.813,101.148 168.5,105.5 Z"/></g>
<g><path style="opacity:1" fill="#f8eafc" d="M 158.5,87.5 C 159.913,93.5614 161.58,99.5614 163.5,105.5C 162.905,107.761 161.571,109.428 159.5,110.5C 159.682,108.325 160.349,106.325 161.5,104.5C 160.019,100.267 158.852,95.9332 158,91.5C 157.586,91.0426 157.086,90.7093 156.5,90.5C 155.15,91.9501 153.484,92.6168 151.5,92.5C 150.046,98.2879 146.38,101.621 140.5,102.5C 146.131,97.3697 151.631,92.0363 157,86.5C 157.383,87.056 157.883,87.3893 158.5,87.5 Z"/></g>
<g><path style="opacity:1" fill="#9661ed" d="M 158.5,87.5 C 157.665,86.0568 156.332,85.0568 154.5,84.5C 155.522,81.013 157.855,79.6797 161.5,80.5C 161.813,83.2469 161.48,85.9135 160.5,88.5C 159.817,88.1373 159.15,87.8039 158.5,87.5 Z"/></g>
<g><path style="opacity:1" fill="#e0f9fe" d="M 41.5,113.5 C 40.6236,113.631 39.9569,113.298 39.5,112.5C 36.5333,104.635 34.5333,104.968 33.5,113.5C 31.712,113.215 30.0453,113.548 28.5,114.5C 32.4907,115.454 36.324,116.787 40,118.5C 41.1882,117.437 41.6882,116.103 41.5,114.5C 42.404,115.209 42.7373,116.209 42.5,117.5C 42.719,118.675 42.3857,119.675 41.5,120.5C 36.052,119.139 30.7186,117.472 25.5,115.5C 28.8554,111.813 32.1887,108.147 35.5,104.5C 36.4584,104.047 37.2917,103.381 38,102.5C 39.8535,105.919 41.0202,109.586 41.5,113.5 Z"/></g>
<g><path style="opacity:1" fill="#fcf8fc" d="M 184.5,114.5 C 185.398,115.158 186.398,115.824 187.5,116.5C 186.807,117.518 186.141,118.518 185.5,119.5C 177.187,127.479 168.854,135.479 160.5,143.5C 159.747,140.706 158.747,138.04 157.5,135.5C 156.833,130.833 156.167,126.167 155.5,121.5C 156.5,119.833 157.833,118.5 159.5,117.5C 162.221,114.776 165.221,112.442 168.5,110.5C 173.774,112.152 179.108,113.485 184.5,114.5 Z"/></g>
<g><path style="opacity:1" fill="#ab60e9" d="M 190.5,97.5 C 192.373,101.515 193.373,105.849 193.5,110.5C 194.18,114.791 192.514,117.457 188.5,118.5C 188.5,117.167 188.5,115.833 188.5,114.5C 187.167,114.5 185.833,114.5 184.5,114.5C 182.811,113.696 181.145,112.696 179.5,111.5C 181.045,110.548 182.712,110.215 184.5,110.5C 185.552,112.256 187.219,112.923 189.5,112.5C 189.612,107.562 188.945,102.729 187.5,98C 187.667,97.1667 187.833,96.3333 188,95.5C 188.708,96.3805 189.542,97.0472 190.5,97.5 Z"/></g>
<g><path style="opacity:1" fill="#fbfbf9" d="M 41.5,113.5 C 41.5,113.833 41.5,114.167 41.5,114.5C 41.6882,116.103 41.1882,117.437 40,118.5C 36.324,116.787 32.4907,115.454 28.5,114.5C 30.0453,113.548 31.712,113.215 33.5,113.5C 34.5333,104.968 36.5333,104.635 39.5,112.5C 39.9569,113.298 40.6236,113.631 41.5,113.5 Z"/></g>
<g><path style="opacity:1" fill="#7f62df" d="M 131.5,114.5 C 132.6,115.558 133.934,116.392 135.5,117C 132.854,117.497 130.187,117.664 127.5,117.5C 128.167,119.819 128.334,122.153 128,124.5C 126.641,123.635 125.474,122.635 124.5,121.5C 123.092,119.14 121.759,119.474 120.5,122.5C 118.81,122.144 117.81,121.144 117.5,119.5C 119.477,117.186 121.477,114.853 123.5,112.5C 125.426,111.758 127.259,110.758 129,109.5C 129.05,111.744 129.883,113.411 131.5,114.5 Z"/></g>
<g><path style="opacity:1" fill="#ad77dc" d="M 193.5,110.5 C 195.238,112.119 195.738,114.119 195,116.5C 192.63,119.039 190.13,121.372 187.5,123.5C 187.843,121.517 187.176,120.183 185.5,119.5C 186.141,118.518 186.807,117.518 187.5,116.5C 186.398,115.824 185.398,115.158 184.5,114.5C 185.833,114.5 187.167,114.5 188.5,114.5C 188.5,115.833 188.5,117.167 188.5,118.5C 192.514,117.457 194.18,114.791 193.5,110.5 Z"/></g>
<g><path style="opacity:1" fill="#6e70d0" d="M 103.5,99.5 C 104.458,99.9528 105.292,100.619 106,101.5C 107.28,107.522 108.447,113.522 109.5,119.5C 107.933,118.319 107.099,116.653 107,114.5C 106.643,118.51 106.81,122.51 107.5,126.5C 106.127,126.343 104.793,126.51 103.5,127C 105.578,128.27 105.912,129.77 104.5,131.5C 104.389,130.883 104.056,130.383 103.5,130C 96.8847,127.847 90.218,126.014 83.5,124.5C 82.325,124.719 81.325,124.386 80.5,123.5C 81.4173,120.242 81.7507,116.909 81.5,113.5C 81.5858,112.504 81.2524,111.671 80.5,111C 81.448,110.517 82.448,110.351 83.5,110.5C 83.7713,112.312 84.438,113.978 85.5,115.5C 90.2517,111.753 94.2517,107.419 97.5,102.5C 98.7122,104.264 98.3788,105.93 96.5,107.5C 97.325,108.386 98.325,108.719 99.5,108.5C 96.0371,112.464 92.3705,116.298 88.5,120C 94.3854,121.761 100.219,123.595 106,125.5C 106.016,119.062 104.516,113.062 101.5,107.5C 101.821,105.952 102.821,105.285 104.5,105.5C 104.483,103.435 104.15,101.435 103.5,99.5 Z"/></g>
<g><path style="opacity:1" fill="#f6f5fb" d="M 101.5,107.5 C 104.516,113.062 106.016,119.062 106,125.5C 100.219,123.595 94.3854,121.761 88.5,120C 92.3705,116.298 96.0371,112.464 99.5,108.5C 100.167,108.167 100.833,107.833 101.5,107.5 Z"/></g>
<g><path style="opacity:1" fill="#8272d1" d="M 117.5,119.5 C 117.81,121.144 118.81,122.144 120.5,122.5C 119.167,124.5 117.5,126.167 115.5,127.5C 116.165,124.112 115.165,123.112 112.5,124.5C 111.287,124.253 110.62,123.586 110.5,122.5C 111.15,122.804 111.817,123.137 112.5,123.5C 114.186,122.143 115.852,120.81 117.5,119.5 Z"/></g>
<g><path style="opacity:1" fill="#8c63e4" d="M 159.5,111.5 C 160.497,111.47 161.164,111.97 161.5,113C 160.586,114.406 159.92,115.906 159.5,117.5C 157.833,118.5 156.5,119.833 155.5,121.5C 154.681,124.305 154.181,127.305 154,130.5C 153.148,129.429 152.315,128.429 151.5,127.5C 149.291,126.024 147.958,126.691 147.5,129.5C 146.127,129.657 144.793,129.49 143.5,129C 145.16,127.512 146.16,125.679 146.5,123.5C 146.167,122.833 145.833,122.167 145.5,121.5C 144.282,120.839 142.949,120.172 141.5,119.5C 143.396,118.534 145.396,118.201 147.5,118.5C 149.199,118.66 150.866,118.494 152.5,118C 154.703,115.628 157.037,113.461 159.5,111.5 Z"/></g>
<g><path style="opacity:1" fill="#f7f9fb" d="M 83.5,124.5 C 90.218,126.014 96.8847,127.847 103.5,130C 104.056,130.383 104.389,130.883 104.5,131.5C 102.505,133.304 100.838,135.304 99.5,137.5C 93.9355,142.398 88.6022,147.731 83.5,153.5C 81.7997,151.112 80.4664,148.445 79.5,145.5C 78.9651,141.25 77.9651,137.083 76.5,133C 76.7432,132.098 77.0766,131.265 77.5,130.5C 79.8333,128.833 81.8333,126.833 83.5,124.5 Z"/></g>
<g><path style="opacity:1" fill="#6882c4" d="M 78.5,111.5 C 79.5,112.167 80.5,112.833 81.5,113.5C 81.7507,116.909 81.4173,120.242 80.5,123.5C 81.325,124.386 82.325,124.719 83.5,124.5C 81.8333,126.833 79.8333,128.833 77.5,130.5C 77.5,129.5 77.5,128.5 77.5,127.5C 76.5,127.5 75.5,127.5 74.5,127.5C 76.8937,125.109 78.8937,122.443 80.5,119.5C 79.8288,116.815 79.1621,114.148 78.5,111.5 Z"/></g>
<g><path style="opacity:1" fill="#f9f9fb" d="M 124.5,121.5 C 125.999,126.663 127.665,131.663 129.5,136.5C 129.6,139.108 128.933,141.442 127.5,143.5C 125.833,144.5 124.5,145.833 123.5,147.5C 119.167,151.5 114.833,155.5 110.5,159.5C 109.078,160.925 107.411,161.925 105.5,162.5C 104.833,162.5 104.167,162.5 103.5,162.5C 98.4896,160.323 93.1562,158.99 87.5,158.5C 87.5,157.833 87.1667,157.5 86.5,157.5C 92.8352,151.163 98.8352,144.497 104.5,137.5C 108.572,134.781 112.238,131.447 115.5,127.5C 117.5,126.167 119.167,124.5 120.5,122.5C 121.759,119.474 123.092,119.14 124.5,121.5 Z"/></g>
<g><path style="opacity:1" fill="#876ed0" d="M 131.5,114.5 C 137.156,114.99 142.49,116.323 147.5,118.5C 145.396,118.201 143.396,118.534 141.5,119.5C 142.949,120.172 144.282,120.839 145.5,121.5C 139.753,120.807 134.087,119.974 128.5,119C 130.436,124.617 132.436,130.117 134.5,135.5C 133.614,136.776 132.614,136.776 131.5,135.5C 130.926,132.823 130.259,130.157 129.5,127.5C 128.679,130.446 128.679,133.446 129.5,136.5C 127.665,131.663 125.999,126.663 124.5,121.5C 125.474,122.635 126.641,123.635 128,124.5C 128.334,122.153 128.167,119.819 127.5,117.5C 130.187,117.664 132.854,117.497 135.5,117C 133.934,116.392 132.6,115.558 131.5,114.5 Z"/></g>
<g><path style="opacity:1" fill="#f9f4fb" d="M 145.5,121.5 C 145.833,122.167 146.167,122.833 146.5,123.5C 142.833,127.5 139.167,131.5 135.5,135.5C 135.167,135.5 134.833,135.5 134.5,135.5C 132.436,130.117 130.436,124.617 128.5,119C 134.087,119.974 139.753,120.807 145.5,121.5 Z"/></g>
<g><path style="opacity:1" fill="#7066da" d="M 109.5,119.5 C 110.404,120.209 110.737,121.209 110.5,122.5C 110.62,123.586 111.287,124.253 112.5,124.5C 115.165,123.112 116.165,124.112 115.5,127.5C 112.238,131.447 108.572,134.781 104.5,137.5C 103.5,137.5 102.5,137.5 101.5,137.5C 100.833,141.5 100.167,141.5 99.5,137.5C 100.838,135.304 102.505,133.304 104.5,131.5C 105.912,129.77 105.578,128.27 103.5,127C 104.793,126.51 106.127,126.343 107.5,126.5C 106.81,122.51 106.643,118.51 107,114.5C 107.099,116.653 107.933,118.319 109.5,119.5 Z"/></g>
<g><path style="opacity:1" fill="#f8fcfb" d="M 67.5,131.5 C 67.8417,132.338 68.5084,132.672 69.5,132.5C 70.209,133.404 71.209,133.737 72.5,133.5C 73.675,140.533 75.0084,147.533 76.5,154.5C 69.6541,152.793 62.9874,150.793 56.5,148.5C 54.7997,141.9 52.7997,135.4 50.5,129C 56.0867,129.974 61.7534,130.807 67.5,131.5 Z"/></g>
<g><path style="opacity:1" fill="#8e70d8" d="M 146.5,123.5 C 146.16,125.679 145.16,127.512 143.5,129C 144.793,129.49 146.127,129.657 147.5,129.5C 144.494,132.839 141.494,136.172 138.5,139.5C 139.243,140.182 139.909,140.849 140.5,141.5C 139.5,141.5 138.5,141.5 137.5,141.5C 137.357,139.738 137.691,138.071 138.5,136.5C 137.675,135.614 136.675,135.281 135.5,135.5C 139.167,131.5 142.833,127.5 146.5,123.5 Z"/></g>
<g><path style="opacity:1" fill="#5c80d4" d="M 65.5,127.5 C 68.5785,128.372 71.5785,128.372 74.5,127.5C 75.5,127.5 76.5,127.5 77.5,127.5C 77.5,128.5 77.5,129.5 77.5,130.5C 77.0766,131.265 76.7432,132.098 76.5,133C 77.9651,137.083 78.9651,141.25 79.5,145.5C 78.5655,144.432 78.2322,143.099 78.5,141.5C 77.5,141.5 76.5,141.5 75.5,141.5C 74.3511,138.959 74.3511,136.459 75.5,134C 73.6547,132.872 71.6547,132.372 69.5,132.5C 68.5084,132.672 67.8417,132.338 67.5,131.5C 66.5169,130.15 65.1836,129.15 63.5,128.5C 63.9569,127.702 64.6236,127.369 65.5,127.5 Z"/></g>
<g><path style="opacity:1" fill="#8163e2" d="M 134.5,135.5 C 134.833,135.5 135.167,135.5 135.5,135.5C 136.675,135.281 137.675,135.614 138.5,136.5C 137.691,138.071 137.357,139.738 137.5,141.5C 138.5,141.5 139.5,141.5 140.5,141.5C 140.833,141.5 141.167,141.5 141.5,141.5C 141.953,142.458 142.619,143.292 143.5,144C 140.691,144.134 137.857,143.968 135,143.5C 132.844,143.755 130.844,144.422 129,145.5C 127.97,145.164 127.47,144.497 127.5,143.5C 128.933,141.442 129.6,139.108 129.5,136.5C 128.679,133.446 128.679,130.446 129.5,127.5C 130.259,130.157 130.926,132.823 131.5,135.5C 132.614,136.776 133.614,136.776 134.5,135.5 Z"/></g>
<g><path style="opacity:1" fill="#fbf6fb" d="M 151.5,127.5 C 153.038,133.06 154.038,138.726 154.5,144.5C 150.214,143.293 145.88,142.293 141.5,141.5C 141.167,141.5 140.833,141.5 140.5,141.5C 139.909,140.849 139.243,140.182 138.5,139.5C 141.494,136.172 144.494,132.839 147.5,129.5C 147.958,126.691 149.291,126.024 151.5,127.5 Z"/></g>
<g><path style="opacity:1" fill="#6f75d0" d="M 99.5,137.5 C 100.167,141.5 100.833,141.5 101.5,137.5C 102.5,137.5 103.5,137.5 104.5,137.5C 98.8352,144.497 92.8352,151.163 86.5,157.5C 85.9779,155.781 84.9779,154.448 83.5,153.5C 88.6022,147.731 93.9355,142.398 99.5,137.5 Z"/></g>
<g><path style="opacity:1" fill="#9967e1" d="M 185.5,119.5 C 187.176,120.183 187.843,121.517 187.5,123.5C 179.833,131.833 171.833,139.833 163.5,147.5C 163.179,145.952 162.179,145.285 160.5,145.5C 160.343,147.818 159.176,149.484 157,150.5C 155.403,149.115 153.57,148.449 151.5,148.5C 150.833,148.5 150.167,148.5 149.5,148.5C 148.657,146.827 147.324,145.66 145.5,145C 148.826,144.828 152.159,144.995 155.5,145.5C 155.737,141.278 155.404,137.111 154.5,133C 154.833,132.5 155.167,132 155.5,131.5C 156.172,132.949 156.839,134.282 157.5,135.5C 158.747,138.04 159.747,140.706 160.5,143.5C 168.854,135.479 177.187,127.479 185.5,119.5 Z"/></g>
<g><path style="opacity:1" fill="#9174d5" d="M 155.5,121.5 C 156.167,126.167 156.833,130.833 157.5,135.5C 156.839,134.282 156.172,132.949 155.5,131.5C 155.167,132 154.833,132.5 154.5,133C 155.404,137.111 155.737,141.278 155.5,145.5C 152.159,144.995 148.826,144.828 145.5,145C 147.324,145.66 148.657,146.827 149.5,148.5C 144.597,146.887 139.597,145.554 134.5,144.5C 131.895,145.769 129.562,147.436 127.5,149.5C 127.719,148.325 127.386,147.325 126.5,146.5C 125.583,147.127 124.583,147.461 123.5,147.5C 124.5,145.833 125.833,144.5 127.5,143.5C 127.47,144.497 127.97,145.164 129,145.5C 130.844,144.422 132.844,143.755 135,143.5C 137.857,143.968 140.691,144.134 143.5,144C 142.619,143.292 141.953,142.458 141.5,141.5C 145.88,142.293 150.214,143.293 154.5,144.5C 154.038,138.726 153.038,133.06 151.5,127.5C 152.315,128.429 153.148,129.429 154,130.5C 154.181,127.305 154.681,124.305 155.5,121.5 Z"/></g>
<g><path style="opacity:1" fill="#fbfafb" d="M 149.5,148.5 C 150.167,148.5 150.833,148.5 151.5,148.5C 152.739,149.212 153.239,150.212 153,151.5C 141.631,162.702 130.465,174.035 119.5,185.5C 118.395,186.6 117.062,187.267 115.5,187.5C 114.571,180.944 113.237,174.444 111.5,168C 111.667,167.167 111.833,166.333 112,165.5C 114.372,163.297 116.539,160.963 118.5,158.5C 121.473,155.527 124.473,152.527 127.5,149.5C 129.562,147.436 131.895,145.769 134.5,144.5C 139.597,145.554 144.597,146.887 149.5,148.5 Z"/></g>
<g><path style="opacity:1" fill="#7969d4" d="M 127.5,149.5 C 124.473,152.527 121.473,155.527 118.5,158.5C 116.801,158.34 115.134,158.506 113.5,159C 114.993,160.156 114.826,160.99 113,161.5C 111.699,161.361 110.866,160.695 110.5,159.5C 114.833,155.5 119.167,151.5 123.5,147.5C 124.583,147.461 125.583,147.127 126.5,146.5C 127.386,147.325 127.719,148.325 127.5,149.5 Z"/></g>
<g><path style="opacity:1" fill="#6490d9" d="M 69.5,132.5 C 71.6547,132.372 73.6547,132.872 75.5,134C 74.3511,136.459 74.3511,138.959 75.5,141.5C 76.4873,146.117 77.154,150.784 77.5,155.5C 75.5,155.5 73.5,155.5 71.5,155.5C 71.5,156.5 71.5,157.5 71.5,158.5C 67.2245,157.68 63.2245,156.347 59.5,154.5C 57.7095,153.609 55.8761,152.609 54,151.5C 53.5172,150.552 53.3505,149.552 53.5,148.5C 54.5,148.5 55.5,148.5 56.5,148.5C 62.9874,150.793 69.6541,152.793 76.5,154.5C 75.0084,147.533 73.675,140.533 72.5,133.5C 71.209,133.737 70.209,133.404 69.5,132.5 Z"/></g>
<g><path style="opacity:1" fill="#5c7adf" d="M 75.5,141.5 C 76.5,141.5 77.5,141.5 78.5,141.5C 78.2322,143.099 78.5655,144.432 79.5,145.5C 80.4664,148.445 81.7997,151.112 83.5,153.5C 84.9779,154.448 85.9779,155.781 86.5,157.5C 87.1667,157.5 87.5,157.833 87.5,158.5C 89.2418,159.957 91.2418,161.124 93.5,162C 92.6667,162.167 91.8333,162.333 91,162.5C 85.3863,161.398 79.5529,160.064 73.5,158.5C 72.8333,158.5 72.1667,158.5 71.5,158.5C 71.5,157.5 71.5,156.5 71.5,155.5C 73.5,155.5 75.5,155.5 77.5,155.5C 77.154,150.784 76.4873,146.117 75.5,141.5 Z"/></g>
<g><path style="opacity:1" fill="#886dd8" d="M 163.5,147.5 C 150.027,161.395 136.36,175.061 122.5,188.5C 121.5,188.5 120.5,188.5 119.5,188.5C 119.5,187.5 119.5,186.5 119.5,185.5C 130.465,174.035 141.631,162.702 153,151.5C 153.239,150.212 152.739,149.212 151.5,148.5C 153.57,148.449 155.403,149.115 157,150.5C 159.176,149.484 160.343,147.818 160.5,145.5C 162.179,145.285 163.179,145.952 163.5,147.5 Z"/></g>
<g><path style="opacity:1" fill="#6a67da" d="M 103.5,162.5 C 104.167,162.5 104.833,162.5 105.5,162.5C 106.919,163.451 108.585,163.784 110.5,163.5C 110.242,168.784 110.908,173.95 112.5,179C 112.167,180.167 111.833,181.333 111.5,182.5C 110.989,180.116 109.989,178.116 108.5,176.5C 107.699,174.958 107.366,173.292 107.5,171.5C 106.448,171.351 105.448,171.517 104.5,172C 102.525,174.954 100.192,177.454 97.5,179.5C 96.1266,179.657 94.7932,179.49 93.5,179C 95.4641,177.549 96.7974,175.716 97.5,173.5C 98.8333,171.5 100.5,169.833 102.5,168.5C 103.434,167.432 103.768,166.099 103.5,164.5C 95.5,163.833 95.5,163.167 103.5,162.5 Z"/></g>
<g><path style="opacity:1" fill="#f3f7fb" d="M 102.5,168.5 C 100.5,169.833 98.8333,171.5 97.5,173.5C 94.8697,175.628 92.3697,177.961 90,180.5C 88.3589,174.578 86.5256,168.745 84.5,163C 89.5255,163.503 94.5255,164.503 99.5,166C 101.119,166.236 102.119,167.069 102.5,168.5 Z"/></g>
<g><path style="opacity:1" fill="#657ad6" d="M 73.5,158.5 C 79.5529,160.064 85.3863,161.398 91,162.5C 91.8333,162.333 92.6667,162.167 93.5,162C 91.2418,161.124 89.2418,159.957 87.5,158.5C 93.1562,158.99 98.4896,160.323 103.5,162.5C 95.5,163.167 95.5,163.833 103.5,164.5C 103.768,166.099 103.434,167.432 102.5,168.5C 102.119,167.069 101.119,166.236 99.5,166C 94.5255,164.503 89.5255,163.503 84.5,163C 86.5256,168.745 88.3589,174.578 90,180.5C 92.3697,177.961 94.8697,175.628 97.5,173.5C 96.7974,175.716 95.4641,177.549 93.5,179C 94.7932,179.49 96.1266,179.657 97.5,179.5C 95.31,180.374 94.31,182.041 94.5,184.5C 96.7857,184.595 98.7857,185.262 100.5,186.5C 97.0295,187.125 94.1962,186.125 92,183.5C 90.4126,184.727 89.0793,184.394 88,182.5C 87.3828,183.449 87.5494,184.282 88.5,185C 91.4375,186.801 94.4375,188.301 97.5,189.5C 93.6732,189.613 90.1732,188.613 87,186.5C 84.3333,177.833 81.6667,169.167 79,160.5C 77.0517,159.891 75.2184,159.224 73.5,158.5 Z"/></g>
<g><path style="opacity:1" fill="#f5f6fa" d="M 108.5,176.5 C 109.134,180.373 110.134,184.039 111.5,187.5C 111.5,187.833 111.5,188.167 111.5,188.5C 108.031,188.453 104.698,187.787 101.5,186.5C 101.167,186.5 100.833,186.5 100.5,186.5C 98.7857,185.262 96.7857,184.595 94.5,184.5C 94.31,182.041 95.31,180.374 97.5,179.5C 100.192,177.454 102.525,174.954 104.5,172C 105.448,171.517 106.448,171.351 107.5,171.5C 107.366,173.292 107.699,174.958 108.5,176.5 Z"/></g>
<g><path style="opacity:1" fill="#7a73cf" d="M 118.5,158.5 C 116.539,160.963 114.372,163.297 112,165.5C 111.833,166.333 111.667,167.167 111.5,168C 113.237,174.444 114.571,180.944 115.5,187.5C 114.069,187.119 113.236,186.119 113,184.5C 112.487,185.527 111.987,186.527 111.5,187.5C 110.134,184.039 109.134,180.373 108.5,176.5C 109.989,178.116 110.989,180.116 111.5,182.5C 111.833,181.333 112.167,180.167 112.5,179C 110.908,173.95 110.242,168.784 110.5,163.5C 108.585,163.784 106.919,163.451 105.5,162.5C 107.411,161.925 109.078,160.925 110.5,159.5C 110.866,160.695 111.699,161.361 113,161.5C 114.826,160.99 114.993,160.156 113.5,159C 115.134,158.506 116.801,158.34 118.5,158.5 Z"/></g>
<g><path style="opacity:1" fill="#656ade" d="M 100.5,186.5 C 100.833,186.5 101.167,186.5 101.5,186.5C 102.335,187.943 103.668,188.943 105.5,189.5C 102.956,189.949 100.29,189.949 97.5,189.5C 94.4375,188.301 91.4375,186.801 88.5,185C 87.5494,184.282 87.3828,183.449 88,182.5C 89.0793,184.394 90.4126,184.727 92,183.5C 94.1962,186.125 97.0295,187.125 100.5,186.5 Z"/></g>
<g><path style="opacity:1" fill="#6a63de" d="M 115.5,187.5 C 116.502,189.011 117.169,190.678 117.5,192.5C 114.167,192.5 110.833,192.5 107.5,192.5C 107.5,191.5 107.5,190.5 107.5,189.5C 109.099,189.768 110.432,189.434 111.5,188.5C 111.5,188.167 111.5,187.833 111.5,187.5C 111.987,186.527 112.487,185.527 113,184.5C 113.236,186.119 114.069,187.119 115.5,187.5 Z"/></g>
<g><path style="opacity:1" fill="#7673cd" d="M 119.5,185.5 C 119.5,186.5 119.5,187.5 119.5,188.5C 120.5,188.5 121.5,188.5 122.5,188.5C 120.665,191.676 117.998,193.676 114.5,194.5C 108.423,193.803 102.757,192.137 97.5,189.5C 100.29,189.949 102.956,189.949 105.5,189.5C 103.668,188.943 102.335,187.943 101.5,186.5C 104.698,187.787 108.031,188.453 111.5,188.5C 110.432,189.434 109.099,189.768 107.5,189.5C 107.5,190.5 107.5,191.5 107.5,192.5C 110.833,192.5 114.167,192.5 117.5,192.5C 117.169,190.678 116.502,189.011 115.5,187.5C 117.062,187.267 118.395,186.6 119.5,185.5 Z"/></g>
</svg>
