<?xml version="1.0" standalone="no"?>
<!DOCTYPE svg PUBLIC "-//W3C//DTD SVG 20010904//EN"
 "http://www.w3.org/TR/2001/REC-SVG-20010904/DTD/svg10.dtd">
<svg version="1.0" xmlns="http://www.w3.org/2000/svg"
 width="140.000000pt" height="140.000000pt" viewBox="0 0 140.000000 140.000000"
 preserveAspectRatio="xMidYMid meet">

<g transform="translate(0.000000,140.000000) scale(0.100000,-0.100000)"
fill="#000000" stroke="none">
<path d="M588 1340 c-140 -25 -237 -77 -343 -184 -127 -129 -179 -257 -178
-441 0 -82 5 -114 27 -180 68 -199 216 -346 411 -408 55 -17 94 -22 185 -22
135 0 217 21 319 83 224 135 345 397 297 643 -46 233 -213 421 -435 490 -74
22 -214 32 -283 19z m236 -106 c269 -69 441 -345 385 -616 -16 -77 -72 -188
-123 -245 -213 -237 -576 -237 -791 -1 -149 163 -178 404 -72 601 113 213 364
322 601 261z"/>
<path d="M571 1190 c-221 -58 -362 -241 -362 -471 -1 -222 146 -406 367 -463
296 -76 594 156 594 462 0 139 -47 252 -145 348 -70 69 -144 109 -243 130 -87
18 -122 17 -211 -6z m283 -179 c3 -4 -34 -46 -82 -94 -66 -64 -98 -88 -130
-96 -59 -16 -113 0 -168 51 l-45 42 25 24 24 25 43 -37 c33 -28 51 -36 82 -36
35 0 47 7 106 65 57 56 71 65 103 65 20 0 39 -4 42 -9z m56 -56 l24 -25 -36
-38 c-67 -69 -60 -107 36 -202 45 -44 56 -61 56 -87 0 -17 -5 -35 -11 -39 -15
-9 -167 142 -185 183 -28 64 -12 130 46 196 18 20 35 37 39 37 4 0 18 -11 31
-25z m-329 -247 c37 -72 17 -159 -51 -222 l-31 -29 -26 26 -27 26 42 45 c62
67 59 89 -28 181 -72 76 -87 114 -58 143 10 10 28 -3 86 -60 40 -40 82 -90 93
-110z m262 -92 c18 -7 47 -30 66 -50 l35 -36 -24 -25 -24 -25 -35 34 c-70 66
-105 61 -201 -29 -70 -66 -92 -75 -123 -52 -16 11 -9 20 60 89 43 42 92 84
108 92 37 20 95 20 138 2z"/>
</g>
</svg>
