<?xml version="1.0" encoding="UTF-8"?>
<!DOCTYPE svg PUBLIC "-//W3C//DTD SVG 1.1//EN" "http://www.w3.org/Graphics/SVG/1.1/DTD/svg11.dtd">
<svg xmlns="http://www.w3.org/2000/svg" version="1.1" width="400px" height="400px" style="shape-rendering:geometricPrecision; text-rendering:geometricPrecision; image-rendering:optimizeQuality; fill-rule:evenodd; clip-rule:evenodd" xmlns:xlink="http://www.w3.org/1999/xlink">
<g><path style="opacity:0.992" fill="#000000" d="M 397.5,171.5 C 397.5,190.5 397.5,209.5 397.5,228.5C 386.471,294.674 351.805,344.174 293.5,377C 273.062,387.757 251.395,394.591 228.5,397.5C 209.5,397.5 190.5,397.5 171.5,397.5C 94.3388,384.173 41.1722,341.173 12,268.5C -11.7511,194.936 0.582203,128.269 49,68.5C 97.4536,16.2121 157.287,-5.95457 228.5,2C 298.085,14.2735 348.919,51.7735 381,114.5C 389.454,132.652 394.954,151.652 397.5,171.5 Z"/></g>
<g><path style="opacity:1" fill="#1e1e1e" d="M 191.5,29.5 C 217.801,28.6648 242.801,33.6648 266.5,44.5C 267.739,45.212 268.239,46.212 268,47.5C 266.004,47.0037 264.337,46.0037 263,44.5C 261.148,46.2297 261.314,47.3964 263.5,48C 262.167,48.6667 262.167,49.3333 263.5,50C 262.906,50.4643 262.239,50.631 261.5,50.5C 237.983,40.5789 213.316,36.2456 187.5,37.5C 188.981,35.7531 190.981,34.5864 193.5,34C 191.833,33.6667 190.167,33.3333 188.5,33C 191.544,32.6411 191.878,31.9745 189.5,31C 190.416,30.7216 191.082,30.2216 191.5,29.5 Z"/></g>
<g><path style="opacity:1" fill="#393939" d="M 191.5,29.5 C 191.082,30.2216 190.416,30.7216 189.5,31C 191.878,31.9745 191.544,32.6411 188.5,33C 190.167,33.3333 191.833,33.6667 193.5,34C 190.981,34.5864 188.981,35.7531 187.5,37.5C 168.774,38.5147 150.774,42.6814 133.5,50C 126.478,53.511 119.478,57.011 112.5,60.5C 110.795,59.4647 109.128,59.4647 107.5,60.5C 105.729,59.9646 105.396,59.1313 106.5,58C 105.906,57.5357 105.239,57.369 104.5,57.5C 130.52,39.3837 159.52,30.0504 191.5,29.5 Z"/></g>
<g><path style="opacity:1" fill="#0f0f0f" d="M 266.5,44.5 C 290.678,54.6066 310.345,70.4399 325.5,92C 323.567,92.2511 321.734,92.7511 320,93.5C 303.132,75.4477 283.632,61.1143 261.5,50.5C 262.239,50.631 262.906,50.4643 263.5,50C 262.167,49.3333 262.167,48.6667 263.5,48C 261.314,47.3964 261.148,46.2297 263,44.5C 264.337,46.0037 266.004,47.0037 268,47.5C 268.239,46.212 267.739,45.212 266.5,44.5 Z"/></g>
<g><path style="opacity:1" fill="#4e4e4e" d="M 104.5,57.5 C 105.239,57.369 105.906,57.5357 106.5,58C 105.396,59.1313 105.729,59.9646 107.5,60.5C 109.128,59.4647 110.795,59.4647 112.5,60.5C 90.2397,75.7789 71.9064,94.7789 57.5,117.5C 57.631,116.761 57.4643,116.094 57,115.5C 56.2588,116.641 55.4255,116.641 54.5,115.5C 54.0894,116.262 53.9227,117.262 54,118.5C 52.3395,119.166 50.5062,119.166 48.5,118.5C 61.6626,93.0086 80.3292,72.6753 104.5,57.5 Z"/></g>
<g><path style="opacity:1" fill="#5b5b5b" d="M 57.5,117.5 C 51.331,129.501 45.9976,141.835 41.5,154.5C 40.5041,154.586 39.6708,154.252 39,153.5C 38.7296,156.362 37.8962,159.028 36.5,161.5C 36.1667,161.167 35.8333,160.833 35.5,160.5C 36.6538,157.898 37.1538,155.232 37,152.5C 36.1376,154.087 35.4709,155.754 35,157.5C 34.6174,156.944 34.1174,156.611 33.5,156.5C 36.84,143.157 41.84,130.49 48.5,118.5C 50.5062,119.166 52.3395,119.166 54,118.5C 53.9227,117.262 54.0894,116.262 54.5,115.5C 55.4255,116.641 56.2588,116.641 57,115.5C 57.4643,116.094 57.631,116.761 57.5,117.5 Z"/></g>
<g><path style="opacity:1" fill="#f6f6f6" d="M 160.5,207.5 C 160.44,206.957 160.107,206.624 159.5,206.5C 158.5,223.821 158.167,241.154 158.5,258.5C 158.441,260.722 157.275,261.722 155,261.5C 153.289,261.561 151.956,260.894 151,259.5C 150.333,221.833 150.333,184.167 151,146.5C 153.617,142.524 156.284,142.524 159,146.5C 159.333,163.167 159.667,179.833 160,196.5C 188.5,215.667 217,234.833 245.5,254C 248.167,260.333 246.167,262.667 239.5,261C 213.138,243.157 186.805,225.323 160.5,207.5 Z"/></g>
<g><path style="opacity:1" fill="#f2f2f2" d="M 240.5,143.5 C 246.293,144.421 247.626,147.255 244.5,152C 227.803,163.678 210.803,174.845 193.5,185.5C 187.946,183.687 187.279,180.854 191.5,177C 208.011,165.97 224.345,154.804 240.5,143.5 Z"/></g>
<g><path style="opacity:0.53" fill="#242a3b" d="M 397.5,171.5 C 398.167,174.5 398.833,177.5 399.5,180.5C 399.5,193.5 399.5,206.5 399.5,219.5C 398.833,222.5 398.167,225.5 397.5,228.5C 397.5,209.5 397.5,190.5 397.5,171.5 Z"/></g>
<g><path style="opacity:1" fill="#6a6a6a" d="M 41.5,154.5 C 34.8405,179.954 33.8405,205.62 38.5,231.5C 37.8501,231.196 37.1835,230.863 36.5,230.5C 35.0795,235.09 34.0795,239.757 33.5,244.5C 25.5402,215.273 25.5402,185.939 33.5,156.5C 34.1174,156.611 34.6174,156.944 35,157.5C 35.4709,155.754 36.1376,154.087 37,152.5C 37.1538,155.232 36.6538,157.898 35.5,160.5C 35.8333,160.833 36.1667,161.167 36.5,161.5C 37.8962,159.028 38.7296,156.362 39,153.5C 39.6708,154.252 40.5041,154.586 41.5,154.5 Z"/></g>
<g><path style="opacity:1" fill="#bebebe" d="M 160.5,207.5 C 159.833,224.5 159.167,241.5 158.5,258.5C 158.167,241.154 158.5,223.821 159.5,206.5C 160.107,206.624 160.44,206.957 160.5,207.5 Z"/></g>
<g><path style="opacity:1" fill="#828282" d="M 38.5,231.5 C 45.5336,267.242 62.2003,297.576 88.5,322.5C 86.0393,323.301 84.206,322.301 83,319.5C 80.6129,322.564 81.1129,325.064 84.5,327C 83.944,327.383 83.6107,327.883 83.5,328.5C 58.156,305.788 41.4894,277.788 33.5,244.5C 34.0795,239.757 35.0795,235.09 36.5,230.5C 37.1835,230.863 37.8501,231.196 38.5,231.5 Z"/></g>
<g><path style="opacity:1" fill="#cbcbcb" d="M 298.5,338.5 C 296.545,337.677 294.545,337.51 292.5,338C 292.018,339.008 291.852,340.175 292,341.5C 290.915,342.293 289.748,342.96 288.5,343.5C 288.891,342.282 288.224,341.448 286.5,341C 287.833,340.333 289.167,339.667 290.5,339C 289.833,338.667 289.167,338.333 288.5,338C 291.19,337.665 291.857,336.499 290.5,334.5C 304.665,323.835 316.999,311.335 327.5,297C 332.908,294.733 335.075,296.567 334,302.5C 323.999,316.334 312.165,328.334 298.5,338.5 Z"/></g>
<g><path style="opacity:1" fill="#999999" d="M 88.5,322.5 C 114.658,345.907 145.324,359.907 180.5,364.5C 181.058,365.79 182.058,366.623 183.5,367C 181.956,367.29 180.623,367.956 179.5,369C 181.221,370.527 183.221,371.527 185.5,372C 192.826,372.5 200.159,372.666 207.5,372.5C 159.862,375.51 118.528,360.843 83.5,328.5C 83.6107,327.883 83.944,327.383 84.5,327C 81.1129,325.064 80.6129,322.564 83,319.5C 84.206,322.301 86.0393,323.301 88.5,322.5 Z"/></g>
<g><path style="opacity:1" fill="#b8b8b8" d="M 290.5,334.5 C 291.857,336.499 291.19,337.665 288.5,338C 289.167,338.333 289.833,338.667 290.5,339C 289.167,339.667 287.833,340.333 286.5,341C 288.224,341.448 288.891,342.282 288.5,343.5C 289.748,342.96 290.915,342.293 292,341.5C 291.852,340.175 292.018,339.008 292.5,338C 294.545,337.51 296.545,337.677 298.5,338.5C 271.994,359.566 241.661,370.899 207.5,372.5C 200.159,372.666 192.826,372.5 185.5,372C 183.221,371.527 181.221,370.527 179.5,369C 180.623,367.956 181.956,367.29 183.5,367C 182.058,366.623 181.058,365.79 180.5,364.5C 220.95,367.559 257.617,357.559 290.5,334.5 Z"/></g>
<g><path style="opacity:0.34" fill="#232b3b" d="M 171.5,397.5 C 190.5,397.5 209.5,397.5 228.5,397.5C 225.5,398.167 222.5,398.833 219.5,399.5C 206.5,399.5 193.5,399.5 180.5,399.5C 177.5,398.833 174.5,398.167 171.5,397.5 Z"/></g>
</svg>
