<?xml version="1.0" encoding="UTF-8"?>
<!DOCTYPE svg PUBLIC "-//W3C//DTD SVG 1.1//EN" "http://www.w3.org/Graphics/SVG/1.1/DTD/svg11.dtd">
<svg xmlns="http://www.w3.org/2000/svg" version="1.1" width="200px" height="200px" style="shape-rendering:geometricPrecision; text-rendering:geometricPrecision; image-rendering:optimizeQuality; fill-rule:evenodd; clip-rule:evenodd" xmlns:xlink="http://www.w3.org/1999/xlink">
<g><path style="opacity:0.993" fill="#075a5a" d="M 89.5,-0.5 C 96.1667,-0.5 102.833,-0.5 109.5,-0.5C 158.701,8.03328 188.701,36.7 199.5,85.5C 199.5,94.5 199.5,103.5 199.5,112.5C 189.152,161.848 159.152,190.848 109.5,199.5C 102.833,199.5 96.1667,199.5 89.5,199.5C 40.2993,190.967 10.2993,162.3 -0.5,113.5C -0.5,104.5 -0.5,95.5 -0.5,86.5C 9.84794,37.1518 39.8479,8.15181 89.5,-0.5 Z"/></g>
<g><path style="opacity:1" fill="#85aeae" d="M 101.5,15.5 C 102.487,20.3054 102.821,25.3054 102.5,30.5C 101.833,30.5 101.5,30.8333 101.5,31.5C 88.4856,52.8692 75.4856,74.2025 62.5,95.5C 62.6309,94.6236 62.2975,93.9569 61.5,93.5C 58.1639,95.0182 54.8306,96.1849 51.5,97C 68.3032,69.889 84.9699,42.7223 101.5,15.5 Z"/></g>
<g><path style="opacity:1" fill="#70a0a0" d="M 101.5,15.5 C 101.842,14.6618 102.508,14.3284 103.5,14.5C 119.914,42.0968 136.581,69.5968 153.5,97C 149.449,95.8153 145.449,94.3153 141.5,92.5C 128.5,71.8333 115.5,51.1667 102.5,30.5C 102.821,25.3054 102.487,20.3054 101.5,15.5 Z"/></g>
<g><path style="opacity:1" fill="#438181" d="M 101.5,12.5 C 101.897,11.475 102.563,11.3083 103.5,12C 121.052,40.9447 138.719,69.778 156.5,98.5C 156.265,99.0967 155.765,99.4301 155,99.5C 151.445,98.3055 147.945,96.9722 144.5,95.5C 143.893,95.6236 143.56,95.9569 143.5,96.5C 142.326,95.4863 141.66,94.153 141.5,92.5C 145.449,94.3153 149.449,95.8153 153.5,97C 136.581,69.5968 119.914,42.0968 103.5,14.5C 103.167,13.5 102.5,12.8333 101.5,12.5 Z"/></g>
<g><path style="opacity:1" fill="#fdfdfd" d="M 101.5,31.5 C 102.497,47.9916 102.83,64.6583 102.5,81.5C 101.833,81.5 101.5,81.8333 101.5,82.5C 87.9371,88.4491 74.2704,94.1158 60.5,99.5C 60.5569,98.391 60.8902,97.391 61.5,96.5C 62.1667,96.5 62.5,96.1667 62.5,95.5C 75.4856,74.2025 88.4856,52.8692 101.5,31.5 Z"/></g>
<g><path style="opacity:1" fill="#c0dbdb" d="M 101.5,31.5 C 101.5,30.8333 101.833,30.5 102.5,30.5C 115.5,51.1667 128.5,71.8333 141.5,92.5C 141.66,94.153 142.326,95.4863 143.5,96.5C 143.5,97.1667 143.833,97.5 144.5,97.5C 144.5,97.8333 144.5,98.1667 144.5,98.5C 144.265,99.0967 143.765,99.4301 143,99.5C 129.354,93.5888 115.854,87.5888 102.5,81.5C 102.83,64.6583 102.497,47.9916 101.5,31.5 Z"/></g>
<g><path style="opacity:1" fill="#508a8a" d="M 101.5,12.5 C 102.5,12.8333 103.167,13.5 103.5,14.5C 102.508,14.3284 101.842,14.6618 101.5,15.5C 84.9699,42.7223 68.3032,69.889 51.5,97C 54.8306,96.1849 58.1639,95.0182 61.5,93.5C 62.2975,93.9569 62.6309,94.6236 62.5,95.5C 62.5,96.1667 62.1667,96.5 61.5,96.5C 61.2648,95.9033 60.7648,95.5699 60,95.5C 56.5607,97.9244 52.7274,99.2577 48.5,99.5C 65.7774,70.2315 83.4441,41.2315 101.5,12.5 Z"/></g>
<g><path style="opacity:1" fill="#6f9f9f" d="M 101.5,82.5 C 102.496,96.6569 102.829,110.99 102.5,125.5C 87.7211,117.227 73.0545,108.727 58.5,100C 59.0944,99.5357 59.7611,99.369 60.5,99.5C 74.2704,94.1158 87.9371,88.4491 101.5,82.5 Z"/></g>
<g><path style="opacity:1" fill="#a5c3c3" d="M 101.5,82.5 C 101.5,81.8333 101.833,81.5 102.5,81.5C 115.854,87.5888 129.354,93.5888 143,99.5C 143.765,99.4301 144.265,99.0967 144.5,98.5C 146.233,99.0076 146.566,99.841 145.5,101C 131.139,109.179 116.806,117.345 102.5,125.5C 102.829,110.99 102.496,96.6569 101.5,82.5 Z"/></g>
<g><path style="opacity:1" fill="#bfdada" d="M 145.5,109.5 C 142.167,114.167 138.833,118.833 135.5,123.5C 133.808,125.205 132.475,127.205 131.5,129.5C 122.077,142.678 112.41,155.678 102.5,168.5C 101.833,168.5 101.5,168.167 101.5,167.5C 102.495,156.346 102.828,145.012 102.5,133.5C 116.833,125.5 131.167,117.5 145.5,109.5 Z"/></g>
<g><path style="opacity:1" fill="#fbfcfc" d="M 59.5,108.5 C 73.6695,117.086 88.0028,125.419 102.5,133.5C 102.828,145.012 102.495,156.346 101.5,167.5C 92.5209,154.528 83.1876,141.862 73.5,129.5C 72.5667,126.63 70.9,124.296 68.5,122.5C 65.5,117.833 62.5,113.167 59.5,108.5 Z"/></g>
<g><path style="opacity:1" fill="#428181" d="M 101.5,186.5 C 102.404,185.791 102.737,184.791 102.5,183.5C 117.584,162.568 132.917,141.735 148.5,121C 142.647,123.26 136.98,126.093 131.5,129.5C 132.475,127.205 133.808,125.205 135.5,123.5C 135.435,123.938 135.601,124.272 136,124.5C 143.278,119.618 150.778,115.452 158.5,112C 140.3,136.234 122.466,160.734 105,185.5C 103.959,187.311 102.793,187.645 101.5,186.5 Z"/></g>
<g><path style="opacity:1" fill="#4f8a8a" d="M 68.5,122.5 C 70.9,124.296 72.5667,126.63 73.5,129.5C 68.3897,126.774 63.3897,123.774 58.5,120.5C 57.479,121.002 57.3123,121.668 58,122.5C 72.7183,142.378 87.2183,162.378 101.5,182.5C 101.5,183.167 101.833,183.5 102.5,183.5C 102.737,184.791 102.404,185.791 101.5,186.5C 83.1342,161.724 65.3009,136.724 48,111.5C 54.698,116.254 61.5313,119.92 68.5,122.5 Z"/></g>
<g><path style="opacity:1" fill="#2e7474" d="M 61.5,96.5 C 60.8902,97.391 60.5569,98.391 60.5,99.5C 59.7611,99.369 59.0944,99.5357 58.5,100C 73.0545,108.727 87.7211,117.227 102.5,125.5C 102.215,127.288 102.548,128.955 103.5,130.5C 120.331,120.919 136.998,111.085 153.5,101C 150.382,99.9779 147.382,98.8113 144.5,97.5C 143.833,97.5 143.5,97.1667 143.5,96.5C 143.56,95.9569 143.893,95.6236 144.5,95.5C 147.945,96.9722 151.445,98.3055 155,99.5C 155.765,99.4301 156.265,99.0967 156.5,98.5C 157.289,98.7828 157.956,99.2828 158.5,100C 154.334,102.917 150.001,105.584 145.5,108C 146.738,108.69 146.738,109.19 145.5,109.5C 131.167,117.5 116.833,125.5 102.5,133.5C 88.0028,125.419 73.6695,117.086 59.5,108.5C 55.2317,105.691 50.8984,102.857 46.5,100C 47.0944,99.5357 47.7611,99.369 48.5,99.5C 52.7274,99.2577 56.5607,97.9244 60,95.5C 60.7648,95.5699 61.2648,95.9033 61.5,96.5 Z"/></g>
<g><path style="opacity:1" fill="#4d8888" d="M 144.5,98.5 C 144.5,98.1667 144.5,97.8333 144.5,97.5C 147.382,98.8113 150.382,99.9779 153.5,101C 136.998,111.085 120.331,120.919 103.5,130.5C 102.548,128.955 102.215,127.288 102.5,125.5C 116.806,117.345 131.139,109.179 145.5,101C 146.566,99.841 146.233,99.0076 144.5,98.5 Z"/></g>
<g><path style="opacity:1" fill="#84adad" d="M 73.5,129.5 C 83.1876,141.862 92.5209,154.528 101.5,167.5C 101.5,168.167 101.833,168.5 102.5,168.5C 102.819,173.363 102.486,178.03 101.5,182.5C 87.2183,162.378 72.7183,142.378 58,122.5C 57.3123,121.668 57.479,121.002 58.5,120.5C 63.3897,123.774 68.3897,126.774 73.5,129.5 Z"/></g>
<g><path style="opacity:1" fill="#6f9f9f" d="M 102.5,183.5 C 101.833,183.5 101.5,183.167 101.5,182.5C 102.486,178.03 102.819,173.363 102.5,168.5C 112.41,155.678 122.077,142.678 131.5,129.5C 136.98,126.093 142.647,123.26 148.5,121C 132.917,141.735 117.584,162.568 102.5,183.5 Z"/></g>
</svg>
