<?xml version="1.0" encoding="UTF-8"?>
<!DOCTYPE svg PUBLIC "-//W3C//DTD SVG 1.1//EN" "http://www.w3.org/Graphics/SVG/1.1/DTD/svg11.dtd">
<svg xmlns="http://www.w3.org/2000/svg" version="1.1" width="294px" height="294px" style="shape-rendering:geometricPrecision; text-rendering:geometricPrecision; image-rendering:optimizeQuality; fill-rule:evenodd; clip-rule:evenodd" xmlns:xlink="http://www.w3.org/1999/xlink">
<g><path style="opacity:0.98" fill="#050505" d="M 125.5,-0.5 C 139.167,-0.5 152.833,-0.5 166.5,-0.5C 223.822,9.98281 263.322,42.3161 285,96.5C 303.502,157.994 290.002,211.161 244.5,256C 197.658,294.474 145.658,303.14 88.5,282C 39.0433,258.714 9.37661,220.214 -0.5,166.5C -0.5,152.833 -0.5,139.167 -0.5,125.5C 13.8333,55.8333 55.8333,13.8333 125.5,-0.5 Z"/></g>
<g><path style="opacity:1" fill="#fbfbfb" d="M 146.5,12.5 C 153.167,12.8333 159.833,13.1667 166.5,13.5C 164.827,27.7028 162.827,41.8695 160.5,56C 160.585,57.1074 160.919,58.1074 161.5,59C 164.146,59.4974 166.813,59.6641 169.5,59.5C 168.5,63.4993 167.5,67.4993 166.5,71.5C 164.723,74.5046 163.723,77.8379 163.5,81.5C 162.085,88.2435 160.419,94.9102 158.5,101.5C 157.778,101.918 157.278,102.584 157,103.5C 153.606,102.544 150.106,102.211 146.5,102.5C 146.5,72.5 146.5,42.5 146.5,12.5 Z"/></g>
<g><path style="opacity:1" fill="#5a5a5a" d="M 146.5,12.5 C 153.224,11.1961 159.891,11.5294 166.5,13.5C 159.833,13.1667 153.167,12.8333 146.5,12.5 Z"/></g>
<g><path style="opacity:1" fill="#b4b4b4" d="M 125.5,17.5 C 124.287,16.4253 122.787,15.7586 121,15.5C 118.502,15.9172 116.002,16.2505 113.5,16.5C 117.2,14.7547 121.2,13.7547 125.5,13.5C 125.5,14.8333 125.5,16.1667 125.5,17.5 Z"/></g>
<g><path style="opacity:1" fill="#f6f6f6" d="M 174.5,62.5 C 175.578,59.5979 176.244,56.5979 176.5,53.5C 179.781,41.9905 183.448,30.6572 187.5,19.5C 192.428,20.1278 197.095,21.6278 201.5,24C 203.813,24.6409 205.48,25.9743 206.5,28C 200.062,40.3753 193.729,52.8753 187.5,65.5C 186.833,65.8333 186.167,66.1667 185.5,66.5C 181.709,65.4346 178.042,64.1013 174.5,62.5 Z"/></g>
<g><path style="opacity:1" fill="#f6f6f6" d="M 125.5,17.5 C 126.677,27.6993 128.344,37.6993 130.5,47.5C 131.301,49.0418 131.634,50.7085 131.5,52.5C 131.815,55.2108 131.148,57.5441 129.5,59.5C 127.801,59.3398 126.134,59.5065 124.5,60C 123.226,60.9772 123.226,61.8106 124.5,62.5C 125.374,65.7893 126.041,69.1226 126.5,72.5C 126.723,76.1621 127.723,79.4954 129.5,82.5C 131.957,89.9935 133.623,97.6602 134.5,105.5C 130.92,104.923 127.92,105.923 125.5,108.5C 117.606,97.0646 110.44,85.0646 104,72.5C 103.261,71.4258 102.261,70.7591 101,70.5C 98.7661,71.7015 96.5994,73.0348 94.5,74.5C 85.3133,62.4788 76.3133,50.3121 67.5,38C 72.791,33.682 78.4577,29.8487 84.5,26.5C 91.8654,39.2263 98.8654,52.2263 105.5,65.5C 105.833,65.8333 106.167,66.1667 106.5,66.5C 110.148,64.5042 113.815,62.8375 117.5,61.5C 118.124,61.0831 118.457,60.4164 118.5,59.5C 117.532,55.5871 116.199,51.9204 114.5,48.5C 111.368,39.0621 108.368,29.5621 105.5,20C 107.263,17.0596 109.93,15.8929 113.5,16.5C 116.002,16.2505 118.502,15.9172 121,15.5C 122.787,15.7586 124.287,16.4253 125.5,17.5 Z"/></g>
<g><path style="opacity:1" fill="#9d9d9d" d="M 125.5,17.5 C 128.268,27.1886 129.935,37.1886 130.5,47.5C 128.344,37.6993 126.677,27.6993 125.5,17.5 Z"/></g>
<g><path style="opacity:1" fill="#f6f6f6" d="M 224.5,37.5 C 231.273,41.1105 236.44,46.1105 240,52.5C 218.946,73.8905 197.78,94.7239 176.5,115C 174.017,112.594 171.35,110.427 168.5,108.5C 175,96.8333 181.5,85.1667 188,73.5C 188.899,71.6734 190.233,70.34 192,69.5C 194.133,71.6523 196.633,72.819 199.5,73C 208.078,61.2691 216.411,49.4357 224.5,37.5 Z"/></g>
<g><path style="opacity:1" fill="#5e5e5e" d="M 114.5,48.5 C 116.199,51.9204 117.532,55.5871 118.5,59.5C 118.457,60.4164 118.124,61.0831 117.5,61.5C 116.293,57.2138 115.293,52.8805 114.5,48.5 Z"/></g>
<g><path style="opacity:1" fill="#f5f5f5" d="M 49.5,52.5 C 50.552,52.3505 51.552,52.5172 52.5,53C 73.7726,73.2744 94.606,93.7744 115,114.5C 115.667,115.167 115.667,115.833 115,116.5C 112.294,118.871 109.961,121.537 108,124.5C 95.5,117.333 83,110.167 70.5,103C 69.9781,102.439 69.6448,101.772 69.5,101C 71.1377,98.5668 72.3044,96.0668 73,93.5C 61.3856,85.5527 50.0523,77.2194 39,68.5C 38.3333,67.5 38.3333,66.5 39,65.5C 42.713,61.2923 46.213,56.959 49.5,52.5 Z"/></g>
<g><path style="opacity:1" fill="#8f8f8f" d="M 176.5,53.5 C 176.244,56.5979 175.578,59.5979 174.5,62.5C 173.903,62.2648 173.57,61.7648 173.5,61C 174.233,58.2804 175.233,55.7804 176.5,53.5 Z"/></g>
<g><path style="opacity:1" fill="#888888" d="M 131.5,52.5 C 132.468,54.6074 132.802,56.9407 132.5,59.5C 131.5,59.5 130.5,59.5 129.5,59.5C 131.148,57.5441 131.815,55.2108 131.5,52.5 Z"/></g>
<g><path style="opacity:1" fill="#5c5c5c" d="M 129.5,59.5 C 127.58,60.0652 125.913,61.0652 124.5,62.5C 123.226,61.8106 123.226,60.9772 124.5,60C 126.134,59.5065 127.801,59.3398 129.5,59.5 Z"/></g>
<g><path style="opacity:1" fill="#777777" d="M 166.5,71.5 C 166.277,75.1621 165.277,78.4954 163.5,81.5C 163.723,77.8379 164.723,74.5046 166.5,71.5 Z"/></g>
<g><path style="opacity:1" fill="#898989" d="M 126.5,72.5 C 128.277,75.5046 129.277,78.8379 129.5,82.5C 127.723,79.4954 126.723,76.1621 126.5,72.5 Z"/></g>
<g><path style="opacity:1" fill="#f7f7f7" d="M 60.5,118.5 C 56.4979,116.39 52.1646,115.057 47.5,114.5C 42.0618,113.141 36.7284,111.474 31.5,109.5C 27.4124,107.692 23.4124,105.692 19.5,103.5C 20.924,97.9791 22.924,92.6458 25.5,87.5C 26.723,86.3861 28.0563,86.2195 29.5,87C 42.2463,93.4106 54.913,99.9106 67.5,106.5C 65.6141,110.964 63.2807,114.964 60.5,118.5 Z"/></g>
<g><path style="opacity:1" fill="#a6a6a6" d="M 158.5,101.5 C 158.5,102.5 158.5,103.5 158.5,104.5C 154.316,104.149 150.316,103.482 146.5,102.5C 150.106,102.211 153.606,102.544 157,103.5C 157.278,102.584 157.778,101.918 158.5,101.5 Z"/></g>
<g><path style="opacity:1" fill="#f6f6f6" d="M 236.5,117.5 C 239.157,117.065 241.491,116.065 243.5,114.5C 247.776,113.014 252.109,111.681 256.5,110.5C 262.609,109.242 268.609,107.575 274.5,105.5C 276.847,111.911 278.181,118.578 278.5,125.5C 272.101,126.178 265.768,127.178 259.5,128.5C 256.813,128.336 254.146,128.503 251.5,129C 250.584,129.278 249.918,129.778 249.5,130.5C 247.833,130.5 246.167,130.5 244.5,130.5C 241.128,131.401 237.795,131.401 234.5,130.5C 233.95,128.343 233.283,126.343 232.5,124.5C 232.265,123.903 231.765,123.57 231,123.5C 216.606,127.689 202.106,131.356 187.5,134.5C 187.122,130.901 186.289,127.568 185,124.5C 197.035,116.968 209.202,109.635 221.5,102.5C 221.833,102 222.167,101.5 222.5,101C 220.862,98.5668 219.696,96.0668 219,93.5C 230.974,85.0265 242.807,76.3598 254.5,67.5C 258.78,72.5498 262.446,78.0498 265.5,84C 262.547,86.8156 259.213,89.1489 255.5,91C 245.894,95.645 236.394,100.478 227,105.5C 227.881,109.283 229.381,112.95 231.5,116.5C 233.045,117.452 234.712,117.785 236.5,117.5 Z"/></g>
<g><path style="opacity:1" fill="#8d8d8d" d="M 19.5,103.5 C 23.4124,105.692 27.4124,107.692 31.5,109.5C 27.4299,108.644 23.4299,107.477 19.5,106C 18.2264,105.023 18.2264,104.189 19.5,103.5 Z"/></g>
<g><path style="opacity:1" fill="#9d9d9d" d="M 274.5,105.5 C 268.609,107.575 262.609,109.242 256.5,110.5C 261.787,108.235 267.287,106.235 273,104.5C 273.765,104.57 274.265,104.903 274.5,105.5 Z"/></g>
<g><path style="opacity:1" fill="#969696" d="M 47.5,114.5 C 52.1646,115.057 56.4979,116.39 60.5,118.5C 55.8354,117.943 51.5021,116.61 47.5,114.5 Z"/></g>
<g><path style="opacity:1" fill="#888888" d="M 243.5,114.5 C 241.491,116.065 239.157,117.065 236.5,117.5C 238.32,115.552 240.654,114.552 243.5,114.5 Z"/></g>
<g><path style="opacity:1" fill="#fafafa" d="M 19.5,126.5 C 25.3103,127.857 31.3103,128.857 37.5,129.5C 40.2372,129.401 42.9039,129.735 45.5,130.5C 48.6424,131.433 51.9758,132.099 55.5,132.5C 56.7261,132.48 57.7261,132.147 58.5,131.5C 58.5751,128.794 58.9084,126.127 59.5,123.5C 74.3183,127.798 89.3183,131.465 104.5,134.5C 103.514,138.443 102.848,142.443 102.5,146.5C 72.5,146.5 42.5,146.5 12.5,146.5C 12.5782,139.485 12.9115,132.485 13.5,125.5C 15.5,125.833 17.5,126.167 19.5,126.5 Z"/></g>
<g><path style="opacity:1" fill="#4e4e4e" d="M 19.5,126.5 C 25.8197,126.4 31.8197,127.4 37.5,129.5C 31.3103,128.857 25.3103,127.857 19.5,126.5 Z"/></g>
<g><path style="opacity:1" fill="#585858" d="M 259.5,128.5 C 256.373,129.581 253.04,130.247 249.5,130.5C 249.918,129.778 250.584,129.278 251.5,129C 254.146,128.503 256.813,128.336 259.5,128.5 Z"/></g>
<g><path style="opacity:1" fill="#545454" d="M 45.5,130.5 C 49.8566,130.586 54.19,130.92 58.5,131.5C 57.7261,132.147 56.7261,132.48 55.5,132.5C 51.9758,132.099 48.6424,131.433 45.5,130.5 Z"/></g>
<g><path style="opacity:1" fill="#555555" d="M 232.5,124.5 C 233.283,126.343 233.95,128.343 234.5,130.5C 237.795,131.401 241.128,131.401 244.5,130.5C 240.817,132.25 236.817,132.917 232.5,132.5C 232.5,129.833 232.5,127.167 232.5,124.5 Z"/></g>
<g><path style="opacity:1" fill="#fbfbfb" d="M 190.5,146.5 C 220.5,146.5 250.5,146.5 280.5,146.5C 280.5,150.5 280.5,154.5 280.5,158.5C 279.527,160.948 279.194,163.615 279.5,166.5C 277.5,166.5 275.5,166.5 273.5,166.5C 269.742,166.152 266.076,165.485 262.5,164.5C 254.866,162.811 247.033,161.477 239,160.5C 237.293,160.508 235.793,160.842 234.5,161.5C 234.5,162.167 234.5,162.833 234.5,163.5C 233.515,165.506 232.182,167.173 230.5,168.5C 224.776,167.319 219.109,165.985 213.5,164.5C 211.485,163.076 209.152,162.41 206.5,162.5C 201.008,161.78 195.675,160.447 190.5,158.5C 190.244,154.65 190.244,150.65 190.5,146.5 Z"/></g>
<g><path style="opacity:1" fill="#9b9b9b" d="M 190.5,146.5 C 190.244,150.65 190.244,154.65 190.5,158.5C 189.414,158.38 188.747,157.713 188.5,156.5C 189.011,152.998 189.678,149.665 190.5,146.5 Z"/></g>
<g><path style="opacity:1" fill="#9c9c9c" d="M 234.5,161.5 C 235.793,160.842 237.293,160.508 239,160.5C 247.033,161.477 254.866,162.811 262.5,164.5C 253.145,163.687 243.811,162.687 234.5,161.5 Z"/></g>
<g><path style="opacity:1" fill="#898989" d="M 206.5,162.5 C 209.152,162.41 211.485,163.076 213.5,164.5C 210.848,164.59 208.515,163.924 206.5,162.5 Z"/></g>
<g><path style="opacity:1" fill="#979797" d="M 44.5,162.5 C 39.1699,164.667 33.5032,165.667 27.5,165.5C 32.9595,164.049 38.6261,163.049 44.5,162.5 Z"/></g>
<g><path style="opacity:1" fill="#585858" d="M 280.5,158.5 C 280.5,161.5 280.5,164.5 280.5,167.5C 277.941,167.802 275.607,167.468 273.5,166.5C 275.5,166.5 277.5,166.5 279.5,166.5C 279.194,163.615 279.527,160.948 280.5,158.5 Z"/></g>
<g><path style="opacity:1" fill="#8f8f8f" d="M 234.5,163.5 C 234.643,165.262 234.309,166.929 233.5,168.5C 232.386,169.776 231.386,169.776 230.5,168.5C 232.182,167.173 233.515,165.506 234.5,163.5 Z"/></g>
<g><path style="opacity:1" fill="#f6f6f6" d="M 183.5,168.5 C 197.476,175.325 210.81,183.158 223.5,192C 222.73,193.775 221.563,195.275 220,196.5C 219.333,197.5 219.333,198.5 220,199.5C 231.745,208.289 243.578,216.956 255.5,225.5C 251.188,230.98 246.688,236.313 242,241.5C 220.877,220.22 199.543,199.22 178,178.5C 179.903,175.373 181.736,172.039 183.5,168.5 Z"/></g>
<g><path style="opacity:1" fill="#f5f5f5" d="M 267.5,185.5 C 269.102,187.074 271.102,187.741 273.5,187.5C 272.588,192.663 271.088,197.663 269,202.5C 268.101,204.327 266.767,205.66 265,206.5C 251.335,200.751 238.168,194.084 225.5,186.5C 226.973,182.749 228.64,179.083 230.5,175.5C 231.333,175.167 232.167,174.833 233,174.5C 244.386,178.462 255.886,182.128 267.5,185.5 Z"/></g>
<g><path style="opacity:1" fill="#f6f6f6" d="M 114.5,177.5 C 117.957,179.784 121.29,182.284 124.5,185C 117.8,196.899 110.967,208.732 104,220.5C 103.221,221.728 102.221,222.728 101,223.5C 98.5668,221.862 96.0668,220.696 93.5,220C 84.7995,231.235 76.4661,242.735 68.5,254.5C 67.9984,255.521 67.3317,255.688 66.5,255C 61.3251,250.657 56.3251,246.157 51.5,241.5C 73.4025,220.601 94.4025,199.268 114.5,177.5 Z"/></g>
<g><path style="opacity:1" fill="#4a4a4a" d="M 31.5,184.5 C 28.0796,186.199 24.4129,187.532 20.5,188.5C 19.5836,188.457 18.9169,188.124 18.5,187.5C 22.7862,186.293 27.1195,185.293 31.5,184.5 Z"/></g>
<g><path style="opacity:1" fill="#f5f5f5" d="M 175.5,231.5 C 174.653,235.006 175.32,238.339 177.5,241.5C 179.5,247.5 181.5,253.5 183.5,259.5C 184.424,264.607 185.758,269.607 187.5,274.5C 181.097,276.902 174.43,278.235 167.5,278.5C 166.66,272.805 165.66,267.139 164.5,261.5C 164.771,256.566 164.104,251.9 162.5,247.5C 161.771,242.87 161.437,238.203 161.5,233.5C 164.4,233.72 167.067,233.054 169.5,231.5C 165.422,216.933 161.755,202.266 158.5,187.5C 161.766,187.371 164.766,186.371 167.5,184.5C 168.478,184.977 169.311,185.643 170,186.5C 176.57,198.892 183.736,210.892 191.5,222.5C 193.93,220.515 196.596,219.349 199.5,219C 207.614,230.782 216.114,242.282 225,253.5C 225.483,254.448 225.649,255.448 225.5,256.5C 220.273,258.784 215.273,261.617 210.5,265C 209.5,265.667 208.5,265.667 207.5,265C 200.222,252.611 193.889,239.778 188.5,226.5C 183.874,227.594 179.541,229.261 175.5,231.5 Z"/></g>
<g><path style="opacity:1" fill="#606060" d="M 267.5,185.5 C 269.898,185.259 271.898,185.926 273.5,187.5C 271.102,187.741 269.102,187.074 267.5,185.5 Z"/></g>
<g><path style="opacity:1" fill="#fafafa" d="M 146.5,280.5 C 139.814,280.473 133.148,280.139 126.5,279.5C 126.5,277.833 126.5,276.167 126.5,274.5C 126.5,273.5 126.5,272.5 126.5,271.5C 128.6,265.82 129.6,259.82 129.5,253.5C 129.232,251.901 129.566,250.568 130.5,249.5C 132.383,244.566 132.716,239.566 131.5,234.5C 130.833,234.5 130.167,234.5 129.5,234.5C 127.257,233.868 125.591,232.534 124.5,230.5C 125.675,224.798 127.009,219.132 128.5,213.5C 129.924,211.485 130.59,209.152 130.5,206.5C 131.833,200.5 133.167,194.5 134.5,188.5C 138.384,189.793 142.384,190.459 146.5,190.5C 146.5,220.5 146.5,250.5 146.5,280.5 Z"/></g>
<g><path style="opacity:1" fill="#f5f5f5" d="M 31.5,184.5 C 27.1195,185.293 22.7862,186.293 18.5,187.5C 16.2753,181.043 14.942,174.377 14.5,167.5C 18.814,166.725 23.1474,166.059 27.5,165.5C 33.5032,165.667 39.1699,164.667 44.5,162.5C 49.5166,161.497 54.5166,161.497 59.5,162.5C 60.3742,164.747 60.7076,167.08 60.5,169.5C 75.3435,165.039 90.3435,161.372 105.5,158.5C 106.046,162.355 107.046,166.022 108.5,169.5C 96.4346,175.697 84.4346,182.197 72.5,189C 71.6433,189.689 70.9767,190.522 70.5,191.5C 72.4847,193.93 73.6514,196.596 74,199.5C 62,208.167 50,216.833 38,225.5C 33.3454,219.711 29.8454,213.377 27.5,206.5C 40.0792,200.877 52.4125,194.71 64.5,188C 65.1875,183.675 64.3542,179.509 62,175.5C 61.2753,174.941 60.4419,174.608 59.5,174.5C 50.0837,177.638 40.7504,180.972 31.5,184.5 Z"/></g>
<g><path style="opacity:1" fill="#858585" d="M 130.5,206.5 C 130.59,209.152 129.924,211.485 128.5,213.5C 128.41,210.848 129.076,208.515 130.5,206.5 Z"/></g>
<g><path style="opacity:1" fill="#f4f4f4" d="M 105.5,226.5 C 109.811,227.649 114.144,228.816 118.5,230C 119.022,230.561 119.355,231.228 119.5,232C 114.201,245.232 109.701,258.732 106,272.5C 105.107,273.081 104.107,273.415 103,273.5C 98.0135,272.091 93.1802,270.258 88.5,268C 87.4258,267.261 86.7591,266.261 86.5,265C 92.7109,252.079 99.0442,239.245 105.5,226.5 Z"/></g>
<g><path style="opacity:1" fill="#868686" d="M 124.5,230.5 C 125.591,232.534 127.257,233.868 129.5,234.5C 127.738,234.643 126.071,234.309 124.5,233.5C 123.224,232.386 123.224,231.386 124.5,230.5 Z"/></g>
<g><path style="opacity:1" fill="#7b7b7b" d="M 175.5,231.5 C 176.374,234.789 177.041,238.123 177.5,241.5C 175.32,238.339 174.653,235.006 175.5,231.5 Z"/></g>
<g><path style="opacity:1" fill="#9c9c9c" d="M 131.5,234.5 C 132.716,239.566 132.383,244.566 130.5,249.5C 130.751,244.493 131.084,239.493 131.5,234.5 Z"/></g>
<g><path style="opacity:1" fill="#464646" d="M 162.5,247.5 C 164.104,251.9 164.771,256.566 164.5,261.5C 163.028,257.081 162.362,252.414 162.5,247.5 Z"/></g>
<g><path style="opacity:1" fill="#787878" d="M 129.5,253.5 C 129.6,259.82 128.6,265.82 126.5,271.5C 126.957,265.28 127.957,259.28 129.5,253.5 Z"/></g>
<g><path style="opacity:1" fill="#898989" d="M 183.5,259.5 C 185.432,263.786 187.099,268.286 188.5,273C 188.43,273.765 188.097,274.265 187.5,274.5C 185.758,269.607 184.424,264.607 183.5,259.5 Z"/></g>
<g><path style="opacity:1" fill="#494949" d="M 126.5,274.5 C 126.5,276.167 126.5,277.833 126.5,279.5C 133.148,280.139 139.814,280.473 146.5,280.5C 139.661,281.523 132.661,281.523 125.5,280.5C 125.205,278.265 125.539,276.265 126.5,274.5 Z"/></g>
</svg>
