<?xml version="1.0" encoding="UTF-8"?>
<!DOCTYPE svg PUBLIC "-//W3C//DTD SVG 1.1//EN" "http://www.w3.org/Graphics/SVG/1.1/DTD/svg11.dtd">
<svg xmlns="http://www.w3.org/2000/svg" version="1.1" width="250px" height="250px" style="shape-rendering:geometricPrecision; text-rendering:geometricPrecision; image-rendering:optimizeQuality; fill-rule:evenodd; clip-rule:evenodd" xmlns:xlink="http://www.w3.org/1999/xlink">
<g><path style="opacity:0.932" fill="#fd576d" d="M 124.5,24.5 C 124.833,44.178 124.5,63.8446 123.5,83.5C 108.549,90.8115 93.5489,97.8115 78.5,104.5C 78.0618,104.565 77.7284,104.399 77.5,104C 81.1223,99.8384 83.6223,95.0051 85,89.5C 85.3333,89.8333 85.6667,90.1667 86,90.5C 90.4773,81.401 95.144,72.401 100,63.5C 100.333,63.8333 100.667,64.1667 101,64.5C 102.716,61.3599 104.049,58.0266 105,54.5C 105.333,54.8333 105.667,55.1667 106,55.5C 109.28,48.9002 112.946,42.5669 117,36.5C 118.197,33.9109 119.197,31.2442 120,28.5C 120.333,28.8333 120.667,29.1667 121,29.5C 121.549,27.2404 122.716,25.5738 124.5,24.5 Z"/></g>
<g><path style="opacity:0.897" fill="#810010" d="M 125.5,24.5 C 126.41,26.0188 127.243,27.6854 128,29.5C 128.333,29.1667 128.667,28.8333 129,28.5C 129.803,31.2442 130.803,33.9109 132,36.5C 136.054,42.5669 139.72,48.9002 143,55.5C 149.886,66.2933 156.552,77.96 163,90.5C 163.333,90.1667 163.667,89.8333 164,89.5C 166.002,94.8367 168.502,99.8367 171.5,104.5C 169.436,104.313 167.436,103.813 165.5,103C 152.474,96.8195 139.474,90.6528 126.5,84.5C 125.513,64.5759 125.179,44.5759 125.5,24.5 Z"/></g>
<g><path style="opacity:0.917" fill="#820111" d="M 124.5,24.5 C 124.833,24.5 125.167,24.5 125.5,24.5C 125.179,44.5759 125.513,64.5759 126.5,84.5C 124.516,99.4636 123.849,114.797 124.5,130.5C 122.94,130.481 121.44,130.148 120,129.5C 117.325,127.5 114.658,125.5 112,123.5C 111.586,123.957 111.086,124.291 110.5,124.5C 104.833,120.769 98.8332,116.935 92.5,113C 87.868,111.571 83.5346,109.571 79.5,107C 78.7476,106.329 78.4142,105.496 78.5,104.5C 93.5489,97.8115 108.549,90.8115 123.5,83.5C 124.5,63.8446 124.833,44.178 124.5,24.5 Z"/></g>
<g><path style="opacity:0.96" fill="#fd576c" d="M 126.5,84.5 C 139.474,90.6528 152.474,96.8195 165.5,103C 167.436,103.813 169.436,104.313 171.5,104.5C 169.631,106.31 167.631,107.977 165.5,109.5C 162.5,110.667 159.5,111.833 156.5,113C 156.833,113.333 157.167,113.667 157.5,114C 151.904,115.648 147.404,118.148 144,121.5C 141.639,120.934 139.806,121.934 138.5,124.5C 137.914,124.291 137.414,123.957 137,123.5C 134.342,125.5 131.675,127.5 129,129.5C 127.56,130.148 126.06,130.481 124.5,130.5C 123.849,114.797 124.516,99.4636 126.5,84.5 Z"/></g>
<g><path style="opacity:0.898" fill="#fe586d" d="M 124.5,144.5 C 124.5,161.833 124.5,179.167 124.5,196.5C 120.484,193.514 117.65,189.514 116,184.5C 115.667,184.833 115.333,185.167 115,185.5C 114.004,181.499 112.004,178.166 109,175.5C 108.275,173.051 107.275,170.717 106,168.5C 105.667,168.833 105.333,169.167 105,169.5C 103.941,166.382 102.608,163.382 101,160.5C 100.667,160.833 100.333,161.167 100,161.5C 97.4364,155.603 94.4364,149.936 91,144.5C 90.6667,144.833 90.3333,145.167 90,145.5C 87.4364,139.603 84.4364,133.936 81,128.5C 80.6667,128.833 80.3333,129.167 80,129.5C 78.8644,126.904 78.031,124.237 77.5,121.5C 84.8291,122.32 90.9957,125.32 96,130.5C 96.3333,130.167 96.6667,129.833 97,129.5C 102.786,133.433 108.953,136.766 115.5,139.5C 117.919,142.095 120.919,143.761 124.5,144.5 Z"/></g>
<g><path style="opacity:0.828" fill="#800010" d="M 124.5,196.5 C 124.5,179.167 124.5,161.833 124.5,144.5C 126.679,144.16 128.512,143.16 130,141.5C 131.073,142.28 132.24,142.113 133.5,141C 133.167,140.667 132.833,140.333 132.5,140C 142.602,135.934 152.102,130.767 161,124.5C 164.309,122.785 167.809,121.785 171.5,121.5C 170.969,124.237 170.136,126.904 169,129.5C 168.333,128.167 167.667,128.167 167,129.5C 166.517,132.823 165.017,135.49 162.5,137.5C 161.058,140.05 159.892,142.716 159,145.5C 158.667,145.167 158.333,144.833 158,144.5C 154.564,149.936 151.564,155.603 149,161.5C 148.667,161.167 148.333,160.833 148,160.5C 146.392,163.382 145.059,166.382 144,169.5C 143.667,169.167 143.333,168.833 143,168.5C 139.564,173.936 136.564,179.603 134,185.5C 133.667,185.167 133.333,184.833 133,184.5C 131.725,186.717 130.725,189.051 130,191.5C 128.147,193.28 126.313,194.947 124.5,196.5 Z"/></g>
<g><path style="opacity:0.89" fill="#820112" d="M 212.5,123.5 C 204.624,135.561 196.957,147.894 189.5,160.5C 185.674,151 181.674,141.667 177.5,132.5C 178.609,131.71 179.942,131.21 181.5,131C 180.833,130.667 180.167,130.333 179.5,130C 186.566,129.12 193.232,127.787 199.5,126C 198.833,125.667 198.167,125.333 197.5,125C 202.072,124.537 206.572,123.704 211,122.5C 211.765,122.57 212.265,122.903 212.5,123.5 Z"/></g>
<g><path style="opacity:0.953" fill="#850414" d="M 36.5,125.5 C 38.5497,127.237 40.383,129.237 42,131.5C 47.8333,141.333 53.6667,151.167 59.5,161C 51.7966,159.96 44.13,158.46 36.5,156.5C 36.5,146.167 36.5,135.833 36.5,125.5 Z"/></g>
<g><path style="opacity:0.004" fill="#fe596d" d="M 68.5,129.5 C 69.8333,130.167 69.8333,130.167 68.5,129.5 Z"/></g>
<g><path style="opacity:0.906" fill="#800010" d="M 71.5,132.5 C 77.3671,140.405 82.8671,149.405 88,159.5C 88.3333,159.167 88.6667,158.833 89,158.5C 89.9419,161.993 91.2752,165.326 93,168.5C 93.3333,168.167 93.6667,167.833 94,167.5C 96.5636,173.397 99.5636,179.064 103,184.5C 103.333,184.167 103.667,183.833 104,183.5C 104.803,186.244 105.803,188.911 107,191.5C 110.649,197.455 114.315,203.455 118,209.5C 118.333,209.167 118.667,208.833 119,208.5C 120,211.167 121,213.833 122,216.5C 122.671,217.252 123.504,217.586 124.5,217.5C 124.5,219.833 124.5,222.167 124.5,224.5C 114.833,224.5 105.167,224.5 95.5,224.5C 95.5402,221.575 94.7068,218.909 93,216.5C 82.6033,199.945 72.4366,183.278 62.5,166.5C 61.3344,162.473 61.5011,158.473 63,154.5C 65.5492,147.013 68.3825,139.68 71.5,132.5 Z"/></g>
<g><path style="opacity:0.936" fill="#fd576c" d="M 212.5,123.5 C 212.5,134.5 212.5,145.5 212.5,156.5C 204.551,157.852 196.884,160.019 189.5,163C 188.333,164.167 187.167,165.333 186,166.5C 176.333,182.5 166.667,198.5 157,214.5C 154.985,217.531 153.819,220.864 153.5,224.5C 143.833,224.5 134.167,224.5 124.5,224.5C 124.5,222.167 124.5,219.833 124.5,217.5C 127.696,215.512 129.529,212.512 130,208.5C 130.333,208.833 130.667,209.167 131,209.5C 134.399,204.086 137.399,198.419 140,192.5C 140.333,192.833 140.667,193.167 141,193.5C 142.716,190.36 144.049,187.027 145,183.5C 145.333,183.833 145.667,184.167 146,184.5C 156.288,168.619 165.954,151.952 175,134.5C 175.333,134.833 175.667,135.167 176,135.5C 176.232,134.263 176.732,133.263 177.5,132.5C 181.674,141.667 185.674,151 189.5,160.5C 196.957,147.894 204.624,135.561 212.5,123.5 Z"/></g>
<g><path style="opacity:0.924" fill="#fb566b" d="M 71.5,132.5 C 68.3825,139.68 65.5492,147.013 63,154.5C 61.5011,158.473 61.3344,162.473 62.5,166.5C 72.4366,183.278 82.6033,199.945 93,216.5C 94.7068,218.909 95.5402,221.575 95.5,224.5C 86.4874,220.395 77.4874,216.062 68.5,211.5C 65.6971,207.859 63.5305,203.859 62,199.5C 61.3333,198.167 60.6667,198.167 60,199.5C 59.0581,196.007 57.7248,192.674 56,189.5C 55.6667,189.833 55.3333,190.167 55,190.5C 50.8301,181.489 46.1634,172.822 41,164.5C 40.6667,164.833 40.3333,165.167 40,165.5C 38.8175,162.474 37.6508,159.474 36.5,156.5C 44.13,158.46 51.7966,159.96 59.5,161C 53.6667,151.167 47.8333,141.333 42,131.5C 40.383,129.237 38.5497,127.237 36.5,125.5C 36.5,124.5 36.5,123.5 36.5,122.5C 46.0979,125.441 55.5979,127.775 65,129.5C 67.3242,130.416 69.4909,131.416 71.5,132.5 Z"/></g>
<g><path style="opacity:0.877" fill="#820111" d="M 212.5,156.5 C 211.346,159.479 210.18,162.479 209,165.5C 208.667,165.167 208.333,164.833 208,164.5C 199.255,181.938 189.755,198.272 179.5,213.5C 170.578,216.805 161.912,220.471 153.5,224.5C 153.819,220.864 154.985,217.531 157,214.5C 166.667,198.5 176.333,182.5 186,166.5C 187.167,165.333 188.333,164.167 189.5,163C 196.884,160.019 204.551,157.852 212.5,156.5 Z"/></g>
</svg>
