<?xml version="1.0" encoding="UTF-8"?>
<!DOCTYPE svg PUBLIC "-//W3C//DTD SVG 1.1//EN" "http://www.w3.org/Graphics/SVG/1.1/DTD/svg11.dtd">
<svg xmlns="http://www.w3.org/2000/svg" version="1.1" width="400px" height="400px" style="shape-rendering:geometricPrecision; text-rendering:geometricPrecision; image-rendering:optimizeQuality; fill-rule:evenodd; clip-rule:evenodd" xmlns:xlink="http://www.w3.org/1999/xlink">
<g><path style="opacity:0.986" fill="#d6fe01" d="M 399.5,180.5 C 399.5,193.5 399.5,206.5 399.5,219.5C 387.196,304.644 340.529,361.811 259.5,391C 246.233,394.818 232.9,397.652 219.5,399.5C 206.5,399.5 193.5,399.5 180.5,399.5C 99.4123,387.915 43.2457,344.248 12,268.5C -11.7511,194.936 0.582203,128.269 49,68.5C 97.4536,16.2121 157.287,-5.95457 228.5,2C 301.255,14.7715 353.089,54.6048 384,121.5C 391.855,140.591 397.021,160.258 399.5,180.5 Z"/></g>
<g><path style="opacity:1" fill="#010101" d="M 192.5,213.5 C 192.5,225.833 192.5,238.167 192.5,250.5C 197.167,250.5 201.833,250.5 206.5,250.5C 206.5,238.167 206.5,225.833 206.5,213.5C 219.485,177.548 232.485,141.548 245.5,105.5C 246.458,105.047 247.292,104.381 248,103.5C 249.383,100.632 250.216,97.6318 250.5,94.5C 273.167,94.5 295.833,94.5 318.5,94.5C 318.5,164.5 318.5,234.5 318.5,304.5C 303.921,304.824 289.421,304.49 275,303.5C 274.82,268.792 274.32,234.125 273.5,199.5C 274.755,194.894 275.755,190.228 276.5,185.5C 281.729,170.678 286.729,155.678 291.5,140.5C 287.78,138.232 283.78,136.566 279.5,135.5C 278.353,135.818 277.519,136.484 277,137.5C 257.058,193.162 237.225,248.828 217.5,304.5C 205.5,305.833 193.5,305.833 181.5,304.5C 161.704,248.446 141.704,192.446 121.5,136.5C 120.277,135.386 118.944,135.219 117.5,136C 113.766,136.846 110.432,138.346 107.5,140.5C 113.863,159.92 120.196,179.253 126.5,198.5C 126.5,234.167 126.5,269.833 126.5,305.5C 110.833,305.5 95.1667,305.5 79.5,305.5C 79.5,234.833 79.5,164.167 79.5,93.5C 102.843,93.1669 126.176,93.5003 149.5,94.5C 163.379,134.362 177.712,174.029 192.5,213.5 Z"/></g>
<g><path style="opacity:1" fill="#0c1401" d="M 272.5,305.5 C 272.168,269.996 272.502,234.663 273.5,199.5C 274.32,234.125 274.82,268.792 275,303.5C 289.421,304.49 303.921,304.824 318.5,304.5C 318.5,234.5 318.5,164.5 318.5,94.5C 295.833,94.5 273.167,94.5 250.5,94.5C 250.216,97.6318 249.383,100.632 248,103.5C 247.292,104.381 246.458,105.047 245.5,105.5C 246.541,101.746 247.875,98.0795 249.5,94.5C 272.824,93.5003 296.157,93.1669 319.5,93.5C 319.5,164.167 319.5,234.833 319.5,305.5C 303.833,305.5 288.167,305.5 272.5,305.5 Z"/></g>
<g><path style="opacity:1" fill="#d6f62d" d="M 126.5,198.5 C 128.494,234.151 129.16,270.151 128.5,306.5C 111.991,306.83 95.6581,306.496 79.5,305.5C 95.1667,305.5 110.833,305.5 126.5,305.5C 126.5,269.833 126.5,234.167 126.5,198.5 Z"/></g>
<g><path style="opacity:1" fill="#d0ee3d" d="M 276.5,185.5 C 275.755,190.228 274.755,194.894 273.5,199.5C 272.502,234.663 272.168,269.996 272.5,305.5C 271.336,270.002 271.169,234.336 272,198.5C 272.182,195.774 272.682,193.107 273.5,190.5C 274.001,188.345 275.001,186.678 276.5,185.5 Z"/></g>
<g><path style="opacity:1" fill="#d5ed51" d="M 192.5,213.5 C 193.495,225.322 193.828,237.322 193.5,249.5C 197.5,249.5 201.5,249.5 205.5,249.5C 205.172,237.322 205.505,225.322 206.5,213.5C 206.5,225.833 206.5,238.167 206.5,250.5C 201.833,250.5 197.167,250.5 192.5,250.5C 192.5,238.167 192.5,225.833 192.5,213.5 Z"/></g>
</svg>
