<svg xmlns="http://www.w3.org/2000/svg" width="200" height="200" viewBox="0 0 200 200">
<g>
<path d="M 198.17 79.78 C198.85,83.75 199.54,87.00 199.70,87.00 C199.87,87.00 200.00,67.43 200.00,43.50 L 200.00 200.00 L 0.00 200.00 L 0.00 0.00 L 200.00 0.00 L 153.75 0.16 C128.31,0.25 109.07,0.48 111.00,0.68 C117.44,1.34 129.24,4.18 135.90,6.67 C161.71,16.31 182.63,36.91 193.09,62.98 C195.20,68.25 197.49,75.80 198.17,79.78 ZM 66.50 150.05 C69.37,151.23 69.64,151.20 74.81,149.08 C86.57,144.25 93.49,141.83 102.16,139.50 C113.68,136.39 132.75,133.00 138.66,133.00 C144.25,133.00 149.47,130.84 151.12,127.83 C151.95,126.32 152.31,122.41 152.14,116.68 L 151.88 107.87 L 160.04 99.84 C173.75,86.35 176.82,76.36 170.90,64.51 C168.65,60.00 163.19,55.45 157.00,52.93 C154.73,52.00 149.80,51.50 143.00,51.50 C132.99,51.50 132.15,51.67 125.00,55.11 C120.88,57.09 113.42,61.66 108.44,65.26 C103.45,68.86 95.49,74.33 90.74,77.43 L 82.11 83.06 L 75.80 80.86 C67.97,78.12 50.21,77.12 43.39,79.03 C33.78,81.72 27.78,88.67 26.45,98.63 C25.03,109.34 30.82,118.27 43.18,124.45 C47.08,126.40 50.89,128.00 51.64,128.00 C52.40,128.00 54.83,131.92 57.04,136.70 C61.31,145.96 63.28,148.74 66.50,150.05 ZM 89.00 135.10 C69.82,141.77 69.76,141.78 67.21,138.53 C66.06,137.08 64.35,133.86 63.40,131.39 C61.21,125.65 61.88,124.91 72.56,121.16 C80.05,118.54 80.50,118.21 80.50,115.44 C80.50,112.89 80.09,112.46 77.43,112.20 C74.63,111.93 68.51,113.85 57.27,118.53 L 53.03 120.29 L 46.52 117.09 C37.82,112.80 34.50,108.47 34.50,101.40 C34.50,97.65 35.09,95.35 36.56,93.39 C40.66,87.90 43.36,86.68 52.42,86.20 C69.94,85.28 74.78,88.08 64.93,93.44 C62.14,94.96 59.59,96.89 59.27,97.74 C58.47,99.82 60.26,102.43 62.73,102.80 C65.13,103.16 77.62,95.77 99.28,81.15 C130.48,60.09 134.70,58.15 147.05,59.27 C161.23,60.56 169.27,71.09 164.14,81.65 C160.05,90.08 148.14,101.00 143.05,101.00 C138.26,101.00 137.93,99.38 141.26,92.26 C144.62,85.08 144.29,82.74 139.82,82.20 C137.61,81.93 136.88,82.83 133.22,90.28 C128.57,99.76 126.86,101.75 125.15,99.68 C124.40,98.78 124.34,97.30 124.97,95.11 C126.08,91.22 125.47,89.28 122.86,88.46 C119.94,87.53 118.23,89.55 116.39,96.12 C114.99,101.09 114.31,102.12 112.11,102.58 C105.07,104.08 102.50,105.55 102.18,108.29 C101.73,112.17 103.87,112.60 113.99,110.66 C118.76,109.75 127.01,109.00 132.30,109.00 C143.55,109.00 144.30,109.61 143.80,118.28 L 143.50 123.50 L 136.50 124.32 C121.42,126.07 102.85,130.29 89.00,135.10 ZM 0.10 46.75 C0.19,87.99 0.35,92.56 1.45,85.50 C4.79,64.12 12.88,47.54 27.50,32.12 C43.52,15.22 61.86,5.34 84.17,1.60 C91.93,0.30 89.34,0.20 46.25,0.10 L 0.00 0.00 ZM 0.10 153.25 L 0.00 200.00 L 88.50 199.86 L 80.00 198.06 C39.86,189.59 7.87,155.80 1.55,115.19 C0.30,107.17 0.19,110.13 0.10,153.25 ZM 114.50 199.36 C113.40,199.58 132.19,199.82 156.25,199.88 L 200.00 200.00 L 199.92 156.75 C199.88,132.96 199.70,113.95 199.52,114.50 C199.34,115.05 198.43,118.88 197.50,123.00 C193.36,141.21 184.82,156.29 170.56,170.56 C154.26,186.85 140.09,194.13 114.50,199.36 Z" fill="rgb(13,150,143)"/>
<path d="M 113.81 0.51 L 121.50 2.41 C124.33,3.10 127.03,3.84 129.63,4.64 C123.29,2.81 115.71,1.16 111.00,0.68 C110.48,0.63 111.52,0.57 113.81,0.51 ZM 0.70 111.72 C0.90,111.37 1.17,112.79 1.55,115.19 C4.17,132.05 11.22,147.74 21.44,160.92 C11.60,148.32 4.69,133.51 1.96,117.75 C1.51,115.13 1.02,112.84 0.70,111.72 ZM 180.55 40.53 C182.18,42.64 183.65,44.68 184.68,46.28 C186.42,48.99 188.18,52.24 189.83,55.71 C187.18,50.36 184.06,45.28 180.55,40.53 ZM 0.70 88.07 L 2.06 81.50 C2.56,79.10 3.10,76.79 3.69,74.55 C2.78,78.06 2.04,81.70 1.45,85.50 C1.12,87.58 0.88,88.65 0.70,88.07 ZM 27.50 32.12 C39.85,19.09 53.16,10.43 68.75,5.38 C53.18,10.50 39.67,19.28 27.50,32.12 ZM 142.28 9.32 C149.68,12.61 156.22,16.65 162.48,21.77 C156.29,16.83 149.51,12.63 142.28,9.32 ZM 7.72 62.25 C12.18,51.11 18.49,41.63 27.50,32.12 C18.64,41.46 12.18,51.24 7.72,62.25 ZM 82.39 1.91 C84.66,1.41 86.52,0.94 87.38,0.66 C88.18,0.87 86.74,1.17 84.17,1.60 C83.58,1.70 82.98,1.80 82.39,1.91 ZM 198.17 79.78 C197.72,77.15 196.56,72.95 195.22,68.88 C196.59,72.87 197.63,76.65 198.17,79.78 ZM 0.10 46.75 L 0.00 0.00 L 0.10 45.25 L 0.11 50.05 C0.10,48.98 0.10,47.88 0.10,46.75 Z" fill="rgb(78,168,163)"/>
<path d="M 0.12 56.71 C0.25,74.19 0.57,86.39 0.93,85.50 C1.12,85.02 1.47,83.82 1.91,82.22 L 0.70 88.07 C0.31,86.85 0.19,78.36 0.12,56.71 ZM 0.70 111.72 C0.89,112.39 1.14,113.48 1.41,114.80 C0.78,113.56 0.38,118.34 0.17,129.92 C0.25,117.30 0.38,112.28 0.70,111.72 ZM 9.92 142.41 C13.07,148.96 16.95,155.17 21.44,160.92 C23.91,164.10 26.56,167.14 29.38,170.02 C22.49,163.11 16.60,155.28 12.10,146.82 C11.36,145.44 10.63,143.96 9.92,142.41 ZM 2.61 121.10 C2.96,122.76 3.36,124.40 3.80,126.04 C3.29,124.25 2.89,122.58 2.61,121.10 Z" fill="rgb(160,224,221)"/>
<path d="M -0.00 156.94 C-0.00,117.59 0.65,107.16 2.35,119.52 C3.26,126.19 7.63,138.43 12.10,146.82 C25.67,172.33 51.91,192.13 80.00,198.06 L 88.50 199.86 L 44.25 199.93 L 0.00 200.00 L -0.00 156.94 ZM 114.50 199.36 C140.09,194.13 154.26,186.85 170.56,170.56 C184.82,156.29 193.36,141.21 197.50,123.00 C198.43,118.88 199.34,115.05 199.52,114.50 C199.70,113.95 199.88,132.96 199.92,156.75 L 200.00 200.00 L 156.25 199.88 C132.19,199.82 113.40,199.58 114.50,199.36 ZM 66.50 150.05 C63.28,148.74 61.31,145.96 57.04,136.70 C54.83,131.92 52.40,128.00 51.64,128.00 C50.89,128.00 47.08,126.40 43.18,124.45 C30.82,118.27 25.03,109.34 26.45,98.63 C27.78,88.67 33.78,81.72 43.39,79.03 C50.21,77.12 67.97,78.12 75.80,80.86 L 82.11 83.06 L 90.74 77.43 C95.49,74.33 103.45,68.86 108.44,65.26 C113.42,61.66 120.88,57.09 125.00,55.11 C132.15,51.67 132.99,51.50 143.00,51.50 C149.80,51.50 154.73,52.00 157.00,52.93 C163.19,55.45 168.65,60.00 170.90,64.51 C176.82,76.36 173.75,86.35 160.04,99.84 L 151.88 107.87 L 152.14 116.68 C152.31,122.41 151.95,126.32 151.12,127.83 C149.47,130.84 144.25,133.00 138.66,133.00 C132.75,133.00 113.68,136.39 102.16,139.50 C93.49,141.83 86.57,144.25 74.81,149.08 C69.64,151.20 69.37,151.23 66.50,150.05 ZM 89.00 135.10 C102.85,130.29 121.42,126.07 136.50,124.32 L 143.50 123.50 L 143.80 118.28 C144.30,109.61 143.55,109.00 132.30,109.00 C127.01,109.00 118.76,109.75 113.99,110.66 C103.87,112.60 101.73,112.17 102.18,108.29 C102.50,105.55 105.07,104.08 112.11,102.58 C114.31,102.12 114.99,101.09 116.39,96.12 C118.23,89.55 119.94,87.53 122.86,88.46 C125.47,89.28 126.08,91.22 124.97,95.11 C124.34,97.30 124.40,98.78 125.15,99.68 C126.86,101.75 128.57,99.76 133.22,90.28 C136.88,82.83 137.61,81.93 139.82,82.20 C144.29,82.74 144.62,85.08 141.26,92.26 C137.93,99.38 138.26,101.00 143.05,101.00 C148.14,101.00 160.05,90.08 164.14,81.65 C169.27,71.09 161.23,60.56 147.05,59.27 C134.70,58.15 130.48,60.09 99.28,81.15 C77.62,95.77 65.13,103.16 62.73,102.80 C60.26,102.43 58.47,99.82 59.27,97.74 C59.59,96.89 62.14,94.96 64.93,93.44 C74.78,88.08 69.94,85.28 52.42,86.20 C43.36,86.68 40.66,87.90 36.56,93.39 C35.09,95.35 34.50,97.65 34.50,101.40 C34.50,108.47 37.82,112.80 46.52,117.09 L 53.03 120.29 L 57.27 118.53 C68.51,113.85 74.63,111.93 77.43,112.20 C80.09,112.46 80.50,112.89 80.50,115.44 C80.50,118.21 80.05,118.54 72.56,121.16 C61.88,124.91 61.21,125.65 63.40,131.39 C64.35,133.86 66.06,137.08 67.21,138.53 C69.76,141.78 69.82,141.77 89.00,135.10 ZM 0.07 43.75 L 0.00 0.00 L 44.17 -0.00 C68.46,-0.00 88.13,0.20 87.89,0.45 C87.64,0.69 83.98,1.61 79.75,2.48 C59.26,6.71 42.66,16.13 27.50,32.12 C15.32,44.97 7.63,58.82 3.80,74.82 C2.65,79.59 1.36,84.40 0.93,85.50 C0.49,86.60 0.10,67.81 0.07,43.75 ZM 198.17 79.78 C196.57,70.46 190.48,55.33 184.68,46.28 C182.17,42.37 177.06,35.92 173.32,31.95 C158.46,16.21 143.96,7.94 121.50,2.41 L 112.50 0.19 L 156.25 0.10 L 200.00 0.00 L 200.00 43.50 C200.00,67.43 199.87,87.00 199.70,87.00 C199.54,87.00 198.85,83.75 198.17,79.78 Z" fill="rgb(250,253,253)"/>
</g>
</svg>