<?xml version="1.0" encoding="UTF-8"?>
<!DOCTYPE svg PUBLIC "-//W3C//DTD SVG 1.1//EN" "http://www.w3.org/Graphics/SVG/1.1/DTD/svg11.dtd">
<svg xmlns="http://www.w3.org/2000/svg" version="1.1" width="400px" height="400px" style="shape-rendering:geometricPrecision; text-rendering:geometricPrecision; image-rendering:optimizeQuality; fill-rule:evenodd; clip-rule:evenodd" xmlns:xlink="http://www.w3.org/1999/xlink">
<g><path style="opacity:0.991" fill="#2d3b5a" d="M 191.5,0.5 C 190.751,10.8267 190.084,21.1601 189.5,31.5C 187.5,31.5 185.5,31.5 183.5,31.5C 181.415,30.168 181.415,35.5013 183.5,47.5C 185.5,47.5 187.5,47.5 189.5,47.5C 189.5,52.8333 189.5,58.1667 189.5,63.5C 190.833,63.5 192.167,63.5 193.5,63.5C 193.697,68.9745 193.031,74.3078 191.5,79.5C 194.167,79.5 196.833,79.5 199.5,79.5C 199.5,82.1667 199.5,84.8333 199.5,87.5C 196.833,87.5 194.167,87.5 191.5,87.5C 191.5,88.5 191.5,89.5 191.5,90.5C 188.833,90.5 186.167,90.5 183.5,90.5C 183.5,86.8333 183.5,83.1667 183.5,79.5C 180.833,79.5 178.167,79.5 175.5,79.5C 175.5,71.5 175.5,63.5 175.5,55.5C 172.833,55.5 170.167,55.5 167.5,55.5C 167.5,42.1667 167.5,28.8333 167.5,15.5C 169.167,15.5 170.833,15.5 172.5,15.5C 172.5,12.8333 172.5,10.1667 172.5,7.5C 173.5,7.5 174.5,7.5 175.5,7.5C 175.5,5.5 175.5,3.5 175.5,1.5C 180.805,0.805779 186.138,0.472446 191.5,0.5 Z"/></g>
<g><path style="opacity:0.993" fill="#2c3a5f" d="M 191.5,0.5 C 196.833,0.5 202.167,0.5 207.5,0.5C 207.666,5.17853 207.499,9.8452 207,14.5C 205.301,15.4061 203.467,15.7394 201.5,15.5C 202.831,31.4654 203.498,47.4654 203.5,63.5C 204.822,63.33 205.989,63.6634 207,64.5C 207.499,70.1569 207.666,75.8236 207.5,81.5C 209.5,81.5 211.5,81.5 213.5,81.5C 213.5,82.8333 213.5,84.1667 213.5,85.5C 211.5,85.5 209.5,85.5 207.5,85.5C 207.5,89.1667 207.5,92.8333 207.5,96.5C 219.495,96.9664 231.495,97.2998 243.5,97.5C 247.199,96.4208 250.865,96.4208 254.5,97.5C 254.5,97.8333 254.5,98.1667 254.5,98.5C 243.5,98.5 232.5,98.5 221.5,98.5C 208.36,97.2651 195.693,95.9318 183.5,94.5C 183.5,93.1667 183.5,91.8333 183.5,90.5C 186.167,90.5 188.833,90.5 191.5,90.5C 191.5,89.5 191.5,88.5 191.5,87.5C 194.167,87.5 196.833,87.5 199.5,87.5C 199.5,84.8333 199.5,82.1667 199.5,79.5C 196.833,79.5 194.167,79.5 191.5,79.5C 193.031,74.3078 193.697,68.9745 193.5,63.5C 192.167,63.5 190.833,63.5 189.5,63.5C 189.5,58.1667 189.5,52.8333 189.5,47.5C 187.5,47.5 185.5,47.5 183.5,47.5C 181.415,35.5013 181.415,30.168 183.5,31.5C 185.5,31.5 187.5,31.5 189.5,31.5C 190.084,21.1601 190.751,10.8267 191.5,0.5 Z"/></g>
<g><path style="opacity:0.99" fill="#2c3a66" d="M 207.5,0.5 C 212.87,0.392122 218.203,0.725455 223.5,1.5C 223.5,8.83333 223.5,16.1667 223.5,23.5C 222.167,23.5 220.833,23.5 219.5,23.5C 219.5,34.1667 219.5,44.8333 219.5,55.5C 220.833,55.5 222.167,55.5 223.5,55.5C 223.5,66.1667 223.5,76.8333 223.5,87.5C 224.5,87.5 225.5,87.5 226.5,87.5C 226.336,84.8127 226.503,82.146 227,79.5C 228.939,84.6065 232.439,88.2732 237.5,90.5C 238.829,93.5461 240.829,95.8794 243.5,97.5C 231.495,97.2998 219.495,96.9664 207.5,96.5C 207.5,92.8333 207.5,89.1667 207.5,85.5C 209.5,85.5 211.5,85.5 213.5,85.5C 213.5,84.1667 213.5,82.8333 213.5,81.5C 211.5,81.5 209.5,81.5 207.5,81.5C 207.666,75.8236 207.499,70.1569 207,64.5C 205.989,63.6634 204.822,63.33 203.5,63.5C 203.498,47.4654 202.831,31.4654 201.5,15.5C 203.467,15.7394 205.301,15.4061 207,14.5C 207.499,9.8452 207.666,5.17853 207.5,0.5 Z"/></g>
<g><path style="opacity:0.983" fill="#2d3b54" d="M 175.5,1.5 C 175.5,3.5 175.5,5.5 175.5,7.5C 174.5,7.5 173.5,7.5 172.5,7.5C 172.5,10.1667 172.5,12.8333 172.5,15.5C 170.833,15.5 169.167,15.5 167.5,15.5C 167.5,28.8333 167.5,42.1667 167.5,55.5C 170.167,55.5 172.833,55.5 175.5,55.5C 175.5,63.5 175.5,71.5 175.5,79.5C 178.167,79.5 180.833,79.5 183.5,79.5C 183.5,83.1667 183.5,86.8333 183.5,90.5C 183.5,91.8333 183.5,93.1667 183.5,94.5C 195.693,95.9318 208.36,97.2651 221.5,98.5C 200.833,98.5 180.167,98.5 159.5,98.5C 159.5,98.1667 159.5,97.8333 159.5,97.5C 159.666,91.8236 159.499,86.1569 159,80.5C 157.301,79.5939 155.467,79.2606 153.5,79.5C 153.5,71.5 153.5,63.5 153.5,55.5C 155.5,55.5 157.5,55.5 159.5,55.5C 159.5,50.1667 159.5,44.8333 159.5,39.5C 160.833,39.5 162.167,39.5 163.5,39.5C 163.5,36.8333 163.5,34.1667 163.5,31.5C 162.167,31.5 160.833,31.5 159.5,31.5C 159.5,23.5 159.5,15.5 159.5,7.5C 156.918,7.97461 154.918,7.30794 153.5,5.5C 160.755,3.78247 168.088,2.44913 175.5,1.5 Z"/></g>
<g><path style="opacity:0.987" fill="#2d3a6d" d="M 223.5,1.5 C 229.888,2.17586 236.222,3.17586 242.5,4.5C 242.5,8.16667 242.5,11.8333 242.5,15.5C 239.5,15.5 236.5,15.5 233.5,15.5C 233.5,28.8333 233.5,42.1667 233.5,55.5C 234.833,55.5 236.167,55.5 237.5,55.5C 237.536,59.9781 238.369,64.3115 240,68.5C 243.263,70.2589 246.097,72.5922 248.5,75.5C 248.5,78.1667 248.5,80.8333 248.5,83.5C 250.132,86.1455 252.465,87.4789 255.5,87.5C 255.89,90.4658 255.223,93.1324 253.5,95.5C 253.863,96.1835 254.196,96.8501 254.5,97.5C 250.865,96.4208 247.199,96.4208 243.5,97.5C 240.829,95.8794 238.829,93.5461 237.5,90.5C 232.439,88.2732 228.939,84.6065 227,79.5C 226.503,82.146 226.336,84.8127 226.5,87.5C 225.5,87.5 224.5,87.5 223.5,87.5C 223.5,76.8333 223.5,66.1667 223.5,55.5C 222.167,55.5 220.833,55.5 219.5,55.5C 219.5,44.8333 219.5,34.1667 219.5,23.5C 220.833,23.5 222.167,23.5 223.5,23.5C 223.5,16.1667 223.5,8.83333 223.5,1.5 Z"/></g>
<g><path style="opacity:0.991" fill="#2d3a71" d="M 242.5,4.5 C 247.073,5.38775 251.406,6.72108 255.5,8.5C 255.5,21.5 255.5,34.5 255.5,47.5C 254.5,47.5 253.5,47.5 252.5,47.5C 252.5,39.5 252.5,31.5 252.5,23.5C 251.5,23.5 250.5,23.5 249.5,23.5C 249.445,36.853 249.945,50.1863 251,63.5C 254.346,67.8632 256.013,72.8632 256,78.5C 257.011,79.3366 258.178,79.67 259.5,79.5C 261.009,84.682 264.342,88.3486 269.5,90.5C 273.404,94.6478 277.071,98.9811 280.5,103.5C 282.609,104.65 284.609,105.984 286.5,107.5C 287.167,106.167 287.833,104.833 288.5,103.5C 292.353,106.346 295.02,110.012 296.5,114.5C 298.909,115.701 300.909,117.367 302.5,119.5C 303.114,115.93 304.448,115.597 306.5,118.5C 305.429,120.624 306.263,121.624 309,121.5C 310.365,121.156 311.532,120.489 312.5,119.5C 314.51,121.171 316.843,121.838 319.5,121.5C 319.5,122.5 319.5,123.5 319.5,124.5C 322.167,124.5 324.833,124.5 327.5,124.5C 327.351,125.552 327.517,126.552 328,127.5C 340.076,127.5 352.909,127.333 366.5,127C 367.406,125.301 367.739,123.467 367.5,121.5C 371.846,121.666 376.179,121.499 380.5,121C 381.044,120.283 381.711,119.783 382.5,119.5C 385.4,124.848 387.733,130.515 389.5,136.5C 386.42,138.276 383.92,140.61 382,143.5C 371.972,143.556 362.305,143.556 353,143.5C 351.812,144.563 351.312,145.897 351.5,147.5C 346.167,147.5 340.833,147.5 335.5,147.5C 335.539,145.641 334.706,144.308 333,143.5C 328.667,143.833 324.333,144.167 320,144.5C 319.51,143.207 319.343,141.873 319.5,140.5C 313.463,139.825 307.463,138.825 301.5,137.5C 299.545,136.547 297.878,135.213 296.5,133.5C 295.833,134.167 295.167,134.833 294.5,135.5C 292.909,133.367 290.909,131.701 288.5,130.5C 287.808,131.025 287.308,131.692 287,132.5C 278.931,127.723 271.764,121.89 265.5,115C 262.833,114.667 260.167,114.333 257.5,114C 256.695,109.251 256.195,104.418 256,99.5C 255.617,98.944 255.117,98.6107 254.5,98.5C 254.5,98.1667 254.5,97.8333 254.5,97.5C 254.196,96.8501 253.863,96.1835 253.5,95.5C 255.223,93.1324 255.89,90.4658 255.5,87.5C 252.465,87.4789 250.132,86.1455 248.5,83.5C 248.5,80.8333 248.5,78.1667 248.5,75.5C 246.097,72.5922 243.263,70.2589 240,68.5C 238.369,64.3115 237.536,59.9781 237.5,55.5C 236.167,55.5 234.833,55.5 233.5,55.5C 233.5,42.1667 233.5,28.8333 233.5,15.5C 236.5,15.5 239.5,15.5 242.5,15.5C 242.5,11.8333 242.5,8.16667 242.5,4.5 Z"/></g>
<g><path style="opacity:0.986" fill="#30414e" d="M 149.5,6.5 C 149.736,17.5528 149.069,28.5528 147.5,39.5C 149.101,51.1143 149.768,62.7809 149.5,74.5C 147.5,74.5 145.5,74.5 143.5,74.5C 143.52,76.143 142.853,77.4763 141.5,78.5C 143.167,79.1667 144.833,79.8333 146.5,80.5C 144.321,83.5638 141.321,84.8971 137.5,84.5C 137.773,82.549 137.107,81.049 135.5,80C 136.308,79.6924 136.975,79.1924 137.5,78.5C 136.478,77.646 135.645,76.646 135,75.5C 134.667,75.8333 134.333,76.1667 134,76.5C 133.333,72.8333 133.333,69.1667 134,65.5C 134.5,65 135,64.5 135.5,64C 134.923,57.2541 134.923,50.4207 135.5,43.5C 134.497,34.1601 133.497,24.8268 132.5,15.5C 133.5,15.5 134.5,15.5 135.5,15.5C 135.5,13.8333 135.5,12.1667 135.5,10.5C 140.167,9.16667 144.833,7.83333 149.5,6.5 Z"/></g>
<g><path style="opacity:0.993" fill="#2f3c79" d="M 255.5,8.5 C 259.162,8.7234 262.495,9.7234 265.5,11.5C 264.934,13.0783 263.934,14.4116 262.5,15.5C 261.334,31.156 261.167,46.8227 262,62.5C 265.018,62.9813 267.852,63.9813 270.5,65.5C 271.94,74.7045 276.273,82.3712 283.5,88.5C 289.862,92.6834 295.862,97.35 301.5,102.5C 306.584,103.591 310.584,106.258 313.5,110.5C 321.725,111.181 329.891,111.847 338,112.5C 347.333,112.5 356.667,112.5 366,112.5C 370.164,111.803 374.33,111.137 378.5,110.5C 380.592,113.088 381.925,116.088 382.5,119.5C 381.711,119.783 381.044,120.283 380.5,121C 376.179,121.499 371.846,121.666 367.5,121.5C 367.739,123.467 367.406,125.301 366.5,127C 352.909,127.333 340.076,127.5 328,127.5C 327.517,126.552 327.351,125.552 327.5,124.5C 324.833,124.5 322.167,124.5 319.5,124.5C 319.5,123.5 319.5,122.5 319.5,121.5C 316.843,121.838 314.51,121.171 312.5,119.5C 311.532,120.489 310.365,121.156 309,121.5C 306.263,121.624 305.429,120.624 306.5,118.5C 304.448,115.597 303.114,115.93 302.5,119.5C 300.909,117.367 298.909,115.701 296.5,114.5C 295.02,110.012 292.353,106.346 288.5,103.5C 287.833,104.833 287.167,106.167 286.5,107.5C 284.609,105.984 282.609,104.65 280.5,103.5C 277.071,98.9811 273.404,94.6478 269.5,90.5C 264.342,88.3486 261.009,84.682 259.5,79.5C 258.178,79.67 257.011,79.3366 256,78.5C 256.013,72.8632 254.346,67.8632 251,63.5C 249.945,50.1863 249.445,36.853 249.5,23.5C 250.5,23.5 251.5,23.5 252.5,23.5C 252.5,31.5 252.5,39.5 252.5,47.5C 253.5,47.5 254.5,47.5 255.5,47.5C 255.5,34.5 255.5,21.5 255.5,8.5 Z"/></g>
<g><path style="opacity:0.989" fill="#324286" d="M 275.5,15.5 C 279.787,16.6483 283.787,18.315 287.5,20.5C 287.5,29.5 287.5,38.5 287.5,47.5C 288.5,47.5 289.5,47.5 290.5,47.5C 289.53,55.7212 291.53,63.0545 296.5,69.5C 301.319,71.1486 303.652,74.4819 303.5,79.5C 306.049,79.3874 308.382,80.0541 310.5,81.5C 314.645,87.1388 320.312,89.6388 327.5,89C 328.672,89.4186 329.672,90.0853 330.5,91C 342.829,91.4999 355.162,91.6665 367.5,91.5C 368.89,92.8993 369.89,94.5659 370.5,96.5C 369.603,95.4019 368.77,95.4019 368,96.5C 367.764,98.764 367.264,100.931 366.5,103C 349.703,103.841 333.037,102.841 316.5,100C 314.788,96.845 312.121,95.1783 308.5,95C 307.663,93.9887 307.33,92.8221 307.5,91.5C 298.841,89.5077 293.508,84.1743 291.5,75.5C 288.657,75.0828 285.99,74.0828 283.5,72.5C 284.833,71.5 284.833,70.5 283.5,69.5C 277.385,66.8658 275.052,62.1991 276.5,55.5C 275.5,55.5 274.5,55.5 273.5,55.5C 272.841,50.186 272.174,44.8527 271.5,39.5C 272.203,31.1124 273.537,23.1124 275.5,15.5 Z"/></g>
<g><path style="opacity:0.982" fill="#334646" d="M 117.5,18.5 C 117.167,32.1829 117.501,45.8496 118.5,59.5C 119.167,52.8333 119.833,46.1667 120.5,39.5C 121.859,51.2251 121.525,62.8918 119.5,74.5C 117.097,74.393 115.264,75.393 114,77.5C 111.658,81.2846 111.158,85.2846 112.5,89.5C 114.673,87.8296 116.84,86.1629 119,84.5C 119.497,87.146 119.664,89.8127 119.5,92.5C 122.167,92.5 124.833,92.5 127.5,92.5C 127.5,94.5 127.5,96.5 127.5,98.5C 122.167,98.5 116.833,98.5 111.5,98.5C 108.495,96.7234 105.162,95.7234 101.5,95.5C 101.316,91.9206 101.983,88.5873 103.5,85.5C 104.833,85.5 106.167,85.5 107.5,85.5C 107.665,81.8183 107.499,78.1516 107,74.5C 106.311,75.3567 105.478,76.0233 104.5,76.5C 103.746,72.0573 102.746,67.724 101.5,63.5C 100.448,63.6495 99.448,63.4828 98.5,63C 99.8155,60.1673 101.816,59.334 104.5,60.5C 105.499,48.5185 105.832,36.5185 105.5,24.5C 108.914,21.4598 112.914,19.4598 117.5,18.5 Z"/></g>
<g><path style="opacity:0.962" fill="#34448c" d="M 287.5,20.5 C 321.039,36.3693 347.706,60.036 367.5,91.5C 355.162,91.6665 342.829,91.4999 330.5,91C 329.672,90.0853 328.672,89.4186 327.5,89C 320.312,89.6388 314.645,87.1388 310.5,81.5C 308.382,80.0541 306.049,79.3874 303.5,79.5C 303.652,74.4819 301.319,71.1486 296.5,69.5C 291.53,63.0545 289.53,55.7212 290.5,47.5C 289.5,47.5 288.5,47.5 287.5,47.5C 287.5,38.5 287.5,29.5 287.5,20.5 Z"/></g>
<g><path style="opacity:0.964" fill="#354a3f" d="M 93.5,31.5 C 93.5334,42.3598 94.8668,53.0265 97.5,63.5C 95.5,63.5 93.5,63.5 91.5,63.5C 91.5,66.1667 91.5,68.8333 91.5,71.5C 90.1779,71.67 89.0113,71.3366 88,70.5C 85.9286,72.4547 85.2619,74.788 86,77.5C 87.0113,76.6634 88.1779,76.33 89.5,76.5C 89.5,77.5 89.5,78.5 89.5,79.5C 91.2624,79.3573 92.9291,79.6906 94.5,80.5C 95.3283,85.1315 95.8283,89.7982 96,94.5C 96.6708,95.2524 97.5041,95.5858 98.5,95.5C 98.38,96.5862 97.7133,97.2528 96.5,97.5C 93.6944,95.9362 90.6944,95.2695 87.5,95.5C 87.6123,100.801 84.9456,103.468 79.5,103.5C 79.5,98.1667 79.5,92.8333 79.5,87.5C 76.8333,87.5 74.1667,87.5 71.5,87.5C 71.5,86.5 71.5,85.5 71.5,84.5C 74.1667,84.5 76.8333,84.5 79.5,84.5C 80.9533,80.3841 81.62,76.0508 81.5,71.5C 80.4086,61.7655 79.0753,52.0988 77.5,42.5C 82.2783,38.0599 87.6117,34.3932 93.5,31.5 Z"/></g>
<g><path style="opacity:0.971" fill="#364c3a" d="M 77.5,42.5 C 79.0753,52.0988 80.4086,61.7655 81.5,71.5C 81.62,76.0508 80.9533,80.3841 79.5,84.5C 76.8333,84.5 74.1667,84.5 71.5,84.5C 69.0521,83.5269 66.3854,83.1936 63.5,83.5C 63.5,73.8333 63.5,64.1667 63.5,54.5C 67.7539,50.0365 72.4206,46.0365 77.5,42.5 Z"/></g>
<g><path style="opacity:1" fill="#2e3d4f" d="M 153.5,5.5 C 154.918,7.30794 156.918,7.97461 159.5,7.5C 159.5,15.5 159.5,23.5 159.5,31.5C 160.833,31.5 162.167,31.5 163.5,31.5C 163.5,34.1667 163.5,36.8333 163.5,39.5C 162.167,39.5 160.833,39.5 159.5,39.5C 159.5,44.8333 159.5,50.1667 159.5,55.5C 157.5,55.5 155.5,55.5 153.5,55.5C 153.5,63.5 153.5,71.5 153.5,79.5C 155.467,79.2606 157.301,79.5939 159,80.5C 159.499,86.1569 159.666,91.8236 159.5,97.5C 152.695,97.8151 146.029,97.1485 139.5,95.5C 138.047,92.0137 137.381,88.347 137.5,84.5C 141.321,84.8971 144.321,83.5638 146.5,80.5C 144.833,79.8333 143.167,79.1667 141.5,78.5C 142.853,77.4763 143.52,76.143 143.5,74.5C 145.5,74.5 147.5,74.5 149.5,74.5C 149.768,62.7809 149.101,51.1143 147.5,39.5C 149.069,28.5528 149.736,17.5528 149.5,6.5C 150.833,6.16667 152.167,5.83333 153.5,5.5 Z"/></g>
<g><path style="opacity:1" fill="#354843" d="M 105.5,24.5 C 105.832,36.5185 105.499,48.5185 104.5,60.5C 101.816,59.334 99.8155,60.1673 98.5,63C 99.448,63.4828 100.448,63.6495 101.5,63.5C 102.746,67.724 103.746,72.0573 104.5,76.5C 105.478,76.0233 106.311,75.3567 107,74.5C 107.499,78.1516 107.665,81.8183 107.5,85.5C 106.167,85.5 104.833,85.5 103.5,85.5C 101.983,88.5873 101.316,91.9206 101.5,95.5C 105.162,95.7234 108.495,96.7234 111.5,98.5C 107.5,98.5 103.5,98.5 99.5,98.5C 99.7373,97.209 99.404,96.209 98.5,95.5C 97.5041,95.5858 96.6708,95.2524 96,94.5C 95.8283,89.7982 95.3283,85.1315 94.5,80.5C 92.9291,79.6906 91.2624,79.3573 89.5,79.5C 89.5,78.5 89.5,77.5 89.5,76.5C 88.1779,76.33 87.0113,76.6634 86,77.5C 85.2619,74.788 85.9286,72.4547 88,70.5C 89.0113,71.3366 90.1779,71.67 91.5,71.5C 91.5,68.8333 91.5,66.1667 91.5,63.5C 93.5,63.5 95.5,63.5 97.5,63.5C 94.8668,53.0265 93.5334,42.3598 93.5,31.5C 96.8349,28.1611 100.835,25.8278 105.5,24.5 Z"/></g>
<g><path style="opacity:1" fill="#304249" d="M 135.5,10.5 C 135.5,12.1667 135.5,13.8333 135.5,15.5C 134.5,15.5 133.5,15.5 132.5,15.5C 133.497,24.8268 134.497,34.1601 135.5,43.5C 134.923,50.4207 134.923,57.2541 135.5,64C 135,64.5 134.5,65 134,65.5C 133.333,69.1667 133.333,72.8333 134,76.5C 134.333,76.1667 134.667,75.8333 135,75.5C 135.645,76.646 136.478,77.646 137.5,78.5C 136.975,79.1924 136.308,79.6924 135.5,80C 137.107,81.049 137.773,82.549 137.5,84.5C 137.381,88.347 138.047,92.0137 139.5,95.5C 146.029,97.1485 152.695,97.8151 159.5,97.5C 159.5,97.8333 159.5,98.1667 159.5,98.5C 148.833,98.5 138.167,98.5 127.5,98.5C 127.5,96.5 127.5,94.5 127.5,92.5C 124.833,92.5 122.167,92.5 119.5,92.5C 119.664,89.8127 119.497,87.146 119,84.5C 116.84,86.1629 114.673,87.8296 112.5,89.5C 111.158,85.2846 111.658,81.2846 114,77.5C 115.264,75.393 117.097,74.393 119.5,74.5C 121.525,62.8918 121.859,51.2251 120.5,39.5C 119.833,46.1667 119.167,52.8333 118.5,59.5C 117.501,45.8496 117.167,32.1829 117.5,18.5C 123.2,15.3199 129.2,12.6532 135.5,10.5 Z"/></g>
<g><path style="opacity:0.997" fill="#313f7f" d="M 265.5,11.5 C 269.137,12.2635 272.47,13.5968 275.5,15.5C 273.537,23.1124 272.203,31.1124 271.5,39.5C 272.174,44.8527 272.841,50.186 273.5,55.5C 274.5,55.5 275.5,55.5 276.5,55.5C 275.052,62.1991 277.385,66.8658 283.5,69.5C 284.833,70.5 284.833,71.5 283.5,72.5C 285.99,74.0828 288.657,75.0828 291.5,75.5C 293.508,84.1743 298.841,89.5077 307.5,91.5C 307.33,92.8221 307.663,93.9887 308.5,95C 312.121,95.1783 314.788,96.845 316.5,100C 333.037,102.841 349.703,103.841 366.5,103C 367.264,100.931 367.764,98.764 368,96.5C 368.77,95.4019 369.603,95.4019 370.5,96.5C 373.669,100.833 376.336,105.5 378.5,110.5C 374.33,111.137 370.164,111.803 366,112.5C 356.667,112.5 347.333,112.5 338,112.5C 329.891,111.847 321.725,111.181 313.5,110.5C 310.584,106.258 306.584,103.591 301.5,102.5C 295.862,97.35 289.862,92.6834 283.5,88.5C 276.273,82.3712 271.94,74.7045 270.5,65.5C 267.852,63.9813 265.018,62.9813 262,62.5C 261.167,46.8227 261.334,31.156 262.5,15.5C 263.934,14.4116 264.934,13.0783 265.5,11.5 Z"/></g>
<g><path style="opacity:0.972" fill="#344833" d="M 63.5,54.5 C 63.5,64.1667 63.5,73.8333 63.5,83.5C 66.3854,83.1936 69.0521,83.5269 71.5,84.5C 71.5,85.5 71.5,86.5 71.5,87.5C 74.1667,87.5 76.8333,87.5 79.5,87.5C 79.5,92.8333 79.5,98.1667 79.5,103.5C 76.8333,103.5 74.1667,103.5 71.5,103.5C 71.5,104.833 71.5,106.167 71.5,107.5C 58.1487,107.666 44.8154,107.333 31.5,106.5C 31.2714,104.567 30.4381,102.9 29,101.5C 28.3292,100.748 27.4959,100.414 26.5,100.5C 36.4437,83.2993 48.777,67.966 63.5,54.5 Z"/></g>
<g><path style="opacity:1" fill="#cdd2e2" d="M 98.5,99.5 C 98.5,98.8333 98.8333,98.5 99.5,98.5C 103.5,98.5 107.5,98.5 111.5,98.5C 116.833,98.5 122.167,98.5 127.5,98.5C 138.167,98.5 148.833,98.5 159.5,98.5C 180.167,98.5 200.833,98.5 221.5,98.5C 232.5,98.5 243.5,98.5 254.5,98.5C 254.5,99.1667 254.5,99.8333 254.5,100.5C 254.5,116.5 254.5,132.5 254.5,148.5C 254.167,148.5 253.833,148.5 253.5,148.5C 253.5,132.167 253.5,115.833 253.5,99.5C 221.833,99.5 190.167,99.5 158.5,99.5C 138.5,99.5 118.5,99.5 98.5,99.5 Z"/></g>
<g><path style="opacity:1" fill="#f7f8f7" d="M 98.5,99.5 C 118.5,99.5 138.5,99.5 158.5,99.5C 158.611,100.117 158.944,100.617 159.5,101C 190.5,101.333 221.5,101.667 252.5,102C 249.355,104.068 248.855,106.568 251,109.5C 251.667,121.5 251.667,133.5 251,145.5C 247.386,146.74 246.719,145.74 249,142.5C 249.667,132.5 249.667,122.5 249,112.5C 248,111.167 247,111.167 246,112.5C 245.667,122.833 245.333,133.167 245,143.5C 243.636,144.696 242.136,145.696 240.5,146.5C 219.023,146.7 197.523,146.367 176,145.5C 167.184,145.823 158.684,146.823 150.5,148.5C 149.501,198.331 149.168,248.331 149.5,298.5C 132.5,298.5 115.5,298.5 98.5,298.5C 98.5,232.167 98.5,165.833 98.5,99.5 Z"/></g>
<g><path style="opacity:0.984" fill="#2f402e" d="M 26.5,100.5 C 27.4959,100.414 28.3292,100.748 29,101.5C 30.4381,102.9 31.2714,104.567 31.5,106.5C 44.8154,107.333 58.1487,107.666 71.5,107.5C 71.5,109.833 71.5,112.167 71.5,114.5C 74.1667,114.5 76.8333,114.5 79.5,114.5C 79.3802,111.795 80.3802,111.128 82.5,112.5C 83.4742,114.743 83.8076,117.076 83.5,119.5C 83.5,120.833 83.5,122.167 83.5,123.5C 65.4969,123.667 47.4969,123.5 29.5,123C 27.5,122.333 25.5,121.667 23.5,121C 22.1667,120.333 22.1667,119.667 23.5,119C 21.5273,118.505 19.5273,118.338 17.5,118.5C 19.9728,112.221 22.9728,106.221 26.5,100.5 Z"/></g>
<g><path style="opacity:0.991" fill="#293465" d="M 254.5,98.5 C 255.117,98.6107 255.617,98.944 256,99.5C 256.195,104.418 256.695,109.251 257.5,114C 260.167,114.333 262.833,114.667 265.5,115C 271.764,121.89 278.931,127.723 287,132.5C 287.308,131.692 287.808,131.025 288.5,130.5C 290.909,131.701 292.909,133.367 294.5,135.5C 295.167,134.833 295.833,134.167 296.5,133.5C 297.878,135.213 299.545,136.547 301.5,137.5C 307.463,138.825 313.463,139.825 319.5,140.5C 319.343,141.873 319.51,143.207 320,144.5C 324.333,144.167 328.667,143.833 333,143.5C 334.706,144.308 335.539,145.641 335.5,147.5C 340.833,147.5 346.167,147.5 351.5,147.5C 351.312,145.897 351.812,144.563 353,143.5C 362.305,143.556 371.972,143.556 382,143.5C 383.92,140.61 386.42,138.276 389.5,136.5C 391.299,141.36 392.632,146.36 393.5,151.5C 390.167,151.5 386.833,151.5 383.5,151.5C 383.5,153.5 383.5,155.5 383.5,157.5C 370.116,157.17 356.783,157.837 343.5,159.5C 335.828,158.544 328.161,157.544 320.5,156.5C 316.919,149.783 314.752,150.45 314,158.5C 313,159.167 312,159.833 311,160.5C 309.746,157.024 309.079,153.358 309,149.5C 307.934,147.901 306.434,146.901 304.5,146.5C 288.544,147.651 272.544,147.818 256.5,147C 257,146.5 257.5,146 258,145.5C 259.667,145.833 261.333,146.167 263,146.5C 269.419,145.687 275.919,145.187 282.5,145C 278.204,144.036 273.87,143.203 269.5,142.5C 265.553,139.516 261.553,136.516 257.5,133.5C 256.702,131.922 256.202,130.256 256,128.5C 255.83,118.991 255.33,109.658 254.5,100.5C 254.5,99.8333 254.5,99.1667 254.5,98.5 Z"/></g>
<g><path style="opacity:0.99" fill="#2b3b2a" d="M 17.5,118.5 C 19.5273,118.338 21.5273,118.505 23.5,119C 22.1667,119.667 22.1667,120.333 23.5,121C 25.5,121.667 27.5,122.333 29.5,123C 47.4969,123.5 65.4969,123.667 83.5,123.5C 83.5,122.167 83.5,120.833 83.5,119.5C 84.9688,122.255 86.3022,125.255 87.5,128.5C 84.8333,129.833 82.1667,131.167 79.5,132.5C 81.1045,134.179 81.7711,136.179 81.5,138.5C 70.2175,139.457 58.8841,139.79 47.5,139.5C 47.5,140.5 47.5,141.5 47.5,142.5C 44.8333,142.5 42.1667,142.5 39.5,142.5C 39.5,141.5 39.5,140.5 39.5,139.5C 34.1667,139.5 28.8333,139.5 23.5,139.5C 23.5,138.167 23.5,136.833 23.5,135.5C 19.2984,135.817 15.2984,135.483 11.5,134.5C 12.9402,128.954 14.9402,123.62 17.5,118.5 Z"/></g>
<g><path style="opacity:1" fill="#334037" d="M 98.5,95.5 C 99.404,96.209 99.7373,97.209 99.5,98.5C 98.8333,98.5 98.5,98.8333 98.5,99.5C 98.5,165.833 98.5,232.167 98.5,298.5C 98.5,298.833 98.5,299.167 98.5,299.5C 97.5029,279.674 97.1695,259.674 97.5,239.5C 97.5,234.5 97.5,229.5 97.5,224.5C 97.5,218.833 97.5,213.167 97.5,207.5C 97.5,198.833 97.5,190.167 97.5,181.5C 97.5,177.833 97.5,174.167 97.5,170.5C 97.5,164.167 97.5,157.833 97.5,151.5C 97.6633,149.143 97.4966,146.81 97,144.5C 95.9125,146.932 95.4125,146.598 95.5,143.5C 93.5,143.5 91.5,143.5 89.5,143.5C 89.8076,141.076 89.4742,138.743 88.5,136.5C 86.4775,138.173 84.1441,138.84 81.5,138.5C 81.7711,136.179 81.1045,134.179 79.5,132.5C 82.1667,131.167 84.8333,129.833 87.5,128.5C 86.3022,125.255 84.9688,122.255 83.5,119.5C 83.8076,117.076 83.4742,114.743 82.5,112.5C 80.3802,111.128 79.3802,111.795 79.5,114.5C 76.8333,114.5 74.1667,114.5 71.5,114.5C 71.5,112.167 71.5,109.833 71.5,107.5C 71.5,106.167 71.5,104.833 71.5,103.5C 74.1667,103.5 76.8333,103.5 79.5,103.5C 84.9456,103.468 87.6123,100.801 87.5,95.5C 90.6944,95.2695 93.6944,95.9362 96.5,97.5C 97.7133,97.2528 98.38,96.5862 98.5,95.5 Z"/></g>
<g><path style="opacity:0.99" fill="#283526" d="M 11.5,134.5 C 15.2984,135.483 19.2984,135.817 23.5,135.5C 23.5,136.833 23.5,138.167 23.5,139.5C 28.8333,139.5 34.1667,139.5 39.5,139.5C 39.5,140.5 39.5,141.5 39.5,142.5C 42.1667,142.5 44.8333,142.5 47.5,142.5C 47.5,141.5 47.5,140.5 47.5,139.5C 58.8841,139.79 70.2175,139.457 81.5,138.5C 84.1441,138.84 86.4775,138.173 88.5,136.5C 89.4742,138.743 89.8076,141.076 89.5,143.5C 91.5,143.5 93.5,143.5 95.5,143.5C 95.4125,146.598 95.9125,146.932 97,144.5C 97.4966,146.81 97.6633,149.143 97.5,151.5C 96.661,152.641 95.9943,153.974 95.5,155.5C 87.8215,156.203 80.4882,158.036 73.5,161C 54.1499,161.225 34.8166,160.725 15.5,159.5C 15.719,158.325 15.3857,157.325 14.5,156.5C 12.0905,155.299 10.0905,153.633 8.5,151.5C 7.73485,152.612 6.73485,153.279 5.5,153.5C 7.05426,146.926 9.05426,140.592 11.5,134.5 Z"/></g>
<g><path style="opacity:1" fill="#f6f7fd" d="M 158.5,99.5 C 190.167,99.5 221.833,99.5 253.5,99.5C 253.5,115.833 253.5,132.167 253.5,148.5C 219.167,148.5 184.833,148.5 150.5,148.5C 158.684,146.823 167.184,145.823 176,145.5C 197.523,146.367 219.023,146.7 240.5,146.5C 242.136,145.696 243.636,144.696 245,143.5C 245.333,133.167 245.667,122.833 246,112.5C 247,111.167 248,111.167 249,112.5C 249.667,122.5 249.667,132.5 249,142.5C 246.719,145.74 247.386,146.74 251,145.5C 251.667,133.5 251.667,121.5 251,109.5C 248.855,106.568 249.355,104.068 252.5,102C 221.5,101.667 190.5,101.333 159.5,101C 158.944,100.617 158.611,100.117 158.5,99.5 Z"/></g>
<g><path style="opacity:0.99" fill="#222e22" d="M 97.5,151.5 C 97.5,157.833 97.5,164.167 97.5,170.5C 95.7868,171.635 95.1201,173.302 95.5,175.5C 75.4333,174.931 55.4333,175.598 35.5,177.5C 29.2538,176.034 22.9204,175.201 16.5,175C 13.9841,172.317 11.3174,169.817 8.5,167.5C 7.74917,168.376 7.24917,169.376 7,170.5C 5.60026,169.252 4.10026,168.252 2.5,167.5C 3.5,162.833 4.5,158.167 5.5,153.5C 6.73485,153.279 7.73485,152.612 8.5,151.5C 10.0905,153.633 12.0905,155.299 14.5,156.5C 15.3857,157.325 15.719,158.325 15.5,159.5C 34.8166,160.725 54.1499,161.225 73.5,161C 80.4882,158.036 87.8215,156.203 95.5,155.5C 95.9943,153.974 96.661,152.641 97.5,151.5 Z"/></g>
<g><path style="opacity:1" fill="#222a4e" d="M 243.5,149.5 C 243.833,149.5 244.167,149.5 244.5,149.5C 246.942,150.726 249.276,152.059 251.5,153.5C 251.492,163.565 250.659,173.565 249,183.5C 247.283,176.768 245.616,170.102 244,163.5C 243.426,166.321 242.092,168.654 240,170.5C 239.505,168.527 239.338,166.527 239.5,164.5C 231.94,161.257 223.94,158.09 215.5,155C 216.167,154.667 216.833,154.333 217.5,154C 214.167,153.667 210.833,153.333 207.5,153C 217.497,152.034 227.497,151.2 237.5,150.5C 239.861,151.973 241.861,151.639 243.5,149.5 Z"/></g>
<g><path style="opacity:0.992" fill="#29325f" d="M 254.5,100.5 C 255.33,109.658 255.83,118.991 256,128.5C 256.202,130.256 256.702,131.922 257.5,133.5C 261.553,136.516 265.553,139.516 269.5,142.5C 273.87,143.203 278.204,144.036 282.5,145C 275.919,145.187 269.419,145.687 263,146.5C 261.333,146.167 259.667,145.833 258,145.5C 257.5,146 257,146.5 256.5,147C 272.544,147.818 288.544,147.651 304.5,146.5C 306.434,146.901 307.934,147.901 309,149.5C 309.079,153.358 309.746,157.024 311,160.5C 312,159.833 313,159.167 314,158.5C 314.752,150.45 316.919,149.783 320.5,156.5C 328.161,157.544 335.828,158.544 343.5,159.5C 356.783,157.837 370.116,157.17 383.5,157.5C 383.5,155.5 383.5,153.5 383.5,151.5C 386.833,151.5 390.167,151.5 393.5,151.5C 394.768,153.905 395.435,156.572 395.5,159.5C 391.518,160.217 388.018,160.217 385,159.5C 383.921,162.063 383.421,164.729 383.5,167.5C 370.305,168.974 356.972,170.308 343.5,171.5C 338.328,170.874 333.161,170.208 328,169.5C 325.05,169.568 322.383,170.234 320,171.5C 318.16,167.904 316.327,164.237 314.5,160.5C 313.17,165.596 311.836,170.596 310.5,175.5C 309.833,175.5 309.167,175.5 308.5,175.5C 308.666,167.16 308.5,158.827 308,150.5C 307.722,149.584 307.222,148.918 306.5,148.5C 289.167,148.5 271.833,148.5 254.5,148.5C 254.5,132.5 254.5,116.5 254.5,100.5 Z"/></g>
<g><path style="opacity:1" fill="#f7f7f8" d="M 254.5,149.5 C 271.5,149.5 288.5,149.5 305.5,149.5C 305.5,188.833 305.5,228.167 305.5,267.5C 305.5,277.833 305.5,288.167 305.5,298.5C 271.167,298.5 236.833,298.5 202.5,298.5C 202.5,282.167 202.5,265.833 202.5,249.5C 219.833,249.5 237.167,249.5 254.5,249.5C 254.5,216.167 254.5,182.833 254.5,149.5 Z"/></g>
<g><path style="opacity:1" fill="#212a37" d="M 154.5,149.5 C 162.167,149.5 169.833,149.5 177.5,149.5C 175.909,150.219 174.409,151.219 173,152.5C 172,152.167 171,151.833 170,151.5C 168.055,152.863 165.888,153.697 163.5,154C 169.568,155.199 175.568,156.699 181.5,158.5C 175.5,159.167 169.5,159.833 163.5,160.5C 167.652,165.669 172.985,169.002 179.5,170.5C 181.005,171.842 181.672,173.508 181.5,175.5C 179.5,175.5 177.5,175.5 175.5,175.5C 175.719,174.325 175.386,173.325 174.5,172.5C 170.202,176.143 165.202,177.809 159.5,177.5C 157.709,176.609 155.876,175.609 154,174.5C 153.814,172.1 153.314,169.766 152.5,167.5C 151.604,161.827 151.271,156.327 151.5,151C 152.737,150.768 153.737,150.268 154.5,149.5 Z"/></g>
<g><path style="opacity:1" fill="#222a3c" d="M 177.5,149.5 C 188.167,149.5 198.833,149.5 209.5,149.5C 209.082,150.222 208.416,150.722 207.5,151C 200.98,151.871 194.647,152.704 188.5,153.5C 188.167,153.833 187.833,154.167 187.5,154.5C 190.674,156.225 194.007,157.558 197.5,158.5C 192.88,159.493 188.214,159.827 183.5,159.5C 183.238,160.978 183.571,162.311 184.5,163.5C 190.391,164.089 195.391,166.422 199.5,170.5C 196.833,170.5 194.167,170.5 191.5,170.5C 191.5,172.833 191.5,175.167 191.5,177.5C 187.917,177.768 184.584,177.101 181.5,175.5C 181.672,173.508 181.005,171.842 179.5,170.5C 172.985,169.002 167.652,165.669 163.5,160.5C 169.5,159.833 175.5,159.167 181.5,158.5C 175.568,156.699 169.568,155.199 163.5,154C 165.888,153.697 168.055,152.863 170,151.5C 171,151.833 172,152.167 173,152.5C 174.409,151.219 175.909,150.219 177.5,149.5 Z"/></g>
<g><path style="opacity:1" fill="#212743" d="M 209.5,149.5 C 220.833,149.5 232.167,149.5 243.5,149.5C 241.861,151.639 239.861,151.973 237.5,150.5C 227.497,151.2 217.497,152.034 207.5,153C 210.833,153.333 214.167,153.667 217.5,154C 216.833,154.333 216.167,154.667 215.5,155C 223.94,158.09 231.94,161.257 239.5,164.5C 239.338,166.527 239.505,168.527 240,170.5C 242.092,168.654 243.426,166.321 244,163.5C 245.616,170.102 247.283,176.768 249,183.5C 250.659,173.565 251.492,163.565 251.5,153.5C 252.651,171.339 252.651,189.339 251.5,207.5C 250.167,207.5 248.833,207.5 247.5,207.5C 246.173,202.606 245.173,197.606 244.5,192.5C 243.402,194.632 242.402,196.798 241.5,199C 239.866,199.494 238.199,199.66 236.5,199.5C 236.5,196.833 236.5,194.167 236.5,191.5C 234.833,191.5 233.167,191.5 231.5,191.5C 231.129,188.108 229.463,185.442 226.5,183.5C 222.968,182.097 219.302,181.097 215.5,180.5C 212.925,177.681 210.592,174.681 208.5,171.5C 205.579,170.593 202.579,170.26 199.5,170.5C 195.391,166.422 190.391,164.089 184.5,163.5C 183.571,162.311 183.238,160.978 183.5,159.5C 188.214,159.827 192.88,159.493 197.5,158.5C 194.007,157.558 190.674,156.225 187.5,154.5C 187.833,154.167 188.167,153.833 188.5,153.5C 194.647,152.704 200.98,151.871 207.5,151C 208.416,150.722 209.082,150.222 209.5,149.5 Z"/></g>
<g><path style="opacity:1" fill="#2a315a" d="M 395.5,159.5 C 396.926,164.721 397.926,170.055 398.5,175.5C 396.24,176.139 394.24,177.306 392.5,179C 368.233,181.644 343.9,182.144 319.5,180.5C 316.235,177.22 314.735,173.22 315,168.5C 314.835,174.523 313.501,180.19 311,185.5C 310.502,182.183 310.335,178.85 310.5,175.5C 311.836,170.596 313.17,165.596 314.5,160.5C 316.327,164.237 318.16,167.904 320,171.5C 322.383,170.234 325.05,169.568 328,169.5C 333.161,170.208 338.328,170.874 343.5,171.5C 356.972,170.308 370.305,168.974 383.5,167.5C 383.421,164.729 383.921,162.063 385,159.5C 388.018,160.217 391.518,160.217 395.5,159.5 Z"/></g>
<g><path style="opacity:1" fill="#20243b" d="M 244.5,149.5 C 247.5,149.5 250.5,149.5 253.5,149.5C 253.5,166.833 253.5,184.167 253.5,201.5C 252.672,207.319 252.172,213.319 252,219.5C 251.784,221.384 251.117,223.051 250,224.5C 249.333,223.833 248.667,223.167 248,222.5C 247.497,217.81 246.83,213.143 246,208.5C 244.989,207.663 243.822,207.33 242.5,207.5C 242.5,209.5 242.5,211.5 242.5,213.5C 241.178,213.67 240.011,213.337 239,212.5C 238.618,207.975 236.118,206.309 231.5,207.5C 232.012,202.675 230.012,199.342 225.5,197.5C 223.666,198.754 221.666,199.421 219.5,199.5C 219.5,196.833 219.5,194.167 219.5,191.5C 218.167,191.5 216.833,191.5 215.5,191.5C 215.5,190.167 215.5,188.833 215.5,187.5C 207.957,187.9 201.624,185.234 196.5,179.5C 194.929,178.691 193.262,178.357 191.5,178.5C 191.5,178.167 191.5,177.833 191.5,177.5C 191.5,175.167 191.5,172.833 191.5,170.5C 194.167,170.5 196.833,170.5 199.5,170.5C 202.579,170.26 205.579,170.593 208.5,171.5C 210.592,174.681 212.925,177.681 215.5,180.5C 219.302,181.097 222.968,182.097 226.5,183.5C 229.463,185.442 231.129,188.108 231.5,191.5C 233.167,191.5 234.833,191.5 236.5,191.5C 236.5,194.167 236.5,196.833 236.5,199.5C 238.199,199.66 239.866,199.494 241.5,199C 242.402,196.798 243.402,194.632 244.5,192.5C 245.173,197.606 246.173,202.606 247.5,207.5C 248.833,207.5 250.167,207.5 251.5,207.5C 252.651,189.339 252.651,171.339 251.5,153.5C 249.276,152.059 246.942,150.726 244.5,149.5 Z"/></g>
<g><path style="opacity:1" fill="#1e2234" d="M 191.5,178.5 C 193.262,178.357 194.929,178.691 196.5,179.5C 201.624,185.234 207.957,187.9 215.5,187.5C 215.5,188.833 215.5,190.167 215.5,191.5C 216.833,191.5 218.167,191.5 219.5,191.5C 219.5,194.167 219.5,196.833 219.5,199.5C 221.666,199.421 223.666,198.754 225.5,197.5C 230.012,199.342 232.012,202.675 231.5,207.5C 236.118,206.309 238.618,207.975 239,212.5C 240.011,213.337 241.178,213.67 242.5,213.5C 241.032,216.278 240.199,219.278 240,222.5C 239.517,221.552 239.351,220.552 239.5,219.5C 238.5,219.5 237.5,219.5 236.5,219.5C 236.5,220.833 236.5,222.167 236.5,223.5C 232.167,223.5 227.833,223.5 223.5,223.5C 223.935,216.743 221.102,211.743 215,208.5C 214.245,205.281 212.412,202.947 209.5,201.5C 208.167,202.167 206.833,202.833 205.5,203.5C 202.796,201.451 200.13,199.451 197.5,197.5C 195.699,193.046 192.366,191.046 187.5,191.5C 187.276,186.587 184.943,184.921 180.5,186.5C 171.267,184.387 171.601,183.053 181.5,182.5C 180.167,181.833 178.833,181.167 177.5,180.5C 182.317,179.833 186.983,179.166 191.5,178.5 Z"/></g>
<g><path style="opacity:1" fill="#1e281f" d="M 2.5,167.5 C 4.10026,168.252 5.60026,169.252 7,170.5C 7.24917,169.376 7.74917,168.376 8.5,167.5C 11.3174,169.817 13.9841,172.317 16.5,175C 22.9204,175.201 29.2538,176.034 35.5,177.5C 55.4333,175.598 75.4333,174.931 95.5,175.5C 95.1201,173.302 95.7868,171.635 97.5,170.5C 97.5,174.167 97.5,177.833 97.5,181.5C 96.5206,184.625 96.1872,187.958 96.5,191.5C 93.5178,191.104 90.8511,191.771 88.5,193.5C 83.0617,191.612 77.3951,190.946 71.5,191.5C 71.5,192.5 71.5,193.5 71.5,194.5C 60.8333,194.5 50.1667,194.5 39.5,194.5C 39.5,193.5 39.5,192.5 39.5,191.5C 33.6049,190.946 27.9383,191.612 22.5,193.5C 20.4902,191.829 18.1569,191.162 15.5,191.5C 15.5,190.5 15.5,189.5 15.5,188.5C 12.1501,188.665 8.81677,188.498 5.5,188C 4.08992,186.628 2.42325,185.795 0.5,185.5C 1.09371,179.49 1.76038,173.49 2.5,167.5 Z"/></g>
<g><path style="opacity:0.994" fill="#1c221b" d="M 97.5,181.5 C 97.5,190.167 97.5,198.833 97.5,207.5C 96.6981,206.048 96.1981,204.382 96,202.5C 95.5065,204.134 95.3398,205.801 95.5,207.5C 84.8333,207.5 74.1667,207.5 63.5,207.5C 63.5,208.5 63.5,209.5 63.5,210.5C 55.5,210.5 47.5,210.5 39.5,210.5C 39.5,209.5 39.5,208.5 39.5,207.5C 31.5,207.5 23.5,207.5 15.5,207.5C 15.5,206.5 15.5,205.5 15.5,204.5C 9.29061,205.755 4.29061,204.089 0.5,199.5C 0.5,194.833 0.5,190.167 0.5,185.5C 2.42325,185.795 4.08992,186.628 5.5,188C 8.81677,188.498 12.1501,188.665 15.5,188.5C 15.5,189.5 15.5,190.5 15.5,191.5C 18.1569,191.162 20.4902,191.829 22.5,193.5C 27.9383,191.612 33.6049,190.946 39.5,191.5C 39.5,192.5 39.5,193.5 39.5,194.5C 50.1667,194.5 60.8333,194.5 71.5,194.5C 71.5,193.5 71.5,192.5 71.5,191.5C 77.3951,190.946 83.0617,191.612 88.5,193.5C 90.8511,191.771 93.5178,191.104 96.5,191.5C 96.1872,187.958 96.5206,184.625 97.5,181.5 Z"/></g>
<g><path style="opacity:1" fill="#1c242b" d="M 150.5,149.5 C 151.833,149.5 153.167,149.5 154.5,149.5C 153.737,150.268 152.737,150.768 151.5,151C 151.271,156.327 151.604,161.827 152.5,167.5C 153.314,169.766 153.814,172.1 154,174.5C 155.876,175.609 157.709,176.609 159.5,177.5C 161.717,179.08 164.384,180.08 167.5,180.5C 163.865,182.987 159.865,184.32 155.5,184.5C 155.5,185.5 155.5,186.5 155.5,187.5C 158.167,187.5 160.833,187.5 163.5,187.5C 163.526,191.844 165.526,193.178 169.5,191.5C 171.536,192.885 173.536,194.218 175.5,195.5C 171.971,197.423 167.971,198.089 163.5,197.5C 159.44,198.152 157.44,196.485 157.5,192.5C 155.139,192.326 152.806,191.993 150.5,191.5C 150.5,177.5 150.5,163.5 150.5,149.5 Z"/></g>
<g><path style="opacity:1" fill="#1c2330" d="M 181.5,175.5 C 184.584,177.101 187.917,177.768 191.5,177.5C 191.5,177.833 191.5,178.167 191.5,178.5C 186.983,179.166 182.317,179.833 177.5,180.5C 178.833,181.167 180.167,181.833 181.5,182.5C 171.601,183.053 171.267,184.387 180.5,186.5C 184.943,184.921 187.276,186.587 187.5,191.5C 192.366,191.046 195.699,193.046 197.5,197.5C 191.49,196.906 185.49,196.24 179.5,195.5C 178.167,195.5 176.833,195.5 175.5,195.5C 173.536,194.218 171.536,192.885 169.5,191.5C 165.526,193.178 163.526,191.844 163.5,187.5C 160.833,187.5 158.167,187.5 155.5,187.5C 155.5,186.5 155.5,185.5 155.5,184.5C 159.865,184.32 163.865,182.987 167.5,180.5C 164.384,180.08 161.717,179.08 159.5,177.5C 165.202,177.809 170.202,176.143 174.5,172.5C 175.386,173.325 175.719,174.325 175.5,175.5C 177.5,175.5 179.5,175.5 181.5,175.5 Z"/></g>
<g><path style="opacity:1" fill="#2b2f54" d="M 398.5,175.5 C 398.216,177.415 398.549,179.081 399.5,180.5C 399.5,182.167 399.5,183.833 399.5,185.5C 397.833,185.5 396.167,185.5 394.5,185.5C 394.5,187.5 394.5,189.5 394.5,191.5C 390.833,191.5 387.167,191.5 383.5,191.5C 383.5,192.833 383.5,194.167 383.5,195.5C 362.204,197.054 340.87,197.721 319.5,197.5C 319.5,195.5 319.5,193.5 319.5,191.5C 317.143,191.337 314.81,191.503 312.5,192C 311.726,194.405 311.226,196.905 311,199.5C 309.193,191.604 308.36,183.604 308.5,175.5C 309.167,175.5 309.833,175.5 310.5,175.5C 310.335,178.85 310.502,182.183 311,185.5C 313.501,180.19 314.835,174.523 315,168.5C 314.735,173.22 316.235,177.22 319.5,180.5C 343.9,182.144 368.233,181.644 392.5,179C 394.24,177.306 396.24,176.139 398.5,175.5 Z"/></g>
<g><path style="opacity:1" fill="#62636f" d="M 150.5,149.5 C 150.5,149.167 150.5,148.833 150.5,148.5C 184.833,148.5 219.167,148.5 253.5,148.5C 253.833,148.5 254.167,148.5 254.5,148.5C 254.5,148.833 254.5,149.167 254.5,149.5C 254.5,182.833 254.5,216.167 254.5,249.5C 237.167,249.5 219.833,249.5 202.5,249.5C 219.325,248.503 236.325,248.17 253.5,248.5C 253.5,243.833 253.5,239.167 253.5,234.5C 253.5,223.5 253.5,212.5 253.5,201.5C 253.5,184.167 253.5,166.833 253.5,149.5C 250.5,149.5 247.5,149.5 244.5,149.5C 244.167,149.5 243.833,149.5 243.5,149.5C 232.167,149.5 220.833,149.5 209.5,149.5C 198.833,149.5 188.167,149.5 177.5,149.5C 169.833,149.5 162.167,149.5 154.5,149.5C 153.167,149.5 151.833,149.5 150.5,149.5 Z"/></g>
<g><path style="opacity:0.999" fill="#2c2e4d" d="M 306.5,148.5 C 307.222,148.918 307.722,149.584 308,150.5C 308.5,158.827 308.666,167.16 308.5,175.5C 308.36,183.604 309.193,191.604 311,199.5C 311.226,196.905 311.726,194.405 312.5,192C 314.81,191.503 317.143,191.337 319.5,191.5C 319.5,193.5 319.5,195.5 319.5,197.5C 340.87,197.721 362.204,197.054 383.5,195.5C 383.5,194.167 383.5,192.833 383.5,191.5C 387.167,191.5 390.833,191.5 394.5,191.5C 394.5,189.5 394.5,187.5 394.5,185.5C 396.167,185.5 397.833,185.5 399.5,185.5C 399.5,191.5 399.5,197.5 399.5,203.5C 394.167,203.5 388.833,203.5 383.5,203.5C 383.5,204.833 383.5,206.167 383.5,207.5C 378.167,207.5 372.833,207.5 367.5,207.5C 367.67,208.822 367.337,209.989 366.5,211C 356.172,211.5 345.839,211.666 335.5,211.5C 335.5,210.167 335.5,208.833 335.5,207.5C 329.907,207.193 324.407,207.527 319,208.5C 316.53,206.269 314.197,206.269 312,208.5C 311.654,211.576 310.988,214.576 310,217.5C 309.316,208.666 308.482,199.999 307.5,191.5C 307.795,189.265 307.461,187.265 306.5,185.5C 306.5,173.167 306.5,160.833 306.5,148.5 Z"/></g>
<g><path style="opacity:1" fill="#171b21" d="M 150.5,191.5 C 152.806,191.993 155.139,192.326 157.5,192.5C 157.44,196.485 159.44,198.152 163.5,197.5C 165.875,202.451 169.875,204.451 175.5,203.5C 175.5,204.833 175.5,206.167 175.5,207.5C 177.5,207.5 179.5,207.5 181.5,207.5C 181.328,209.492 181.995,211.158 183.5,212.5C 180.914,213.48 178.247,213.813 175.5,213.5C 175.5,214.833 175.5,216.167 175.5,217.5C 172.747,216.286 170.08,214.786 167.5,213C 164.833,212.333 162.167,212.333 159.5,213C 160.308,213.308 160.975,213.808 161.5,214.5C 158.914,215.48 156.247,215.813 153.5,215.5C 153.306,211.995 152.306,211.662 150.5,214.5C 150.5,206.833 150.5,199.167 150.5,191.5 Z"/></g>
<g><path style="opacity:0.992" fill="#2d2d47" d="M 307.5,191.5 C 308.482,199.999 309.316,208.666 310,217.5C 310.988,214.576 311.654,211.576 312,208.5C 314.197,206.269 316.53,206.269 319,208.5C 324.407,207.527 329.907,207.193 335.5,207.5C 335.5,208.833 335.5,210.167 335.5,211.5C 345.839,211.666 356.172,211.5 366.5,211C 367.337,209.989 367.67,208.822 367.5,207.5C 372.833,207.5 378.167,207.5 383.5,207.5C 383.5,206.167 383.5,204.833 383.5,203.5C 388.833,203.5 394.167,203.5 399.5,203.5C 399.5,207.5 399.5,211.5 399.5,215.5C 396.833,215.5 394.167,215.5 391.5,215.5C 391.5,216.833 391.5,218.167 391.5,219.5C 372.839,220.333 354.173,221.166 335.5,222C 335,222.5 334.5,223 334,223.5C 329.667,223.167 325.333,222.833 321,222.5C 317.733,224.988 315.733,223.988 315,219.5C 314.208,223.409 312.041,224.409 308.5,222.5C 307.506,212.347 307.172,202.014 307.5,191.5 Z"/></g>
<g><path style="opacity:0.989" fill="#171b16" d="M 0.5,199.5 C 4.29061,204.089 9.29061,205.755 15.5,204.5C 15.5,205.5 15.5,206.5 15.5,207.5C 23.5,207.5 31.5,207.5 39.5,207.5C 39.5,208.5 39.5,209.5 39.5,210.5C 47.5,210.5 55.5,210.5 63.5,210.5C 63.5,209.5 63.5,208.5 63.5,207.5C 74.1667,207.5 84.8333,207.5 95.5,207.5C 95.3398,205.801 95.5065,204.134 96,202.5C 96.1981,204.382 96.6981,206.048 97.5,207.5C 97.5,213.167 97.5,218.833 97.5,224.5C 96.8826,224.389 96.3826,224.056 96,223.5C 95.7489,225.433 95.2489,227.266 94.5,229C 80.1391,229.351 65.8057,230.185 51.5,231.5C 39.5,230.5 27.5,229.5 15.5,228.5C 13.4148,227.459 11.7481,225.959 10.5,224C 7.51838,223.502 4.51838,223.335 1.5,223.5C 0.635136,215.534 0.301803,207.534 0.5,199.5 Z"/></g>
<g><path style="opacity:1" fill="#bbbbbc" d="M 150.5,148.5 C 150.5,148.833 150.5,149.167 150.5,149.5C 150.5,163.5 150.5,177.5 150.5,191.5C 150.5,199.167 150.5,206.833 150.5,214.5C 150.5,241.5 150.5,268.5 150.5,295.5C 150.5,296.833 150.5,298.167 150.5,299.5C 148.167,299.5 145.833,299.5 143.5,299.5C 139.167,299.5 134.833,299.5 130.5,299.5C 119.833,299.5 109.167,299.5 98.5,299.5C 98.5,299.167 98.5,298.833 98.5,298.5C 115.5,298.5 132.5,298.5 149.5,298.5C 149.168,248.331 149.501,198.331 150.5,148.5 Z"/></g>
<g><path style="opacity:1" fill="#22212f" d="M 179.5,195.5 C 185.49,196.24 191.49,196.906 197.5,197.5C 200.13,199.451 202.796,201.451 205.5,203.5C 206.833,202.833 208.167,202.167 209.5,201.5C 212.412,202.947 214.245,205.281 215,208.5C 221.102,211.743 223.935,216.743 223.5,223.5C 227.833,223.5 232.167,223.5 236.5,223.5C 236.5,222.167 236.5,220.833 236.5,219.5C 237.5,219.5 238.5,219.5 239.5,219.5C 239.351,220.552 239.517,221.552 240,222.5C 240.199,219.278 241.032,216.278 242.5,213.5C 242.5,211.5 242.5,209.5 242.5,207.5C 243.822,207.33 244.989,207.663 246,208.5C 246.83,213.143 247.497,217.81 248,222.5C 248.667,223.167 249.333,223.833 250,224.5C 251.117,223.051 251.784,221.384 252,219.5C 252.172,213.319 252.672,207.319 253.5,201.5C 253.5,212.5 253.5,223.5 253.5,234.5C 252.732,233.737 252.232,232.737 252,231.5C 251.099,237.672 247.599,240.339 241.5,239.5C 241.243,236.068 240.576,232.734 239.5,229.5C 236.975,230.64 234.308,231.307 231.5,231.5C 231.5,232.833 231.5,234.167 231.5,235.5C 222.362,235.947 216.362,231.947 213.5,223.5C 211.833,223.5 210.167,223.5 208.5,223.5C 207.055,218.609 205.055,213.942 202.5,209.5C 198.58,208.074 194.58,206.741 190.5,205.5C 186.876,201.899 183.21,198.566 179.5,195.5 Z"/></g>
<g><path style="opacity:0.984" fill="#302d41" d="M 399.5,215.5 C 399.5,216.833 399.5,218.167 399.5,219.5C 398.507,225.369 397.507,231.369 396.5,237.5C 392.077,237.31 387.744,236.643 383.5,235.5C 383.5,236.833 383.5,238.167 383.5,239.5C 359.684,239.806 337.684,239.806 317.5,239.5C 316.396,235.89 315.396,232.224 314.5,228.5C 313.56,231.803 312.727,235.136 312,238.5C 311.586,238.957 311.086,239.291 310.5,239.5C 308.875,233.957 308.208,228.29 308.5,222.5C 312.041,224.409 314.208,223.409 315,219.5C 315.733,223.988 317.733,224.988 321,222.5C 325.333,222.833 329.667,223.167 334,223.5C 334.5,223 335,222.5 335.5,222C 354.173,221.166 372.839,220.333 391.5,219.5C 391.5,218.167 391.5,216.833 391.5,215.5C 394.167,215.5 396.833,215.5 399.5,215.5 Z"/></g>
<g><path style="opacity:1" fill="#1e1c26" d="M 175.5,195.5 C 176.833,195.5 178.167,195.5 179.5,195.5C 183.21,198.566 186.876,201.899 190.5,205.5C 194.58,206.741 198.58,208.074 202.5,209.5C 205.055,213.942 207.055,218.609 208.5,223.5C 210.167,223.5 211.833,223.5 213.5,223.5C 216.362,231.947 222.362,235.947 231.5,235.5C 227.601,237.569 223.268,238.903 218.5,239.5C 218.5,240.833 218.5,242.167 218.5,243.5C 217.5,243.5 216.5,243.5 215.5,243.5C 215.5,242.167 215.5,240.833 215.5,239.5C 212.465,239.479 210.132,238.146 208.5,235.5C 207.757,236.908 206.923,238.241 206,239.5C 204.647,238.296 202.981,237.629 201,237.5C 199.014,237.569 197.514,238.235 196.5,239.5C 194.876,237.849 193.543,235.849 192.5,233.5C 191.719,234.729 191.219,236.062 191,237.5C 190.713,234.135 189.546,231.135 187.5,228.5C 183.454,224.783 179.454,221.116 175.5,217.5C 175.5,216.167 175.5,214.833 175.5,213.5C 178.247,213.813 180.914,213.48 183.5,212.5C 181.995,211.158 181.328,209.492 181.5,207.5C 179.5,207.5 177.5,207.5 175.5,207.5C 175.5,206.167 175.5,204.833 175.5,203.5C 169.875,204.451 165.875,202.451 163.5,197.5C 167.971,198.089 171.971,197.423 175.5,195.5 Z"/></g>
<g><path style="opacity:0.989" fill="#141513" d="M 1.5,223.5 C 4.51838,223.335 7.51838,223.502 10.5,224C 11.7481,225.959 13.4148,227.459 15.5,228.5C 27.5,229.5 39.5,230.5 51.5,231.5C 65.8057,230.185 80.1391,229.351 94.5,229C 95.2489,227.266 95.7489,225.433 96,223.5C 96.3826,224.056 96.8826,224.389 97.5,224.5C 97.5,229.5 97.5,234.5 97.5,239.5C 96.6829,241.969 96.1829,244.635 96,247.5C 94.8197,246.316 93.3197,245.649 91.5,245.5C 66.2284,247.424 40.895,248.091 15.5,247.5C 15.5,245.5 15.5,243.5 15.5,241.5C 11.8333,241.5 8.16667,241.5 4.5,241.5C 3.06923,235.582 2.06923,229.582 1.5,223.5 Z"/></g>
<g><path style="opacity:1" fill="#19171b" d="M 175.5,217.5 C 179.454,221.116 183.454,224.783 187.5,228.5C 189.546,231.135 190.713,234.135 191,237.5C 191.219,236.062 191.719,234.729 192.5,233.5C 193.543,235.849 194.876,237.849 196.5,239.5C 196.618,243.695 195.785,247.695 194,251.5C 193.722,250.584 193.222,249.918 192.5,249.5C 190.755,248.194 188.755,247.194 186.5,246.5C 184.666,244.502 183.666,242.168 183.5,239.5C 182.5,239.5 181.5,239.5 180.5,239.5C 178.833,239.5 177.167,239.5 175.5,239.5C 175.351,235.678 173.351,233.345 169.5,232.5C 170.833,231.5 170.833,230.5 169.5,229.5C 165.895,227.528 162.895,224.861 160.5,221.5C 154.205,224.894 151.872,222.894 153.5,215.5C 156.247,215.813 158.914,215.48 161.5,214.5C 160.975,213.808 160.308,213.308 159.5,213C 162.167,212.333 164.833,212.333 167.5,213C 170.08,214.786 172.747,216.286 175.5,217.5 Z"/></g>
<g><path style="opacity:1" fill="#141212" d="M 153.5,215.5 C 151.872,222.894 154.205,224.894 160.5,221.5C 162.895,224.861 165.895,227.528 169.5,229.5C 170.833,230.5 170.833,231.5 169.5,232.5C 173.351,233.345 175.351,235.678 175.5,239.5C 177.167,239.5 178.833,239.5 180.5,239.5C 180.5,241.5 180.5,243.5 180.5,245.5C 178.396,245.201 176.396,245.534 174.5,246.5C 175.747,248.042 175.747,249.542 174.5,251C 171.044,251.18 167.711,251.847 164.5,253C 164.043,253.414 163.709,253.914 163.5,254.5C 164.689,255.429 166.022,255.762 167.5,255.5C 167.649,256.552 167.483,257.552 167,258.5C 161.759,261.163 160.259,265.497 162.5,271.5C 160.167,271.5 157.833,271.5 155.5,271.5C 155.945,274.365 155.278,276.865 153.5,279C 154.428,279.388 155.095,280.055 155.5,281C 154.536,282.964 153.203,284.63 151.5,286C 151.905,286.945 152.572,287.612 153.5,288C 152.033,290.378 151.033,292.878 150.5,295.5C 150.5,268.5 150.5,241.5 150.5,214.5C 152.306,211.662 153.306,211.995 153.5,215.5 Z"/></g>
<g><path style="opacity:0.988" fill="#342c3b" d="M 306.5,185.5 C 307.461,187.265 307.795,189.265 307.5,191.5C 307.172,202.014 307.506,212.347 308.5,222.5C 308.208,228.29 308.875,233.957 310.5,239.5C 311.086,239.291 311.586,238.957 312,238.5C 312.727,235.136 313.56,231.803 314.5,228.5C 315.396,232.224 316.396,235.89 317.5,239.5C 337.684,239.806 359.684,239.806 383.5,239.5C 383.5,238.167 383.5,236.833 383.5,235.5C 387.744,236.643 392.077,237.31 396.5,237.5C 395.751,241.582 394.751,245.582 393.5,249.5C 384.218,250.753 374.885,251.42 365.5,251.5C 365.5,252.833 365.5,254.167 365.5,255.5C 360.833,255.5 356.167,255.5 351.5,255.5C 351.5,254.167 351.5,252.833 351.5,251.5C 340.313,252.113 329.313,251.446 318.5,249.5C 317.718,252.076 316.218,254.076 314,255.5C 312.842,255.002 312.009,254.169 311.5,253C 311.151,249.19 309.984,245.69 308,242.5C 307.825,237.981 307.325,233.647 306.5,229.5C 306.5,214.833 306.5,200.167 306.5,185.5 Z"/></g>
<g><path style="opacity:1" fill="#29242b" d="M 253.5,234.5 C 253.5,239.167 253.5,243.833 253.5,248.5C 236.325,248.17 219.325,248.503 202.5,249.5C 202.5,265.833 202.5,282.167 202.5,298.5C 202.5,298.833 202.5,299.167 202.5,299.5C 201.517,295.702 201.183,291.702 201.5,287.5C 202.122,274.32 201.455,261.32 199.5,248.5C 200.415,247.672 201.081,246.672 201.5,245.5C 200.579,243.87 199.745,242.203 199,240.5C 198.329,239.748 197.496,239.414 196.5,239.5C 197.514,238.235 199.014,237.569 201,237.5C 202.981,237.629 204.647,238.296 206,239.5C 206.923,238.241 207.757,236.908 208.5,235.5C 210.132,238.146 212.465,239.479 215.5,239.5C 215.5,240.833 215.5,242.167 215.5,243.5C 216.5,243.5 217.5,243.5 218.5,243.5C 218.5,242.167 218.5,240.833 218.5,239.5C 223.268,238.903 227.601,237.569 231.5,235.5C 231.5,234.167 231.5,232.833 231.5,231.5C 234.308,231.307 236.975,230.64 239.5,229.5C 240.576,232.734 241.243,236.068 241.5,239.5C 247.599,240.339 251.099,237.672 252,231.5C 252.232,232.737 252.732,233.737 253.5,234.5 Z"/></g>
<g><path style="opacity:0.98" fill="#0e0e0e" d="M 97.5,239.5 C 97.1695,259.674 97.5029,279.674 98.5,299.5C 109.167,299.5 119.833,299.5 130.5,299.5C 129.391,300.29 128.058,300.79 126.5,301C 127.167,301.333 127.833,301.667 128.5,302C 127.234,302.309 126.067,302.809 125,303.5C 124.503,306.146 124.336,308.813 124.5,311.5C 123.167,311.5 121.833,311.5 120.5,311.5C 120.5,314.167 120.5,316.833 120.5,319.5C 119.5,319.5 118.5,319.5 117.5,319.5C 116.834,327.483 116.501,335.483 116.5,343.5C 115.5,343.5 114.5,343.5 113.5,343.5C 113.5,355.833 113.5,368.167 113.5,380.5C 55.8771,350.949 19.5438,304.615 4.5,241.5C 8.16667,241.5 11.8333,241.5 15.5,241.5C 15.5,243.5 15.5,245.5 15.5,247.5C 40.895,248.091 66.2284,247.424 91.5,245.5C 93.3197,245.649 94.8197,246.316 96,247.5C 96.1829,244.635 96.6829,241.969 97.5,239.5 Z"/></g>
<g><path style="opacity:0.993" fill="#1b1614" d="M 180.5,239.5 C 181.5,239.5 182.5,239.5 183.5,239.5C 183.666,242.168 184.666,244.502 186.5,246.5C 188.755,247.194 190.755,248.194 192.5,249.5C 191.659,251.379 191.325,253.379 191.5,255.5C 190.167,255.5 188.833,255.5 187.5,255.5C 187.5,258.167 187.5,260.833 187.5,263.5C 183.462,264.688 179.795,266.688 176.5,269.5C 175.692,271.423 175.192,273.423 175,275.5C 174,276.167 173,276.833 172,277.5C 171.502,280.817 171.335,284.15 171.5,287.5C 166.444,288.737 163.61,292.07 163,297.5C 162,298.167 161,298.833 160,299.5C 157.55,305.964 156.05,312.631 155.5,319.5C 154.167,319.5 152.833,319.5 151.5,319.5C 148.158,343.696 146.825,368.029 147.5,392.5C 141.641,391.435 135.974,389.769 130.5,387.5C 130.5,375.5 130.5,363.5 130.5,351.5C 131.5,351.5 132.5,351.5 133.5,351.5C 134.167,340.833 134.833,330.167 135.5,319.5C 136.5,319.5 137.5,319.5 138.5,319.5C 138.5,316.833 138.5,314.167 138.5,311.5C 139.5,311.5 140.5,311.5 141.5,311.5C 141.777,308.552 141.444,305.719 140.5,303C 143.447,302.925 144.447,301.758 143.5,299.5C 145.833,299.5 148.167,299.5 150.5,299.5C 150.5,298.167 150.5,296.833 150.5,295.5C 151.033,292.878 152.033,290.378 153.5,288C 152.572,287.612 151.905,286.945 151.5,286C 153.203,284.63 154.536,282.964 155.5,281C 155.095,280.055 154.428,279.388 153.5,279C 155.278,276.865 155.945,274.365 155.5,271.5C 157.833,271.5 160.167,271.5 162.5,271.5C 160.259,265.497 161.759,261.163 167,258.5C 167.483,257.552 167.649,256.552 167.5,255.5C 166.022,255.762 164.689,255.429 163.5,254.5C 163.709,253.914 164.043,253.414 164.5,253C 167.711,251.847 171.044,251.18 174.5,251C 175.747,249.542 175.747,248.042 174.5,246.5C 176.396,245.534 178.396,245.201 180.5,245.5C 180.5,243.5 180.5,241.5 180.5,239.5 Z"/></g>
<g><path style="opacity:1" fill="#c1c1ce" d="M 254.5,149.5 C 254.5,149.167 254.5,148.833 254.5,148.5C 271.833,148.5 289.167,148.5 306.5,148.5C 306.5,160.833 306.5,173.167 306.5,185.5C 306.5,200.167 306.5,214.833 306.5,229.5C 306.5,242.167 306.5,254.833 306.5,267.5C 306.167,267.5 305.833,267.5 305.5,267.5C 305.5,228.167 305.5,188.833 305.5,149.5C 288.5,149.5 271.5,149.5 254.5,149.5 Z"/></g>
<g><path style="opacity:1" fill="#372c37" d="M 306.5,229.5 C 307.325,233.647 307.825,237.981 308,242.5C 309.984,245.69 311.151,249.19 311.5,253C 312.009,254.169 312.842,255.002 314,255.5C 316.218,254.076 317.718,252.076 318.5,249.5C 329.313,251.446 340.313,252.113 351.5,251.5C 351.5,252.833 351.5,254.167 351.5,255.5C 356.167,255.5 360.833,255.5 365.5,255.5C 365.5,254.167 365.5,252.833 365.5,251.5C 374.885,251.42 384.218,250.753 393.5,249.5C 392.474,254.272 391.141,258.939 389.5,263.5C 387.5,263.5 385.5,263.5 383.5,263.5C 383.5,261.5 383.5,259.5 383.5,257.5C 364.83,257.333 346.164,257.5 327.5,258C 323.374,259.625 320.374,262.459 318.5,266.5C 317.833,265.5 317.167,264.5 316.5,263.5C 315.167,264.5 313.833,265.5 312.5,266.5C 311.749,265.624 311.249,264.624 311,263.5C 310.122,266.257 309.122,268.924 308,271.5C 307.79,269.942 307.29,268.609 306.5,267.5C 306.5,254.833 306.5,242.167 306.5,229.5 Z"/></g>
<g><path style="opacity:0.996" fill="#211917" d="M 196.5,239.5 C 197.496,239.414 198.329,239.748 199,240.5C 199.745,242.203 200.579,243.87 201.5,245.5C 201.081,246.672 200.415,247.672 199.5,248.5C 201.455,261.32 202.122,274.32 201.5,287.5C 200.034,286.653 199.2,285.32 199,283.5C 198,284.167 197,284.833 196,285.5C 195.853,288.11 195.019,290.444 193.5,292.5C 193.709,293.086 194.043,293.586 194.5,294C 190.317,295.487 187.317,298.321 185.5,302.5C 185.709,303.086 186.043,303.586 186.5,304C 184.253,308.866 181.42,313.366 178,317.5C 176.802,326.293 174.969,334.96 172.5,343.5C 171.94,352.893 170.94,362.227 169.5,371.5C 171.249,380.075 171.916,388.741 171.5,397.5C 163.175,396.836 155.175,395.169 147.5,392.5C 146.825,368.029 148.158,343.696 151.5,319.5C 152.833,319.5 154.167,319.5 155.5,319.5C 156.05,312.631 157.55,305.964 160,299.5C 161,298.833 162,298.167 163,297.5C 163.61,292.07 166.444,288.737 171.5,287.5C 171.335,284.15 171.502,280.817 172,277.5C 173,276.833 174,276.167 175,275.5C 175.192,273.423 175.692,271.423 176.5,269.5C 179.795,266.688 183.462,264.688 187.5,263.5C 187.5,260.833 187.5,258.167 187.5,255.5C 188.833,255.5 190.167,255.5 191.5,255.5C 191.325,253.379 191.659,251.379 192.5,249.5C 193.222,249.918 193.722,250.584 194,251.5C 195.785,247.695 196.618,243.695 196.5,239.5 Z"/></g>
<g><path style="opacity:0.993" fill="#3b2d34" d="M 389.5,263.5 C 387.871,268.735 385.871,273.735 383.5,278.5C 367.662,277.173 351.662,277.173 335.5,278.5C 331.248,279.183 327.082,280.183 323,281.5C 321.893,281.415 320.893,281.081 320,280.5C 319.781,279.062 319.281,277.729 318.5,276.5C 317.827,278.689 316.827,280.689 315.5,282.5C 318.078,282.677 318.078,283.843 315.5,286C 318.079,287.612 318.079,289.112 315.5,290.5C 314.499,285.543 312.999,280.543 311,275.5C 310.667,277.5 310.333,279.5 310,281.5C 309.667,280.167 309.333,278.833 309,277.5C 307.838,283.445 307.338,289.445 307.5,295.5C 307.672,296.492 307.338,297.158 306.5,297.5C 306.5,287.5 306.5,277.5 306.5,267.5C 307.29,268.609 307.79,269.942 308,271.5C 309.122,268.924 310.122,266.257 311,263.5C 311.249,264.624 311.749,265.624 312.5,266.5C 313.833,265.5 315.167,264.5 316.5,263.5C 317.167,264.5 317.833,265.5 318.5,266.5C 320.374,262.459 323.374,259.625 327.5,258C 346.164,257.5 364.83,257.333 383.5,257.5C 383.5,259.5 383.5,261.5 383.5,263.5C 385.5,263.5 387.5,263.5 389.5,263.5 Z"/></g>
<g><path style="opacity:0.983" fill="#412e2e" d="M 383.5,278.5 C 382.222,282.667 380.556,286.667 378.5,290.5C 364.203,289.551 349.869,289.218 335.5,289.5C 335.5,290.833 335.5,292.167 335.5,293.5C 329.491,293.334 323.491,293.501 317.5,294C 317,294.5 316.5,295 316,295.5C 315.02,294.019 313.853,292.685 312.5,291.5C 311.571,292.689 311.238,294.022 311.5,295.5C 310.167,295.5 308.833,295.5 307.5,295.5C 307.338,289.445 307.838,283.445 309,277.5C 309.333,278.833 309.667,280.167 310,281.5C 310.333,279.5 310.667,277.5 311,275.5C 312.999,280.543 314.499,285.543 315.5,290.5C 318.079,289.112 318.079,287.612 315.5,286C 318.078,283.843 318.078,282.677 315.5,282.5C 316.827,280.689 317.827,278.689 318.5,276.5C 319.281,277.729 319.781,279.062 320,280.5C 320.893,281.081 321.893,281.415 323,281.5C 327.082,280.183 331.248,279.183 335.5,278.5C 351.662,277.173 367.662,277.173 383.5,278.5 Z"/></g>
<g><path style="opacity:0.991" fill="#281e1c" d="M 201.5,287.5 C 201.183,291.702 201.517,295.702 202.5,299.5C 216.833,299.5 231.167,299.5 245.5,299.5C 238.114,300.419 230.614,301.419 223,302.5C 221,301.167 219,301.167 217,302.5C 216.311,301.643 215.478,300.977 214.5,300.5C 212.47,300.894 210.137,301.227 207.5,301.5C 207.662,303.527 207.495,305.527 207,307.5C 202.255,309.657 202.422,311.324 207.5,312.5C 205.343,314.412 203.009,316.079 200.5,317.5C 199.504,323.463 199.171,329.463 199.5,335.5C 198.167,335.5 196.833,335.5 195.5,335.5C 195.143,340.933 194.143,346.266 192.5,351.5C 191.501,367.486 191.167,383.486 191.5,399.5C 187.833,399.5 184.167,399.5 180.5,399.5C 177.5,398.833 174.5,398.167 171.5,397.5C 171.916,388.741 171.249,380.075 169.5,371.5C 170.94,362.227 171.94,352.893 172.5,343.5C 174.969,334.96 176.802,326.293 178,317.5C 181.42,313.366 184.253,308.866 186.5,304C 186.043,303.586 185.709,303.086 185.5,302.5C 187.317,298.321 190.317,295.487 194.5,294C 194.043,293.586 193.709,293.086 193.5,292.5C 195.019,290.444 195.853,288.11 196,285.5C 197,284.833 198,284.167 199,283.5C 199.2,285.32 200.034,286.653 201.5,287.5 Z"/></g>
<g><path style="opacity:1" fill="#c2bbb8" d="M 305.5,267.5 C 305.833,267.5 306.167,267.5 306.5,267.5C 306.5,277.5 306.5,287.5 306.5,297.5C 306.5,298.167 306.5,298.833 306.5,299.5C 305.833,299.5 305.167,299.5 304.5,299.5C 287.5,299.5 270.5,299.5 253.5,299.5C 250.833,299.5 248.167,299.5 245.5,299.5C 231.167,299.5 216.833,299.5 202.5,299.5C 202.5,299.167 202.5,298.833 202.5,298.5C 236.833,298.5 271.167,298.5 305.5,298.5C 305.5,288.167 305.5,277.833 305.5,267.5 Z"/></g>
<g><path style="opacity:0.99" fill="#322320" d="M 245.5,299.5 C 248.167,299.5 250.833,299.5 253.5,299.5C 253.649,300.552 253.483,301.552 253,302.5C 252.667,302.167 252.333,301.833 252,301.5C 247.521,303.977 244.521,307.644 243,312.5C 240.245,314.766 238.912,317.766 239,321.5C 236.915,323.082 235.415,325.082 234.5,327.5C 231.22,337.948 229.22,348.614 228.5,359.5C 227.5,359.5 226.5,359.5 225.5,359.5C 225.5,364.833 225.5,370.167 225.5,375.5C 226.5,375.5 227.5,375.5 228.5,375.5C 229.118,382.817 229.451,390.151 229.5,397.5C 226.059,398.097 222.725,398.763 219.5,399.5C 210.167,399.5 200.833,399.5 191.5,399.5C 191.167,383.486 191.501,367.486 192.5,351.5C 194.143,346.266 195.143,340.933 195.5,335.5C 196.833,335.5 198.167,335.5 199.5,335.5C 199.171,329.463 199.504,323.463 200.5,317.5C 203.009,316.079 205.343,314.412 207.5,312.5C 202.422,311.324 202.255,309.657 207,307.5C 207.495,305.527 207.662,303.527 207.5,301.5C 210.137,301.227 212.47,300.894 214.5,300.5C 215.478,300.977 216.311,301.643 217,302.5C 219,301.167 221,301.167 223,302.5C 230.614,301.419 238.114,300.419 245.5,299.5 Z"/></g>
<g><path style="opacity:0.992" fill="#3b2824" d="M 253.5,299.5 C 270.5,299.5 287.5,299.5 304.5,299.5C 304.631,300.239 304.464,300.906 304,301.5C 293.187,300.399 282.353,300.732 271.5,302.5C 271.666,307.179 271.499,311.845 271,316.5C 266.706,318.345 263.039,321.011 260,324.5C 259.517,325.448 259.351,326.448 259.5,327.5C 258.167,327.5 256.833,327.5 255.5,327.5C 255.958,330.394 255.291,332.894 253.5,335C 254.793,335.49 256.127,335.657 257.5,335.5C 256.833,340.833 256.167,346.167 255.5,351.5C 254.167,351.5 252.833,351.5 251.5,351.5C 251.167,340.833 250.833,340.833 250.5,351.5C 249.5,351.5 248.5,351.5 247.5,351.5C 247.5,364.833 247.5,378.167 247.5,391.5C 249.179,391.285 250.179,391.952 250.5,393.5C 243.605,395.346 236.605,396.679 229.5,397.5C 229.451,390.151 229.118,382.817 228.5,375.5C 227.5,375.5 226.5,375.5 225.5,375.5C 225.5,370.167 225.5,364.833 225.5,359.5C 226.5,359.5 227.5,359.5 228.5,359.5C 229.22,348.614 231.22,337.948 234.5,327.5C 235.415,325.082 236.915,323.082 239,321.5C 238.912,317.766 240.245,314.766 243,312.5C 244.521,307.644 247.521,303.977 252,301.5C 252.333,301.833 252.667,302.167 253,302.5C 253.483,301.552 253.649,300.552 253.5,299.5 Z"/></g>
<g><path style="opacity:0.99" fill="#151211" d="M 130.5,299.5 C 134.833,299.5 139.167,299.5 143.5,299.5C 144.447,301.758 143.447,302.925 140.5,303C 141.444,305.719 141.777,308.552 141.5,311.5C 140.5,311.5 139.5,311.5 138.5,311.5C 138.5,314.167 138.5,316.833 138.5,319.5C 137.5,319.5 136.5,319.5 135.5,319.5C 134.833,330.167 134.167,340.833 133.5,351.5C 132.5,351.5 131.5,351.5 130.5,351.5C 130.5,363.5 130.5,375.5 130.5,387.5C 124.753,385.362 119.086,383.029 113.5,380.5C 113.5,368.167 113.5,355.833 113.5,343.5C 114.5,343.5 115.5,343.5 116.5,343.5C 116.501,335.483 116.834,327.483 117.5,319.5C 118.5,319.5 119.5,319.5 120.5,319.5C 120.5,316.833 120.5,314.167 120.5,311.5C 121.833,311.5 123.167,311.5 124.5,311.5C 124.336,308.813 124.503,306.146 125,303.5C 126.067,302.809 127.234,302.309 128.5,302C 127.833,301.667 127.167,301.333 126.5,301C 128.058,300.79 129.391,300.29 130.5,299.5 Z"/></g>
<g><path style="opacity:0.989" fill="#412d28" d="M 304.5,299.5 C 305.167,299.5 305.833,299.5 306.5,299.5C 305.46,303.884 302.793,307.717 298.5,311C 298.833,311.333 299.167,311.667 299.5,312C 296.28,314.103 293.28,316.436 290.5,319C 289.552,319.483 288.552,319.649 287.5,319.5C 287.762,320.978 287.429,322.311 286.5,323.5C 281.006,326.47 281.34,327.97 287.5,328C 285.155,330.202 282.489,331.702 279.5,332.5C 278.047,335.986 277.381,339.653 277.5,343.5C 276.5,343.5 275.5,343.5 274.5,343.5C 274.5,346.167 274.5,348.833 274.5,351.5C 273.5,351.5 272.5,351.5 271.5,351.5C 270.291,363.162 270.291,374.829 271.5,386.5C 264.715,389.428 257.715,391.762 250.5,393.5C 250.179,391.952 249.179,391.285 247.5,391.5C 247.5,378.167 247.5,364.833 247.5,351.5C 248.5,351.5 249.5,351.5 250.5,351.5C 250.833,340.833 251.167,340.833 251.5,351.5C 252.833,351.5 254.167,351.5 255.5,351.5C 256.167,346.167 256.833,340.833 257.5,335.5C 256.127,335.657 254.793,335.49 253.5,335C 255.291,332.894 255.958,330.394 255.5,327.5C 256.833,327.5 258.167,327.5 259.5,327.5C 259.351,326.448 259.517,325.448 260,324.5C 263.039,321.011 266.706,318.345 271,316.5C 271.499,311.845 271.666,307.179 271.5,302.5C 282.353,300.732 293.187,300.399 304,301.5C 304.464,300.906 304.631,300.239 304.5,299.5 Z"/></g>
<g><path style="opacity:0.978" fill="#4e352f" d="M 370.5,303.5 C 350.468,337.2 322.801,362.533 287.5,379.5C 287.5,370.167 287.5,360.833 287.5,351.5C 289.167,351.5 290.833,351.5 292.5,351.5C 292.5,348.833 292.5,346.167 292.5,343.5C 293.5,343.5 294.5,343.5 295.5,343.5C 295.5,340.833 295.5,338.167 295.5,335.5C 301.956,334.911 304.956,331.245 304.5,324.5C 306.389,323.396 308.055,322.063 309.5,320.5C 314.838,319.501 319.171,316.834 322.5,312.5C 328.138,311.67 333.804,311.17 339.5,311C 342.86,307.903 346.86,306.736 351.5,307.5C 351.5,306.167 351.5,304.833 351.5,303.5C 357.833,303.5 364.167,303.5 370.5,303.5 Z"/></g>
<g><path style="opacity:0.996" fill="#47302b" d="M 378.5,290.5 C 376.07,295.037 373.403,299.37 370.5,303.5C 364.167,303.5 357.833,303.5 351.5,303.5C 351.5,304.833 351.5,306.167 351.5,307.5C 346.86,306.736 342.86,307.903 339.5,311C 333.804,311.17 328.138,311.67 322.5,312.5C 319.171,316.834 314.838,319.501 309.5,320.5C 308.055,322.063 306.389,323.396 304.5,324.5C 304.956,331.245 301.956,334.911 295.5,335.5C 295.5,338.167 295.5,340.833 295.5,343.5C 294.5,343.5 293.5,343.5 292.5,343.5C 292.5,346.167 292.5,348.833 292.5,351.5C 290.833,351.5 289.167,351.5 287.5,351.5C 287.5,360.833 287.5,370.167 287.5,379.5C 282.469,382.345 277.136,384.678 271.5,386.5C 270.291,374.829 270.291,363.162 271.5,351.5C 272.5,351.5 273.5,351.5 274.5,351.5C 274.5,348.833 274.5,346.167 274.5,343.5C 275.5,343.5 276.5,343.5 277.5,343.5C 277.381,339.653 278.047,335.986 279.5,332.5C 282.489,331.702 285.155,330.202 287.5,328C 281.34,327.97 281.006,326.47 286.5,323.5C 287.429,322.311 287.762,320.978 287.5,319.5C 288.552,319.649 289.552,319.483 290.5,319C 293.28,316.436 296.28,314.103 299.5,312C 299.167,311.667 298.833,311.333 298.5,311C 302.793,307.717 305.46,303.884 306.5,299.5C 306.5,298.833 306.5,298.167 306.5,297.5C 307.338,297.158 307.672,296.492 307.5,295.5C 308.833,295.5 310.167,295.5 311.5,295.5C 311.238,294.022 311.571,292.689 312.5,291.5C 313.853,292.685 315.02,294.019 316,295.5C 316.5,295 317,294.5 317.5,294C 323.491,293.501 329.491,293.334 335.5,293.5C 335.5,292.167 335.5,290.833 335.5,289.5C 349.869,289.218 364.203,289.551 378.5,290.5 Z"/></g>
</svg>
