<?xml version="1.0" encoding="UTF-8"?>
<!DOCTYPE svg PUBLIC "-//W3C//DTD SVG 1.1//EN" "http://www.w3.org/Graphics/SVG/1.1/DTD/svg11.dtd">
<svg xmlns="http://www.w3.org/2000/svg" version="1.1" width="400px" height="400px" style="shape-rendering:geometricPrecision; text-rendering:geometricPrecision; image-rendering:optimizeQuality; fill-rule:evenodd; clip-rule:evenodd" xmlns:xlink="http://www.w3.org/1999/xlink">
<g><path style="opacity:0.988" fill="#05081a" d="M 399.5,180.5 C 399.5,193.5 399.5,206.5 399.5,219.5C 387.196,304.644 340.529,361.811 259.5,391C 246.233,394.818 232.9,397.652 219.5,399.5C 206.5,399.5 193.5,399.5 180.5,399.5C 99.4123,387.915 43.2457,344.248 12,268.5C -11.7511,194.936 0.582203,128.269 49,68.5C 97.4536,16.2121 157.287,-5.95457 228.5,2C 301.255,14.7715 353.089,54.6048 384,121.5C 391.855,140.591 397.021,160.258 399.5,180.5 Z"/></g>
<g><path style="opacity:1" fill="#06100e" d="M 224.5,106.5 C 221.794,106.425 219.127,106.092 216.5,105.5C 211.033,104.384 205.366,103.717 199.5,103.5C 191.467,104.284 183.467,105.284 175.5,106.5C 175.577,105.25 176.244,104.417 177.5,104C 172.023,104.038 167.023,102.705 162.5,100C 166.236,99.2004 169.736,99.7004 173,101.5C 174.984,101.074 176.984,100.74 179,100.5C 192.817,101.272 206.65,101.772 220.5,102C 220.043,102.414 219.709,102.914 219.5,103.5C 221.544,104.065 223.21,105.065 224.5,106.5 Z"/></g>
<g><path style="opacity:1" fill="#0b1a07" d="M 224.5,106.5 C 231.538,106.734 237.538,109.067 242.5,113.5C 236.413,111.142 230.413,108.809 224.5,106.5 Z"/></g>
<g><path style="opacity:1" fill="#b9e276" d="M 216.5,105.5 C 206.828,105.334 197.161,105.5 187.5,106C 181.477,107.692 175.477,109.192 169.5,110.5C 168.209,110.263 167.209,110.596 166.5,111.5C 164.621,112.341 162.621,112.675 160.5,112.5C 165.281,110.125 170.281,108.125 175.5,106.5C 183.467,105.284 191.467,104.284 199.5,103.5C 205.366,103.717 211.033,104.384 216.5,105.5 Z"/></g>
<g><path style="opacity:1" fill="#c2fe5f" d="M 214.5,143.5 C 213.167,143.5 211.833,143.5 210.5,143.5C 210.5,142.5 210.5,141.5 210.5,140.5C 211.5,140.5 212.5,140.5 213.5,140.5C 213.552,137.063 214.719,134.063 217,131.5C 218.483,133.119 219.65,133.286 220.5,132C 219.171,130.34 218.171,128.507 217.5,126.5C 219.423,125.692 221.423,125.192 223.5,125C 224.833,124 224.833,123 223.5,122C 219.663,121.239 215.996,121.739 212.5,123.5C 209.978,122.911 207.478,122.245 205,121.5C 201.439,121.957 197.772,121.957 194,121.5C 191.112,121.977 188.279,122.644 185.5,123.5C 182.388,121.816 179.054,121.15 175.5,121.5C 175.5,120.167 175.5,118.833 175.5,117.5C 179.192,116.971 182.358,117.971 185,120.5C 186.473,120.868 187.973,120.368 189.5,119C 186.198,117.349 182.864,115.682 179.5,114C 175.189,112.861 173.189,114.528 173.5,119C 173.542,120.967 174.042,122.801 175,124.5C 177.607,125.123 180.107,125.79 182.5,126.5C 177.114,127.71 171.781,129.043 166.5,130.5C 164.232,130.369 161.899,130.369 159.5,130.5C 161.076,128.423 163.076,126.923 165.5,126C 163.162,125.163 160.828,124.33 158.5,123.5C 157.833,123.833 157.167,124.167 156.5,124.5C 157.325,125.386 158.325,125.719 159.5,125.5C 159.649,126.552 159.483,127.552 159,128.5C 154.689,131.643 150.522,134.977 146.5,138.5C 146.167,138 145.833,137.5 145.5,137C 147.2,134.769 148.2,132.269 148.5,129.5C 146.738,129.357 145.071,129.691 143.5,130.5C 141.51,129.537 141.177,128.204 142.5,126.5C 145.709,127.743 148.376,126.91 150.5,124C 147.667,122.167 147.833,120.667 151,119.5C 151.483,120.448 151.649,121.448 151.5,122.5C 157.696,122.426 158.03,121.259 152.5,119C 153.025,118.308 153.692,117.808 154.5,117.5C 161.921,121.129 165.921,119.129 166.5,111.5C 167.209,110.596 168.209,110.263 169.5,110.5C 171.06,110.519 172.56,110.852 174,111.5C 181.845,109.983 189.679,108.65 197.5,107.5C 200.841,107.836 204.175,108.169 207.5,108.5C 207.351,109.552 207.517,110.552 208,111.5C 210.757,109.973 213.757,109.307 217,109.5C 219.707,109.628 222.207,110.295 224.5,111.5C 226.747,110.626 229.08,110.292 231.5,110.5C 231.429,113.024 232.429,115.024 234.5,116.5C 233.496,118.677 234.162,119.011 236.5,117.5C 237.833,118.5 239.167,119.5 240.5,120.5C 241.719,119.737 242.719,118.737 243.5,117.5C 246.361,118.162 247.027,119.662 245.5,122C 246.167,123 246.833,124 247.5,125C 241.156,126.876 235.323,130.376 230,135.5C 229.342,137.108 229.842,138.275 231.5,139C 230.833,139.333 230.167,139.667 229.5,140C 230.821,144.262 229.321,145.429 225,143.5C 221.862,146.178 219.029,145.845 216.5,142.5C 215.817,142.863 215.15,143.196 214.5,143.5 Z"/></g>
<g><path style="opacity:1" fill="#b6df77" d="M 215.5,127.5 C 210.201,126.911 204.868,126.578 199.5,126.5C 193.251,126.294 187.251,126.96 181.5,128.5C 172.541,130.814 164.208,134.481 156.5,139.5C 156.414,138.504 156.748,137.671 157.5,137C 159.527,135.121 161.86,133.954 164.5,133.5C 164.285,131.821 164.952,130.821 166.5,130.5C 171.781,129.043 177.114,127.71 182.5,126.5C 183.756,126.539 184.756,126.039 185.5,125C 194.5,124.333 203.5,124.333 212.5,125C 213.571,125.852 214.571,126.685 215.5,127.5 Z"/></g>
<g><path style="opacity:1" fill="#c0f66a" d="M 166.5,111.5 C 165.921,119.129 161.921,121.129 154.5,117.5C 153.692,117.808 153.025,118.308 152.5,119C 158.03,121.259 157.696,122.426 151.5,122.5C 151.649,121.448 151.483,120.448 151,119.5C 147.833,120.667 147.667,122.167 150.5,124C 148.376,126.91 145.709,127.743 142.5,126.5C 141.177,128.204 141.51,129.537 143.5,130.5C 145.071,129.691 146.738,129.357 148.5,129.5C 148.2,132.269 147.2,134.769 145.5,137C 145.833,137.5 146.167,138 146.5,138.5C 150.522,134.977 154.689,131.643 159,128.5C 159.483,127.552 159.649,126.552 159.5,125.5C 158.325,125.719 157.325,125.386 156.5,124.5C 157.167,124.167 157.833,123.833 158.5,123.5C 160.828,124.33 163.162,125.163 165.5,126C 163.076,126.923 161.076,128.423 159.5,130.5C 161.899,130.369 164.232,130.369 166.5,130.5C 164.952,130.821 164.285,131.821 164.5,133.5C 161.86,133.954 159.527,135.121 157.5,137C 156.748,137.671 156.414,138.504 156.5,139.5C 132.074,159.392 122.407,185.059 127.5,216.5C 126.417,216.461 125.417,216.127 124.5,215.5C 120.89,205.199 120.556,194.699 123.5,184C 121.823,181.453 121.156,178.62 121.5,175.5C 126.878,177.461 128.878,175.461 127.5,169.5C 128.5,169.5 129.5,169.5 130.5,169.5C 131.686,166.891 132.686,163.558 133.5,159.5C 134.5,159.5 135.5,159.5 136.5,159.5C 136.5,158.5 136.5,157.5 136.5,156.5C 135.07,156.421 133.736,156.754 132.5,157.5C 131.637,154.448 132.637,151.948 135.5,150C 137.329,149.727 138.829,148.893 140,147.5C 141.049,149.107 142.549,149.773 144.5,149.5C 144.471,146.344 142.804,144.678 139.5,144.5C 138.614,143.675 138.281,142.675 138.5,141.5C 139.5,141.5 140.5,141.5 141.5,141.5C 141.328,139.508 141.995,137.842 143.5,136.5C 141.051,131.291 138.384,131.291 135.5,136.5C 134.675,137.386 133.675,137.719 132.5,137.5C 133.457,139.81 134.457,142.144 135.5,144.5C 134.5,146.833 132.833,148.5 130.5,149.5C 129.554,147.925 129.554,146.258 130.5,144.5C 130.013,141.418 128.679,140.918 126.5,143C 127.022,143.561 127.355,144.228 127.5,145C 125.976,146.194 124.81,147.694 124,149.5C 122.222,146.868 120.722,147.035 119.5,150C 120.217,151.531 121.217,152.864 122.5,154C 120.145,157.199 118.145,160.699 116.5,164.5C 114.999,165.752 113.332,166.752 111.5,167.5C 110.379,170.137 110.379,172.804 111.5,175.5C 111.518,177.373 111.018,177.706 110,176.5C 109.833,178.167 109.667,179.833 109.5,181.5C 109.288,184.011 109.955,186.178 111.5,188C 110.333,189.5 109.167,191 108,192.5C 107.333,197.167 107.333,201.833 108,206.5C 109.473,206.132 110.973,206.632 112.5,208C 113.76,209.814 113.76,211.647 112.5,213.5C 111.667,212.5 110.833,211.5 110,210.5C 109.707,216.594 109.54,222.594 109.5,228.5C 110.882,231.724 112.882,234.558 115.5,237C 114.739,239.179 115.072,241.345 116.5,243.5C 118.198,242.319 119.865,242.319 121.5,243.5C 119.703,244.695 118.703,246.362 118.5,248.5C 121.77,247.897 123.77,245.897 124.5,242.5C 125.72,243.711 126.887,243.711 128,242.5C 130.173,245.277 130.673,245.11 129.5,242C 130.5,241.667 131.5,241.333 132.5,241C 132.167,240.667 131.833,240.333 131.5,240C 132.793,239.51 134.127,239.343 135.5,239.5C 135.5,238.167 135.5,236.833 135.5,235.5C 137.96,234.063 140.626,233.063 143.5,232.5C 141.833,234.5 140.167,236.5 138.5,238.5C 132.504,243.663 127.004,249.33 122,255.5C 119.969,252.645 117.803,249.978 115.5,247.5C 115.5,247.167 115.5,246.833 115.5,246.5C 113.343,241.337 111.01,236.337 108.5,231.5C 100.253,204.982 102.253,179.315 114.5,154.5C 116.5,151.833 118.5,149.167 120.5,146.5C 125.767,139.894 131.434,133.561 137.5,127.5C 139.527,124.806 141.861,122.473 144.5,120.5C 149.523,117.322 154.857,114.655 160.5,112.5C 162.621,112.675 164.621,112.341 166.5,111.5 Z"/></g>
<g><path style="opacity:1" fill="#041209" d="M 215.5,127.5 C 214.909,129.819 213.242,131.819 210.5,133.5C 210.762,132.022 210.429,130.689 209.5,129.5C 208.914,129.709 208.414,130.043 208,130.5C 199.434,128.546 190.601,127.88 181.5,128.5C 187.251,126.96 193.251,126.294 199.5,126.5C 204.868,126.578 210.201,126.911 215.5,127.5 Z"/></g>
<g><path style="opacity:1" fill="#05081a" d="M 181.5,128.5 C 190.601,127.88 199.434,128.546 208,130.5C 208.414,130.043 208.914,129.709 209.5,129.5C 210.429,130.689 210.762,132.022 210.5,133.5C 208.628,134.511 206.628,135.345 204.5,136C 202.496,138.869 200.163,141.369 197.5,143.5C 196.571,144.689 196.238,146.022 196.5,147.5C 195.178,147.67 194.011,147.337 193,146.5C 190.54,149.125 188.706,152.125 187.5,155.5C 184.012,157.067 182.012,159.734 181.5,163.5C 176.167,169.5 170.5,175.167 164.5,180.5C 163.167,180.5 161.833,180.5 160.5,180.5C 160.719,181.675 160.386,182.675 159.5,183.5C 156.156,185.511 153.489,188.177 151.5,191.5C 149.922,192.298 148.256,192.798 146.5,193C 149.043,195.351 148.377,196.517 144.5,196.5C 144.371,198.216 144.038,199.883 143.5,201.5C 141.833,203.5 140.167,205.5 138.5,207.5C 137.167,208.5 135.833,209.5 134.5,210.5C 132.606,211.048 130.94,212.048 129.5,213.5C 126.211,197.5 128.044,182.167 135,167.5C 135.667,166.833 136.333,166.167 137,165.5C 138.743,167.321 140.243,169.321 141.5,171.5C 141.833,171.167 142.167,170.833 142.5,170.5C 139.278,166.836 138.778,162.836 141,158.5C 141.249,159.624 141.749,160.624 142.5,161.5C 143.547,160.078 143.547,158.578 142.5,157C 144.73,152.764 147.73,149.097 151.5,146C 154.792,145.104 157.125,146.271 158.5,149.5C 159.308,149.192 159.975,148.692 160.5,148C 153.322,143.134 154.155,140.301 163,139.5C 164.326,139.755 165.326,140.422 166,141.5C 167.364,140.742 168.531,141.242 169.5,143C 170.5,143.667 171.5,143.667 172.5,143C 173.833,142.333 173.833,141.667 172.5,141C 169.716,140.199 167.383,138.699 165.5,136.5C 171.424,134.677 176.757,132.01 181.5,128.5 Z"/></g>
<g><path style="opacity:1" fill="#121c0e" d="M 242.5,113.5 C 249.365,113.896 253.532,117.229 255,123.5C 250.358,128.23 245.858,133.063 241.5,138C 239.183,140.157 236.516,141.657 233.5,142.5C 240.297,135.202 247.297,128.035 254.5,121C 250.268,118.725 246.268,116.225 242.5,113.5 Z"/></g>
<g><path style="opacity:1" fill="#061010" d="M 144.5,120.5 C 141.861,122.473 139.527,124.806 137.5,127.5C 130.066,132.267 124.399,138.6 120.5,146.5C 118.5,149.167 116.5,151.833 114.5,154.5C 114.884,151.231 116.218,148.397 118.5,146C 117.62,144.644 117.286,143.144 117.5,141.5C 116.5,141.5 115.5,141.5 114.5,141.5C 114.649,142.552 114.483,143.552 114,144.5C 113.219,143.056 113.386,141.723 114.5,140.5C 118.179,139.09 118.345,137.424 115,135.5C 115.09,129.091 116.256,129.091 118.5,135.5C 119.833,136.5 121.167,137.5 122.5,138.5C 123.363,136.229 123.363,133.895 122.5,131.5C 124.481,132.348 126.481,132.848 128.5,133C 131.701,129.464 135.201,126.297 139,123.5C 139.483,122.552 139.649,121.552 139.5,120.5C 141.167,120.5 142.833,120.5 144.5,120.5 Z"/></g>
<g><path style="opacity:1" fill="#b6de7f" d="M 137.5,127.5 C 131.434,133.561 125.767,139.894 120.5,146.5C 124.399,138.6 130.066,132.267 137.5,127.5 Z"/></g>
<g><path style="opacity:1" fill="#c4fa6c" d="M 216.5,105.5 C 219.127,106.092 221.794,106.425 224.5,106.5C 230.413,108.809 236.413,111.142 242.5,113.5C 246.268,116.225 250.268,118.725 254.5,121C 247.297,128.035 240.297,135.202 233.5,142.5C 225.167,150.5 216.833,158.5 208.5,166.5C 208.67,165.178 208.337,164.011 207.5,163C 209.991,162.374 209.991,161.541 207.5,160.5C 209.401,159.065 209.734,157.398 208.5,155.5C 204.697,155.734 204.53,154.401 208,151.5C 208.674,152.578 209.674,153.245 211,153.5C 213.301,151.878 215.634,150.212 218,148.5C 218.667,147.5 218.667,146.5 218,145.5C 216.698,144.915 215.531,144.249 214.5,143.5C 215.15,143.196 215.817,142.863 216.5,142.5C 219.029,145.845 221.862,146.178 225,143.5C 229.321,145.429 230.821,144.262 229.5,140C 230.167,139.667 230.833,139.333 231.5,139C 229.842,138.275 229.342,137.108 230,135.5C 235.323,130.376 241.156,126.876 247.5,125C 246.833,124 246.167,123 245.5,122C 247.027,119.662 246.361,118.162 243.5,117.5C 242.719,118.737 241.719,119.737 240.5,120.5C 239.167,119.5 237.833,118.5 236.5,117.5C 234.162,119.011 233.496,118.677 234.5,116.5C 232.429,115.024 231.429,113.024 231.5,110.5C 229.08,110.292 226.747,110.626 224.5,111.5C 222.207,110.295 219.707,109.628 217,109.5C 213.757,109.307 210.757,109.973 208,111.5C 207.517,110.552 207.351,109.552 207.5,108.5C 204.175,108.169 200.841,107.836 197.5,107.5C 189.679,108.65 181.845,109.983 174,111.5C 172.56,110.852 171.06,110.519 169.5,110.5C 175.477,109.192 181.477,107.692 187.5,106C 197.161,105.5 206.828,105.334 216.5,105.5 Z"/></g>
<g><path style="opacity:1" fill="#06110d" d="M 181.5,128.5 C 176.757,132.01 171.424,134.677 165.5,136.5C 167.383,138.699 169.716,140.199 172.5,141C 173.833,141.667 173.833,142.333 172.5,143C 171.5,143.667 170.5,143.667 169.5,143C 168.531,141.242 167.364,140.742 166,141.5C 165.326,140.422 164.326,139.755 163,139.5C 154.155,140.301 153.322,143.134 160.5,148C 159.975,148.692 159.308,149.192 158.5,149.5C 157.125,146.271 154.792,145.104 151.5,146C 147.73,149.097 144.73,152.764 142.5,157C 143.547,158.578 143.547,160.078 142.5,161.5C 141.749,160.624 141.249,159.624 141,158.5C 138.778,162.836 139.278,166.836 142.5,170.5C 142.167,170.833 141.833,171.167 141.5,171.5C 140.243,169.321 138.743,167.321 137,165.5C 136.333,166.167 135.667,166.833 135,167.5C 128.044,182.167 126.211,197.5 129.5,213.5C 130.94,212.048 132.606,211.048 134.5,210.5C 132.761,213.243 130.427,215.243 127.5,216.5C 122.407,185.059 132.074,159.392 156.5,139.5C 164.208,134.481 172.541,130.814 181.5,128.5 Z"/></g>
<g><path style="opacity:1" fill="#081011" d="M 277.5,145.5 C 273.833,149.5 270.167,153.5 266.5,157.5C 262.843,161.459 259.176,165.459 255.5,169.5C 252.833,171.833 250.167,174.167 247.5,176.5C 246.801,174.005 245.801,171.672 244.5,169.5C 246.737,170.449 249.071,171.116 251.5,171.5C 250.551,169.263 249.884,166.929 249.5,164.5C 251.912,164.244 253.579,165.244 254.5,167.5C 255.734,165.602 255.401,163.935 253.5,162.5C 254.242,161.713 255.075,161.047 256,160.5C 257.612,163.079 259.112,163.079 260.5,160.5C 259.675,159.614 258.675,159.281 257.5,159.5C 257.351,158.448 257.517,157.448 258,156.5C 260.085,154.918 261.585,152.918 262.5,150.5C 264.924,149.577 266.924,148.077 268.5,146C 269.448,145.517 270.448,145.351 271.5,145.5C 271.281,144.325 271.614,143.325 272.5,142.5C 273.731,143.651 273.731,144.817 272.5,146C 273,146.5 273.5,147 274,147.5C 274.816,146.177 275.983,145.511 277.5,145.5 Z"/></g>
<g><path style="opacity:1" fill="#acd278" d="M 277.5,145.5 C 279.167,146.5 280.5,147.833 281.5,149.5C 279.863,148.782 278.197,148.616 276.5,149C 273.629,151.703 270.962,154.536 268.5,157.5C 267.833,157.5 267.167,157.5 266.5,157.5C 270.167,153.5 273.833,149.5 277.5,145.5 Z"/></g>
<g><path style="opacity:1" fill="#0a1609" d="M 277.5,145.5 C 277.56,144.957 277.893,144.624 278.5,144.5C 280.667,145.792 283,146.625 285.5,147C 284.424,148.726 284.257,150.559 285,152.5C 287.287,155.072 288.453,158.072 288.5,161.5C 285.917,158.003 283.584,154.336 281.5,150.5C 281.5,150.167 281.5,149.833 281.5,149.5C 280.5,147.833 279.167,146.5 277.5,145.5 Z"/></g>
<g><path style="opacity:1" fill="#c3fd60" d="M 281.5,149.5 C 281.5,149.833 281.5,150.167 281.5,150.5C 280.829,153.262 281.495,155.929 283.5,158.5C 281.896,160.179 281.229,162.179 281.5,164.5C 284.598,164.413 284.932,164.913 282.5,166C 283.589,168.263 282.922,170.096 280.5,171.5C 279.742,170.189 278.742,169.689 277.5,170C 278.337,171.011 278.67,172.178 278.5,173.5C 277.448,173.649 276.448,173.483 275.5,173C 274.845,171.513 273.845,170.347 272.5,169.5C 272.167,170 271.833,170.5 271.5,171C 272.535,172.274 273.702,173.44 275,174.5C 275.329,176.614 274.496,178.28 272.5,179.5C 270.974,178.094 269.307,176.928 267.5,176C 268.308,175.692 268.975,175.192 269.5,174.5C 266.887,172.061 264.887,169.228 263.5,166C 264.759,165.077 266.092,164.243 267.5,163.5C 266.833,162.833 266.167,162.167 265.5,161.5C 266.524,160.148 267.524,158.815 268.5,157.5C 270.962,154.536 273.629,151.703 276.5,149C 278.197,148.616 279.863,148.782 281.5,149.5 Z"/></g>
<g><path style="opacity:1" fill="#c0f36c" d="M 281.5,150.5 C 283.584,154.336 285.917,158.003 288.5,161.5C 288.421,162.93 288.754,164.264 289.5,165.5C 288.807,166.518 288.141,167.518 287.5,168.5C 280.215,175.119 273.215,182.119 266.5,189.5C 261.5,194.167 256.5,198.833 251.5,203.5C 252.038,201.883 252.371,200.216 252.5,198.5C 253.5,198.5 254.5,198.5 255.5,198.5C 255.722,195.099 257.388,192.599 260.5,191C 258.202,189.914 256.202,188.414 254.5,186.5C 253.252,188.459 251.585,189.959 249.5,191C 248.668,191.688 248.002,191.521 247.5,190.5C 249.851,187.818 252.184,185.151 254.5,182.5C 255.624,183.914 256.624,185.414 257.5,187C 258.793,187.49 260.127,187.657 261.5,187.5C 262.401,183.759 261.068,181.759 257.5,181.5C 257.167,178.5 258.5,177.167 261.5,177.5C 261.759,181.068 263.759,182.401 267.5,181.5C 267.822,179.278 267.155,177.444 265.5,176C 265.957,175.586 266.291,175.086 266.5,174.5C 264.5,171.833 262.5,169.167 260.5,166.5C 259.06,167.952 257.394,168.952 255.5,169.5C 259.176,165.459 262.843,161.459 266.5,157.5C 267.167,157.5 267.833,157.5 268.5,157.5C 267.524,158.815 266.524,160.148 265.5,161.5C 266.167,162.167 266.833,162.833 267.5,163.5C 266.092,164.243 264.759,165.077 263.5,166C 264.887,169.228 266.887,172.061 269.5,174.5C 268.975,175.192 268.308,175.692 267.5,176C 269.307,176.928 270.974,178.094 272.5,179.5C 274.496,178.28 275.329,176.614 275,174.5C 273.702,173.44 272.535,172.274 271.5,171C 271.833,170.5 272.167,170 272.5,169.5C 273.845,170.347 274.845,171.513 275.5,173C 276.448,173.483 277.448,173.649 278.5,173.5C 278.67,172.178 278.337,171.011 277.5,170C 278.742,169.689 279.742,170.189 280.5,171.5C 282.922,170.096 283.589,168.263 282.5,166C 284.932,164.913 284.598,164.413 281.5,164.5C 281.229,162.179 281.896,160.179 283.5,158.5C 281.495,155.929 280.829,153.262 281.5,150.5 Z"/></g>
<g><path style="opacity:1" fill="#0a1212" d="M 233.5,142.5 C 232.36,144.78 231.193,147.114 230,149.5C 224.167,154 219,159.167 214.5,165C 215.448,165.483 216.448,165.649 217.5,165.5C 217.5,166.833 217.5,168.167 217.5,169.5C 216.167,169.5 214.833,169.5 213.5,169.5C 213.333,166.043 212.333,165.71 210.5,168.5C 212.854,170.246 213.854,172.579 213.5,175.5C 210.541,175.35 208.041,176.35 206,178.5C 205.821,176.576 205.654,174.909 205.5,173.5C 203.736,175.278 201.736,176.611 199.5,177.5C 202.878,174.124 205.878,170.457 208.5,166.5C 216.833,158.5 225.167,150.5 233.5,142.5 Z"/></g>
<g><path style="opacity:1" fill="#071608" d="M 287.5,168.5 C 287.631,169.239 287.464,169.906 287,170.5C 280.577,177.428 273.744,183.762 266.5,189.5C 273.215,182.119 280.215,175.119 287.5,168.5 Z"/></g>
<g><path style="opacity:1" fill="#071706" d="M 114.5,154.5 C 102.253,179.315 100.253,204.982 108.5,231.5C 105.802,226.575 103.968,221.241 103,215.5C 102.333,204.5 102.333,193.5 103,182.5C 105.575,173.441 108.575,164.441 112,155.5C 112.671,154.748 113.504,154.414 114.5,154.5 Z"/></g>
<g><path style="opacity:1" fill="#060e14" d="M 247.5,176.5 C 235.833,188.833 223.833,200.833 211.5,212.5C 212.235,209.938 213.569,207.772 215.5,206C 214.978,205.05 214.311,204.216 213.5,203.5C 215.326,203.08 217.326,203.08 219.5,203.5C 218.36,200.975 217.693,198.308 217.5,195.5C 218.978,195.762 220.311,195.429 221.5,194.5C 222.5,192.167 224.167,190.5 226.5,189.5C 227.429,188.311 227.762,186.978 227.5,185.5C 230.308,185.693 232.975,186.36 235.5,187.5C 234.36,184.975 233.693,182.308 233.5,179.5C 234.978,179.762 236.311,179.429 237.5,178.5C 238.877,175.305 240.877,174.805 243.5,177C 241.405,177.556 241.238,178.056 243,178.5C 244.3,177.293 245.8,176.626 247.5,176.5 Z"/></g>
<g><path style="opacity:1" fill="#caf28b" d="M 255.5,169.5 C 240.755,185.748 225.421,201.581 209.5,217C 208.906,217.464 208.239,217.631 207.5,217.5C 208.833,215.833 210.167,214.167 211.5,212.5C 223.833,200.833 235.833,188.833 247.5,176.5C 250.167,174.167 252.833,171.833 255.5,169.5 Z"/></g>
<g><path style="opacity:1" fill="#07110e" d="M 188.5,188.5 C 187.952,190.394 186.952,192.06 185.5,193.5C 185.833,194.167 186.167,194.833 186.5,195.5C 181.871,197.106 179.538,200.439 179.5,205.5C 178.281,204.737 177.281,203.737 176.5,202.5C 175.06,203.952 173.394,204.952 171.5,205.5C 176.833,199.5 182.5,193.833 188.5,188.5 Z"/></g>
<g><path style="opacity:1" fill="#c3fc61" d="M 214.5,143.5 C 215.531,144.249 216.698,144.915 218,145.5C 218.667,146.5 218.667,147.5 218,148.5C 215.634,150.212 213.301,151.878 211,153.5C 209.674,153.245 208.674,152.578 208,151.5C 204.53,154.401 204.697,155.734 208.5,155.5C 209.734,157.398 209.401,159.065 207.5,160.5C 209.991,161.541 209.991,162.374 207.5,163C 208.337,164.011 208.67,165.178 208.5,166.5C 205.878,170.457 202.878,174.124 199.5,177.5C 195.833,180.833 192.167,184.167 188.5,187.5C 186.071,187.116 183.737,186.449 181.5,185.5C 181.383,187.484 182.05,189.15 183.5,190.5C 181.2,190.868 179.033,190.868 177,190.5C 176.42,193.547 176.753,193.881 178,191.5C 179.939,193.46 179.439,194.793 176.5,195.5C 175.571,196.689 175.238,198.022 175.5,199.5C 173.408,199.439 171.908,198.439 171,196.5C 170.13,197.108 169.63,197.941 169.5,199C 170.707,200.3 171.374,201.8 171.5,203.5C 167.737,204.257 165.237,206.59 164,210.5C 163.667,210.167 163.333,209.833 163,209.5C 162.29,210.973 161.124,211.64 159.5,211.5C 159.5,212.833 159.5,214.167 159.5,215.5C 158.167,215.5 156.833,215.5 155.5,215.5C 155.5,216.833 155.5,218.167 155.5,219.5C 154.127,219.343 152.793,219.51 151.5,220C 150.359,220.741 150.359,221.575 151.5,222.5C 150.271,223.281 148.938,223.781 147.5,224C 148.833,224.667 148.833,225.333 147.5,226C 146.551,226.617 145.718,226.451 145,225.5C 143.798,227.677 143.298,230.011 143.5,232.5C 140.626,233.063 137.96,234.063 135.5,235.5C 135.5,236.833 135.5,238.167 135.5,239.5C 134.127,239.343 132.793,239.51 131.5,240C 131.833,240.333 132.167,240.667 132.5,241C 131.5,241.333 130.5,241.667 129.5,242C 130.673,245.11 130.173,245.277 128,242.5C 126.887,243.711 125.72,243.711 124.5,242.5C 123.77,245.897 121.77,247.897 118.5,248.5C 118.703,246.362 119.703,244.695 121.5,243.5C 119.865,242.319 118.198,242.319 116.5,243.5C 115.072,241.345 114.739,239.179 115.5,237C 112.882,234.558 110.882,231.724 109.5,228.5C 109.54,222.594 109.707,216.594 110,210.5C 110.833,211.5 111.667,212.5 112.5,213.5C 113.76,211.647 113.76,209.814 112.5,208C 110.973,206.632 109.473,206.132 108,206.5C 107.333,201.833 107.333,197.167 108,192.5C 109.167,191 110.333,189.5 111.5,188C 109.955,186.178 109.288,184.011 109.5,181.5C 109.667,179.833 109.833,178.167 110,176.5C 111.018,177.706 111.518,177.373 111.5,175.5C 110.379,172.804 110.379,170.137 111.5,167.5C 113.332,166.752 114.999,165.752 116.5,164.5C 118.145,160.699 120.145,157.199 122.5,154C 121.217,152.864 120.217,151.531 119.5,150C 120.722,147.035 122.222,146.868 124,149.5C 124.81,147.694 125.976,146.194 127.5,145C 127.355,144.228 127.022,143.561 126.5,143C 128.679,140.918 130.013,141.418 130.5,144.5C 129.554,146.258 129.554,147.925 130.5,149.5C 132.833,148.5 134.5,146.833 135.5,144.5C 134.457,142.144 133.457,139.81 132.5,137.5C 133.675,137.719 134.675,137.386 135.5,136.5C 138.384,131.291 141.051,131.291 143.5,136.5C 141.995,137.842 141.328,139.508 141.5,141.5C 140.5,141.5 139.5,141.5 138.5,141.5C 138.281,142.675 138.614,143.675 139.5,144.5C 142.804,144.678 144.471,146.344 144.5,149.5C 142.549,149.773 141.049,149.107 140,147.5C 138.829,148.893 137.329,149.727 135.5,150C 132.637,151.948 131.637,154.448 132.5,157.5C 133.736,156.754 135.07,156.421 136.5,156.5C 136.5,157.5 136.5,158.5 136.5,159.5C 135.5,159.5 134.5,159.5 133.5,159.5C 132.686,163.558 131.686,166.891 130.5,169.5C 129.5,169.5 128.5,169.5 127.5,169.5C 128.878,175.461 126.878,177.461 121.5,175.5C 121.156,178.62 121.823,181.453 123.5,184C 120.556,194.699 120.89,205.199 124.5,215.5C 125.417,216.127 126.417,216.461 127.5,216.5C 130.427,215.243 132.761,213.243 134.5,210.5C 135.833,209.5 137.167,208.5 138.5,207.5C 139.239,207.631 139.906,207.464 140.5,207C 162.347,184.986 184.347,163.153 206.5,141.5C 207.429,140.311 207.762,138.978 207.5,137.5C 208.5,136.167 209.5,134.833 210.5,133.5C 213.242,131.819 214.909,129.819 215.5,127.5C 214.571,126.685 213.571,125.852 212.5,125C 203.5,124.333 194.5,124.333 185.5,125C 184.756,126.039 183.756,126.539 182.5,126.5C 180.107,125.79 177.607,125.123 175,124.5C 174.042,122.801 173.542,120.967 173.5,119C 173.189,114.528 175.189,112.861 179.5,114C 182.864,115.682 186.198,117.349 189.5,119C 187.973,120.368 186.473,120.868 185,120.5C 182.358,117.971 179.192,116.971 175.5,117.5C 175.5,118.833 175.5,120.167 175.5,121.5C 179.054,121.15 182.388,121.816 185.5,123.5C 188.279,122.644 191.112,121.977 194,121.5C 197.772,121.957 201.439,121.957 205,121.5C 207.478,122.245 209.978,122.911 212.5,123.5C 215.996,121.739 219.663,121.239 223.5,122C 224.833,123 224.833,124 223.5,125C 221.423,125.192 219.423,125.692 217.5,126.5C 218.171,128.507 219.171,130.34 220.5,132C 219.65,133.286 218.483,133.119 217,131.5C 214.719,134.063 213.552,137.063 213.5,140.5C 212.5,140.5 211.5,140.5 210.5,140.5C 210.5,141.5 210.5,142.5 210.5,143.5C 211.833,143.5 213.167,143.5 214.5,143.5 Z"/></g>
<g><path style="opacity:1" fill="#0c1908" d="M 164.5,180.5 C 157.833,187.833 150.833,194.833 143.5,201.5C 144.038,199.883 144.371,198.216 144.5,196.5C 148.377,196.517 149.043,195.351 146.5,193C 148.256,192.798 149.922,192.298 151.5,191.5C 153.489,188.177 156.156,185.511 159.5,183.5C 160.386,182.675 160.719,181.675 160.5,180.5C 161.833,180.5 163.167,180.5 164.5,180.5 Z"/></g>
<g><path style="opacity:1" fill="#c8ef88" d="M 207.5,137.5 C 207.762,138.978 207.429,140.311 206.5,141.5C 184.347,163.153 162.347,184.986 140.5,207C 139.906,207.464 139.239,207.631 138.5,207.5C 140.167,205.5 141.833,203.5 143.5,201.5C 150.833,194.833 157.833,187.833 164.5,180.5C 170.5,175.167 176.167,169.5 181.5,163.5C 190.554,155.113 199.221,146.446 207.5,137.5 Z"/></g>
<g><path style="opacity:1" fill="#0b170c" d="M 210.5,133.5 C 209.5,134.833 208.5,136.167 207.5,137.5C 199.221,146.446 190.554,155.113 181.5,163.5C 182.012,159.734 184.012,157.067 187.5,155.5C 188.706,152.125 190.54,149.125 193,146.5C 194.011,147.337 195.178,147.67 196.5,147.5C 196.238,146.022 196.571,144.689 197.5,143.5C 200.163,141.369 202.496,138.869 204.5,136C 206.628,135.345 208.628,134.511 210.5,133.5 Z"/></g>
<g><path style="opacity:1" fill="#bde380" d="M 291.5,226.5 C 292.249,222.181 292.415,217.848 292,213.5C 289.234,216.777 286.067,219.443 282.5,221.5C 285.5,218.167 288.5,214.833 291.5,211.5C 292.794,210.71 293.961,209.71 295,208.5C 295.167,209.167 295.333,209.833 295.5,210.5C 294.253,215.983 292.92,221.316 291.5,226.5 Z"/></g>
<g><path style="opacity:1" fill="#09150b" d="M 249.5,206.5 C 249.662,208.527 249.495,210.527 249,212.5C 248.586,212.043 248.086,211.709 247.5,211.5C 245.167,212.5 243.5,214.167 242.5,216.5C 241.311,217.429 239.978,217.762 238.5,217.5C 241.833,213.5 245.5,209.833 249.5,206.5 Z"/></g>
<g><path style="opacity:1" fill="#04100b" d="M 211.5,212.5 C 210.167,214.167 208.833,215.833 207.5,217.5C 203.5,221.167 199.5,224.833 195.5,228.5C 196.833,225.833 198.167,223.167 199.5,220.5C 198.5,220.5 197.5,220.5 196.5,220.5C 196.5,219.5 196.5,218.5 196.5,217.5C 198.827,217.247 200.827,217.914 202.5,219.5C 202.833,219 203.167,218.5 203.5,218C 202.115,216.403 201.449,214.57 201.5,212.5C 203.638,212.703 205.305,213.703 206.5,215.5C 207.695,213.703 209.362,212.703 211.5,212.5 Z"/></g>
<g><path style="opacity:1" fill="#c7f577" d="M 188.5,187.5 C 188.5,187.833 188.5,188.167 188.5,188.5C 182.5,193.833 176.833,199.5 171.5,205.5C 162.167,214.5 152.833,223.5 143.5,232.5C 143.298,230.011 143.798,227.677 145,225.5C 145.718,226.451 146.551,226.617 147.5,226C 148.833,225.333 148.833,224.667 147.5,224C 148.938,223.781 150.271,223.281 151.5,222.5C 150.359,221.575 150.359,220.741 151.5,220C 152.793,219.51 154.127,219.343 155.5,219.5C 155.5,218.167 155.5,216.833 155.5,215.5C 156.833,215.5 158.167,215.5 159.5,215.5C 159.5,214.167 159.5,212.833 159.5,211.5C 161.124,211.64 162.29,210.973 163,209.5C 163.333,209.833 163.667,210.167 164,210.5C 165.237,206.59 167.737,204.257 171.5,203.5C 171.374,201.8 170.707,200.3 169.5,199C 169.63,197.941 170.13,197.108 171,196.5C 171.908,198.439 173.408,199.439 175.5,199.5C 175.238,198.022 175.571,196.689 176.5,195.5C 179.439,194.793 179.939,193.46 178,191.5C 176.753,193.881 176.42,193.547 177,190.5C 179.033,190.868 181.2,190.868 183.5,190.5C 182.05,189.15 181.383,187.484 181.5,185.5C 183.737,186.449 186.071,187.116 188.5,187.5 Z"/></g>
<g><path style="opacity:1" fill="#031603" d="M 291.5,211.5 C 288.5,214.833 285.5,218.167 282.5,221.5C 278.833,224.833 275.167,228.167 271.5,231.5C 274.094,227.728 276.927,224.061 280,220.5C 283.363,216.902 287.196,213.902 291.5,211.5 Z"/></g>
<g><path style="opacity:1" fill="#bee681" d="M 282.5,221.5 C 274.091,231.413 265.091,240.913 255.5,250C 254.906,250.464 254.239,250.631 253.5,250.5C 259.5,244.167 265.5,237.833 271.5,231.5C 275.167,228.167 278.833,224.833 282.5,221.5 Z"/></g>
<g><path style="opacity:1" fill="#0b1807" d="M 238.5,217.5 C 234.492,222.344 230.659,227.344 227,232.5C 224.627,234.12 222.127,235.454 219.5,236.5C 225.5,229.833 231.833,223.5 238.5,217.5 Z"/></g>
<g><path style="opacity:1" fill="#0a150b" d="M 171.5,205.5 C 170.454,207.785 170.454,210.118 171.5,212.5C 166.908,212.256 164.241,214.423 163.5,219C 162.167,219 160.833,219 159.5,219C 155.956,222.375 152.623,225.875 149.5,229.5C 148.691,231.071 148.357,232.738 148.5,234.5C 146.801,234.34 145.134,234.506 143.5,235C 142.211,236.802 140.544,237.969 138.5,238.5C 140.167,236.5 141.833,234.5 143.5,232.5C 152.833,223.5 162.167,214.5 171.5,205.5 Z"/></g>
<g><path style="opacity:1" fill="#0e190b" d="M 108.5,231.5 C 111.01,236.337 113.343,241.337 115.5,246.5C 114.167,246.5 112.833,246.5 111.5,246.5C 110.797,241.432 109.797,236.432 108.5,231.5 Z"/></g>
<g><path style="opacity:1" fill="#c3fb64" d="M 291.5,226.5 C 290.807,229.941 289.807,233.275 288.5,236.5C 277.941,259.058 261.608,276.058 239.5,287.5C 235.343,289.218 231.01,290.551 226.5,291.5C 223.102,291.82 219.768,291.487 216.5,290.5C 224.486,282.014 232.652,273.681 241,265.5C 241.483,264.552 241.649,263.552 241.5,262.5C 244.198,262.092 246.531,260.926 248.5,259C 250.064,256.029 251.73,253.196 253.5,250.5C 254.239,250.631 254.906,250.464 255.5,250C 265.091,240.913 274.091,231.413 282.5,221.5C 286.067,219.443 289.234,216.777 292,213.5C 292.415,217.848 292.249,222.181 291.5,226.5 Z"/></g>
<g><path style="opacity:1" fill="#0a150f" d="M 195.5,228.5 C 192.167,232.167 188.833,235.833 185.5,239.5C 178.719,246.736 171.719,253.736 164.5,260.5C 164.238,259.022 164.571,257.689 165.5,256.5C 168.127,253.043 171.294,250.043 175,247.5C 175.651,245.765 175.485,244.098 174.5,242.5C 176.044,241.378 177.377,241.711 178.5,243.5C 179.594,242.132 179.26,240.965 177.5,240C 181.988,239.69 185.322,237.523 187.5,233.5C 189.945,231.371 192.611,229.704 195.5,228.5 Z"/></g>
<g><path style="opacity:1" fill="#101b09" d="M 219.5,236.5 C 219.108,238.179 218.608,239.846 218,241.5C 214.215,245.131 210.049,248.131 205.5,250.5C 209.833,245.5 214.5,240.833 219.5,236.5 Z"/></g>
<g><path style="opacity:1" fill="#0a140e" d="M 138.5,238.5 C 138.227,240.451 138.893,241.951 140.5,243C 139.708,245.336 138.375,245.836 136.5,244.5C 133.467,245.482 131.8,247.482 131.5,250.5C 126.772,251.089 126.105,252.422 129.5,254.5C 128.224,255.645 126.891,255.645 125.5,254.5C 122.273,256.882 118.94,256.882 115.5,254.5C 116.167,253.833 116.833,253.167 117.5,252.5C 116.544,250.925 115.877,249.258 115.5,247.5C 117.803,249.978 119.969,252.645 122,255.5C 127.004,249.33 132.504,243.663 138.5,238.5 Z"/></g>
<g><path style="opacity:1" fill="#c3fc62" d="M 251.5,203.5 C 250.833,204.5 250.167,205.5 249.5,206.5C 245.5,209.833 241.833,213.5 238.5,217.5C 231.833,223.5 225.5,229.833 219.5,236.5C 214.5,240.833 209.833,245.5 205.5,250.5C 196.194,260.473 186.527,270.14 176.5,279.5C 173.05,278.756 171.384,280.09 171.5,283.5C 169.43,283.551 167.597,282.885 166,281.5C 162.762,283.427 159.262,283.927 155.5,283C 154.862,281.293 154.862,279.46 155.5,277.5C 152.966,277.259 151.3,278.259 150.5,280.5C 149.427,279.749 149.26,278.749 150,277.5C 161.027,266.473 172.027,255.473 183,244.5C 184.094,242.922 184.928,241.255 185.5,239.5C 188.833,235.833 192.167,232.167 195.5,228.5C 199.5,224.833 203.5,221.167 207.5,217.5C 208.239,217.631 208.906,217.464 209.5,217C 225.421,201.581 240.755,185.748 255.5,169.5C 257.394,168.952 259.06,167.952 260.5,166.5C 262.5,169.167 264.5,171.833 266.5,174.5C 266.291,175.086 265.957,175.586 265.5,176C 267.155,177.444 267.822,179.278 267.5,181.5C 263.759,182.401 261.759,181.068 261.5,177.5C 258.5,177.167 257.167,178.5 257.5,181.5C 261.068,181.759 262.401,183.759 261.5,187.5C 260.127,187.657 258.793,187.49 257.5,187C 256.624,185.414 255.624,183.914 254.5,182.5C 252.184,185.151 249.851,187.818 247.5,190.5C 248.002,191.521 248.668,191.688 249.5,191C 251.585,189.959 253.252,188.459 254.5,186.5C 256.202,188.414 258.202,189.914 260.5,191C 257.388,192.599 255.722,195.099 255.5,198.5C 254.5,198.5 253.5,198.5 252.5,198.5C 252.371,200.216 252.038,201.883 251.5,203.5 Z"/></g>
<g><path style="opacity:1" fill="#c0e982" d="M 185.5,239.5 C 184.928,241.255 184.094,242.922 183,244.5C 172.027,255.473 161.027,266.473 150,277.5C 149.26,278.749 149.427,279.749 150.5,280.5C 150.5,280.833 150.5,281.167 150.5,281.5C 149.391,281.443 148.391,281.11 147.5,280.5C 147.389,279.883 147.056,279.383 146.5,279C 152.395,272.607 158.395,266.44 164.5,260.5C 171.719,253.736 178.719,246.736 185.5,239.5 Z"/></g>
<g><path style="opacity:1" fill="#b2dd72" d="M 253.5,250.5 C 251.73,253.196 250.064,256.029 248.5,259C 246.531,260.926 244.198,262.092 241.5,262.5C 245.167,258.167 249.167,254.167 253.5,250.5 Z"/></g>
<g><path style="opacity:1" fill="#121c0f" d="M 164.5,260.5 C 158.395,266.44 152.395,272.607 146.5,279C 147.056,279.383 147.389,279.883 147.5,280.5C 146.883,280.611 146.383,280.944 146,281.5C 145.202,279.741 145.369,278.074 146.5,276.5C 150.072,271.973 154.072,267.973 158.5,264.5C 159.213,262.224 159.713,259.891 160,257.5C 160.908,259.439 162.408,260.439 164.5,260.5 Z"/></g>
<g><path style="opacity:1" fill="#0b1112" d="M 239.5,263.5 C 233.557,271.111 226.891,278.111 219.5,284.5C 219.306,281.67 218.639,279.004 217.5,276.5C 219.912,276.244 221.579,277.244 222.5,279.5C 225.486,277.188 225.152,275.521 221.5,274.5C 224.771,272.25 226.771,269.25 227.5,265.5C 230.33,265.694 232.996,266.361 235.5,267.5C 234.833,265.167 234.167,262.833 233.5,260.5C 234.5,260.5 235.5,260.5 236.5,260.5C 236.5,261.5 236.5,262.5 236.5,263.5C 237.5,263.5 238.5,263.5 239.5,263.5 Z"/></g>
<g><path style="opacity:1" fill="#050e11" d="M 205.5,250.5 C 205.002,253.674 205.002,257.007 205.5,260.5C 204.167,260.5 202.833,260.5 201.5,260.5C 201.5,261.5 201.5,262.5 201.5,263.5C 199.488,262.986 197.488,262.82 195.5,263C 192.167,266.333 188.833,269.667 185.5,273C 186.167,273.333 186.833,273.667 187.5,274C 186.449,275.385 185.116,276.385 183.5,277C 184.258,278.364 183.758,279.531 182,280.5C 181.667,280.167 181.333,279.833 181,279.5C 180.593,283.33 179.26,283.997 177,281.5C 173.771,285.755 169.771,288.755 165,290.5C 163.319,290.392 162.152,289.725 161.5,288.5C 163.455,289.323 165.455,289.49 167.5,289C 170.704,285.964 173.704,282.797 176.5,279.5C 186.527,270.14 196.194,260.473 205.5,250.5 Z"/></g>
<g><path style="opacity:1" fill="#09110e" d="M 288.5,236.5 C 284.798,250.466 276.965,262.133 265,271.5C 264.729,273.807 265.895,274.974 268.5,275C 264.981,279.352 260.981,283.186 256.5,286.5C 255.354,285.855 254.354,285.022 253.5,284C 256.441,282.717 259.107,281.05 261.5,279C 263.559,277.815 263.726,276.648 262,275.5C 256.601,279.119 251.101,282.619 245.5,286C 243.655,287.128 241.655,287.628 239.5,287.5C 261.608,276.058 277.941,259.058 288.5,236.5 Z"/></g>
<g><path style="opacity:1" fill="#c2f271" d="M 176.5,279.5 C 173.704,282.797 170.704,285.964 167.5,289C 165.455,289.49 163.455,289.323 161.5,288.5C 157.664,286.416 153.997,284.083 150.5,281.5C 150.5,281.167 150.5,280.833 150.5,280.5C 151.3,278.259 152.966,277.259 155.5,277.5C 154.862,279.46 154.862,281.293 155.5,283C 159.262,283.927 162.762,283.427 166,281.5C 167.597,282.885 169.43,283.551 171.5,283.5C 171.384,280.09 173.05,278.756 176.5,279.5 Z"/></g>
<g><path style="opacity:1" fill="#c6ee86" d="M 241.5,262.5 C 241.649,263.552 241.483,264.552 241,265.5C 232.652,273.681 224.486,282.014 216.5,290.5C 219.768,291.487 223.102,291.82 226.5,291.5C 220.961,293.091 215.295,294.258 209.5,295C 213.037,291.631 216.371,288.131 219.5,284.5C 226.891,278.111 233.557,271.111 239.5,263.5C 240.167,263.167 240.833,262.833 241.5,262.5 Z"/></g>
</svg>
