<svg width="196" height="196" viewBox="0 0 196 196" fill="none" xmlns="http://www.w3.org/2000/svg">
<g filter="url(#filter0_d_2358_27542)">
<rect x="27.4375" y="27" width="141.125" height="141.125" rx="70.5625" fill="#040512"/>
<path d="M142.84 101.747C142.84 101.886 142.84 101.886 142.84 102.026C140.887 123.504 123.872 140.241 102.951 142.473C102.812 142.473 102.672 142.473 102.533 142.473L142.84 101.747Z" fill="#C4FF61"/>
<path d="M117.736 57.2552C116.62 56.6973 115.504 56.2789 114.249 55.7211C111.878 54.8842 109.646 54.0474 107.136 53.629C104.207 53.0711 101.138 52.6527 98.07 52.6527C96.6753 52.6527 95.0017 52.7922 93.607 52.9316C83.2861 53.9079 73.9415 58.5105 66.8285 65.3446C66.2706 65.763 65.8522 66.3209 65.4338 66.7393C58.5997 73.8523 54.276 83.3364 53.2997 93.6573C53.1603 94.9125 53.1603 96.3072 53.1603 97.7019C53.1603 101.049 53.4392 104.397 54.1366 107.465C54.6945 109.836 55.3918 112.207 56.2286 114.299C56.7865 115.554 57.2049 116.67 57.9023 117.925C58.8786 120.017 60.1338 121.83 61.3891 123.783L68.7811 116.252L116.341 68.134L123.733 60.6025C121.92 59.3473 119.967 58.2315 117.736 57.2552ZM64.4575 106.21C64.318 105.931 64.318 105.652 64.1785 105.233C63.6206 102.862 63.3417 100.212 63.3417 97.7019C63.3417 88.7758 66.689 80.4075 72.6863 73.9918L73.9415 72.7366C80.3572 66.5998 88.8649 63.113 97.9306 63.113C100.302 63.113 102.673 63.392 105.044 63.8104C105.323 63.9499 105.741 63.9499 106.02 64.0893L64.4575 106.21Z" fill="#C4FF61"/>
<path d="M82.588 139.822C81.4722 139.404 80.3565 138.985 79.3802 138.428C77.1486 137.451 75.0565 136.196 72.9645 134.801L135.169 72.0392C136.563 73.9918 137.679 75.9444 138.655 78.176C139.213 79.2917 139.632 80.4075 140.05 81.6627L82.588 139.822Z" fill="#C4FF61"/>
</g>
<defs>
<filter id="filter0_d_2358_27542" x="0.492594" y="0.0550938" width="195.015" height="195.015" filterUnits="userSpaceOnUse" color-interpolation-filters="sRGB">
<feFlood flood-opacity="0" result="BackgroundImageFix"/>
<feColorMatrix in="SourceAlpha" type="matrix" values="0 0 0 0 0 0 0 0 0 0 0 0 0 0 0 0 0 0 127 0" result="hardAlpha"/>
<feOffset/>
<feGaussianBlur stdDeviation="13.4725"/>
<feColorMatrix type="matrix" values="0 0 0 0 0.33603 0 0 0 0 0.259553 0 0 0 0 0.553695 0 0 0 1 0"/>
<feBlend mode="normal" in2="BackgroundImageFix" result="effect1_dropShadow_2358_27542"/>
<feBlend mode="normal" in="SourceGraphic" in2="effect1_dropShadow_2358_27542" result="shape"/>
</filter>
</defs>
</svg>
