<?xml version="1.0" encoding="UTF-8"?>
<!DOCTYPE svg PUBLIC "-//W3C//DTD SVG 1.1//EN" "http://www.w3.org/Graphics/SVG/1.1/DTD/svg11.dtd">
<svg xmlns="http://www.w3.org/2000/svg" version="1.1" width="400px" height="400px" style="shape-rendering:geometricPrecision; text-rendering:geometricPrecision; image-rendering:optimizeQuality; fill-rule:evenodd; clip-rule:evenodd" xmlns:xlink="http://www.w3.org/1999/xlink">
<g><path style="opacity:0.976" fill="#000000" d="M 399.5,180.5 C 399.5,193.5 399.5,206.5 399.5,219.5C 387.196,304.644 340.529,361.811 259.5,391C 246.233,394.818 232.9,397.652 219.5,399.5C 206.5,399.5 193.5,399.5 180.5,399.5C 99.4123,387.915 43.2457,344.248 12,268.5C -11.7511,194.936 0.582203,128.269 49,68.5C 97.4536,16.2121 157.287,-5.95457 228.5,2C 301.255,14.7715 353.089,54.6048 384,121.5C 391.855,140.591 397.021,160.258 399.5,180.5 Z"/></g>
<g><path style="opacity:1" fill="#fcfcfc" d="M 193.5,26.5 C 208.654,25.9415 222.321,30.1082 234.5,39C 276.333,80.8333 318.167,122.667 360,164.5C 376.847,188.344 376.514,212.01 359,235.5C 317.5,277 276,318.5 234.5,360C 211.113,376.52 187.779,376.52 164.5,360C 122.667,318.167 80.8333,276.333 39,234.5C 22.4781,211.101 22.4781,187.768 39,164.5C 80.8333,122.667 122.667,80.8333 164.5,39C 173.278,32.5807 182.944,28.414 193.5,26.5 Z"/></g>
<g><path style="opacity:1" fill="#040404" d="M 135.5,89.5 C 178.168,89.3333 220.835,89.5 263.5,90C 289.44,95.6063 304.94,111.44 310,137.5C 310.667,178.5 310.667,219.5 310,260.5C 305.012,289.155 288.178,305.655 259.5,310C 218.833,310.667 178.167,310.667 137.5,310C 117.425,307.211 102.925,296.711 94,278.5C 91.72,272.661 90.0533,266.661 89,260.5C 88.3333,219.5 88.3333,178.5 89,137.5C 94.2756,111.394 109.776,95.3936 135.5,89.5 Z"/></g>
<g><path style="opacity:1" fill="#fefefe" d="M 193.5,99.5 C 200.711,98.8038 207.377,100.304 213.5,104C 240.667,131.167 267.833,158.333 295,185.5C 300.59,194.263 300.923,203.263 296,212.5C 268.167,240.333 240.333,268.167 212.5,296C 203.842,301.924 195.176,301.924 186.5,296C 158.667,268.167 130.833,240.333 103,212.5C 98.0227,203.234 98.3561,194.234 104,185.5C 131.167,158.333 158.333,131.167 185.5,104C 188.099,102.205 190.766,100.705 193.5,99.5 Z"/></g>
</svg>
