<?xml version="1.0" encoding="UTF-8"?>
<!DOCTYPE svg PUBLIC "-//W3C//DTD SVG 1.1//EN" "http://www.w3.org/Graphics/SVG/1.1/DTD/svg11.dtd">
<svg xmlns="http://www.w3.org/2000/svg" version="1.1" width="400px" height="400px" style="shape-rendering:geometricPrecision; text-rendering:geometricPrecision; image-rendering:optimizeQuality; fill-rule:evenodd; clip-rule:evenodd" xmlns:xlink="http://www.w3.org/1999/xlink">
<g><path style="opacity:0.988" fill="#fefefe" d="M 399.5,180.5 C 399.5,193.5 399.5,206.5 399.5,219.5C 387.196,304.644 340.529,361.811 259.5,391C 246.233,394.818 232.9,397.652 219.5,399.5C 206.5,399.5 193.5,399.5 180.5,399.5C 99.4123,387.915 43.2457,344.248 12,268.5C -11.7511,194.936 0.582203,128.269 49,68.5C 97.4536,16.2121 157.287,-5.95457 228.5,2C 301.255,14.7715 353.089,54.6048 384,121.5C 391.855,140.591 397.021,160.258 399.5,180.5 Z"/></g>
<g><path style="opacity:1" fill="#451617" d="M 358.5,117.5 C 358.5,118.167 358.5,118.833 358.5,119.5C 357.395,118.4 356.062,117.733 354.5,117.5C 352.372,116.371 350.039,116.204 347.5,117C 345.326,120.121 342.993,120.288 340.5,117.5C 339.833,117.5 339.167,117.5 338.5,117.5C 334.623,115.69 331.457,116.69 329,120.5C 328.204,123.039 328.371,125.372 329.5,127.5C 330.441,129.772 331.774,131.772 333.5,133.5C 336.296,136.797 339.296,139.964 342.5,143C 344.435,142.942 346.102,142.109 347.5,140.5C 346.8,143.2 345.134,144.867 342.5,145.5C 338.231,140.729 333.731,136.062 329,131.5C 324.456,122.927 326.79,117.261 336,114.5C 339.071,114.784 341.905,115.784 344.5,117.5C 347.624,114.644 351.291,113.811 355.5,115C 356.942,115.377 357.942,116.21 358.5,117.5 Z"/></g>
<g><path style="opacity:1" fill="#a92b37" d="M 338.5,117.5 C 332.017,117.651 329.017,120.984 329.5,127.5C 328.371,125.372 328.204,123.039 329,120.5C 331.457,116.69 334.623,115.69 338.5,117.5 Z"/></g>
<g><path style="opacity:1" fill="#b2232f" d="M 354.5,117.5 C 352.473,117.338 350.473,117.505 348.5,118C 346.285,121.808 343.618,122.308 340.5,119.5C 340.5,118.833 340.5,118.167 340.5,117.5C 342.993,120.288 345.326,120.121 347.5,117C 350.039,116.204 352.372,116.371 354.5,117.5 Z"/></g>
<g><path style="opacity:1" fill="#fa0520" d="M 338.5,117.5 C 339.167,117.5 339.833,117.5 340.5,117.5C 340.5,118.167 340.5,118.833 340.5,119.5C 340.559,121.722 341.725,122.722 344,122.5C 346.328,122.183 348.161,121.016 349.5,119C 351.568,118.313 353.568,118.48 355.5,119.5C 356.655,122.446 356.821,125.446 356,128.5C 353.546,130.441 351.713,132.775 350.5,135.5C 347.96,135.967 345.627,136.967 343.5,138.5C 340.15,136.825 336.816,135.158 333.5,133.5C 331.774,131.772 330.441,129.772 329.5,127.5C 329.017,120.984 332.017,117.651 338.5,117.5 Z"/></g>
<g><path style="opacity:1" fill="#e2273a" d="M 354.5,117.5 C 356.062,117.733 357.395,118.4 358.5,119.5C 358.919,123.773 358.252,127.773 356.5,131.5C 356.167,131.5 355.833,131.5 355.5,131.5C 353.833,132.833 352.167,134.167 350.5,135.5C 351.713,132.775 353.546,130.441 356,128.5C 356.821,125.446 356.655,122.446 355.5,119.5C 353.568,118.48 351.568,118.313 349.5,119C 348.161,121.016 346.328,122.183 344,122.5C 341.725,122.722 340.559,121.722 340.5,119.5C 343.618,122.308 346.285,121.808 348.5,118C 350.473,117.505 352.473,117.338 354.5,117.5 Z"/></g>
<g><path style="opacity:1" fill="#4b040d" d="M 358.5,119.5 C 359.993,120.312 360.66,121.645 360.5,123.5C 360.48,126.935 359.146,129.602 356.5,131.5C 358.252,127.773 358.919,123.773 358.5,119.5 Z"/></g>
<g><path style="opacity:1" fill="#410b10" d="M 355.5,131.5 C 355.5,132.833 355.5,134.167 355.5,135.5C 354.448,135.351 353.448,135.517 352.5,136C 351.349,138.2 349.682,139.7 347.5,140.5C 348.752,138.999 349.752,137.332 350.5,135.5C 352.167,134.167 353.833,132.833 355.5,131.5 Z"/></g>
<g><path style="opacity:1" fill="#dd2233" d="M 333.5,133.5 C 336.816,135.158 340.15,136.825 343.5,138.5C 345.627,136.967 347.96,135.967 350.5,135.5C 349.752,137.332 348.752,138.999 347.5,140.5C 346.102,142.109 344.435,142.942 342.5,143C 339.296,139.964 336.296,136.797 333.5,133.5 Z"/></g>
<g><path style="opacity:1" fill="#181415" d="M 358.5,117.5 C 364.619,121.397 366.452,126.73 364,133.5C 359.533,138.968 354.7,144.135 349.5,149C 346.187,149.864 343.854,148.698 342.5,145.5C 345.134,144.867 346.8,143.2 347.5,140.5C 349.682,139.7 351.349,138.2 352.5,136C 353.448,135.517 354.448,135.351 355.5,135.5C 355.5,134.167 355.5,132.833 355.5,131.5C 355.833,131.5 356.167,131.5 356.5,131.5C 359.146,129.602 360.48,126.935 360.5,123.5C 360.66,121.645 359.993,120.312 358.5,119.5C 358.5,118.833 358.5,118.167 358.5,117.5 Z"/></g>
<g><path style="opacity:1" fill="#c2c2c2" d="M 176.5,167.5 C 176.263,168.791 176.596,169.791 177.5,170.5C 175.283,176.483 173.283,182.483 171.5,188.5C 171.5,187.833 171.167,187.5 170.5,187.5C 172.333,180.678 174.333,174.012 176.5,167.5 Z"/></g>
<g><path style="opacity:1" fill="#191919" d="M 298.5,234.5 C 298.5,226.5 298.5,218.5 298.5,210.5C 299.65,205.684 299.816,200.684 299,195.5C 297.991,197.025 297.491,198.692 297.5,200.5C 297.225,215.168 296.891,229.835 296.5,244.5C 296.389,245.117 296.056,245.617 295.5,246C 284.833,246.667 274.167,246.667 263.5,246C 260.877,242.588 258.377,239.088 256,235.5C 256.15,207.831 256.817,180.165 258,152.5C 269.105,151.18 280.272,151.18 291.5,152.5C 291.808,153.308 292.308,153.975 293,154.5C 302.952,148.056 313.119,147.889 323.5,154C 331.504,162.015 337.004,171.515 340,182.5C 340.414,203.174 340.081,223.841 339,244.5C 338.5,245 338,245.5 337.5,246C 327.167,246.667 316.833,246.667 306.5,246C 303.7,242.225 301.034,238.392 298.5,234.5 Z"/></g>
<g><path style="opacity:1" fill="#a3a3a3" d="M 290.5,161.5 C 290.217,162.289 289.717,162.956 289,163.5C 288.502,160.518 288.335,157.518 288.5,154.5C 279.167,154.5 269.833,154.5 260.5,154.5C 260.828,165.679 260.495,176.679 259.5,187.5C 259.5,176.167 259.5,164.833 259.5,153.5C 269.5,153.5 279.5,153.5 289.5,153.5C 289.194,156.385 289.527,159.052 290.5,161.5 Z"/></g>
<g><path style="opacity:1" fill="#fcfcfc" d="M 329.5,232.5 C 320.167,232.5 310.833,232.5 301.5,232.5C 301.5,225.167 301.5,217.833 301.5,210.5C 301.917,201.085 301.417,191.752 300,182.5C 296.381,179.657 293.048,179.99 290,183.5C 288.244,200.228 287.077,216.894 286.5,233.5C 277.167,233.5 267.833,233.5 258.5,233.5C 258.5,228.833 258.5,224.167 258.5,219.5C 258.567,208.823 258.901,198.156 259.5,187.5C 260.495,176.679 260.828,165.679 260.5,154.5C 269.833,154.5 279.167,154.5 288.5,154.5C 288.335,157.518 288.502,160.518 289,163.5C 289.717,162.956 290.217,162.289 290.5,161.5C 299.985,149.938 310.985,148.438 323.5,157C 326.602,161.037 328.768,165.537 330,170.5C 330.639,191.175 330.472,211.842 329.5,232.5 Z"/></g>
<g><path style="opacity:1" fill="#8a8a8a" d="M 298.5,210.5 C 298.813,206.958 298.479,203.625 297.5,200.5C 297.491,198.692 297.991,197.025 299,195.5C 299.816,200.684 299.65,205.684 298.5,210.5 Z"/></g>
<g><path style="opacity:1" fill="#181818" d="M 171.5,188.5 C 173.283,182.483 175.283,176.483 177.5,170.5C 192.969,148.969 212.302,144.802 235.5,158C 244.685,167.201 251.185,178.035 255,190.5C 255.863,198.564 255.53,206.564 254,214.5C 250.541,215.133 247.041,215.8 243.5,216.5C 246.532,221.035 249.365,225.702 252,230.5C 252.667,231.833 252.667,233.167 252,234.5C 238.954,246.921 223.454,251.421 205.5,248C 197.727,245.362 191.227,240.862 186,234.5C 179.941,227.096 175.607,218.762 173,209.5C 171.837,202.547 171.337,195.547 171.5,188.5 Z"/></g>
<g><path style="opacity:1" fill="#fbfbfb" d="M 205.5,152.5 C 226.929,150.456 240.095,159.789 245,180.5C 245.5,187.826 245.666,195.159 245.5,202.5C 231.167,202.5 216.833,202.5 202.5,202.5C 202.724,206.562 204.724,209.395 208.5,211C 217.18,212.164 225.18,210.33 232.5,205.5C 236.291,210.914 239.957,216.414 243.5,222C 227.446,237.012 209.446,240.012 189.5,231C 180.049,223.939 174.883,214.439 174,202.5C 171.17,177.115 181.67,160.448 205.5,152.5 Z"/></g>
<g><path style="opacity:1" fill="#6a6a6a" d="M 218.5,180.5 C 219.434,181.568 219.768,182.901 219.5,184.5C 213.833,184.5 208.167,184.5 202.5,184.5C 202.263,183.209 202.596,182.209 203.5,181.5C 208.056,183.442 213.056,184.108 218.5,183.5C 218.5,182.5 218.5,181.5 218.5,180.5 Z"/></g>
<g><path style="opacity:1" fill="#161616" d="M 218.5,180.5 C 218.5,181.5 218.5,182.5 218.5,183.5C 213.056,184.108 208.056,183.442 203.5,181.5C 205.514,175.317 209.514,173.484 215.5,176C 217.141,177.129 218.141,178.629 218.5,180.5 Z"/></g>
<g><path style="opacity:1" fill="#171717" d="M 176.5,167.5 C 174.333,174.012 172.333,180.678 170.5,187.5C 164.69,207.379 158.69,227.212 152.5,247C 142.167,247.667 131.833,247.667 121.5,247C 117.426,242.433 114.426,237.267 112.5,231.5C 110.732,236.972 109.065,242.472 107.5,248C 97.1667,248.667 86.8333,248.667 76.5,248C 74,244.167 71.5,240.333 69,236.5C 63.3193,211.41 57.3193,186.41 51,161.5C 50.5026,158.854 50.3359,156.187 50.5,153.5C 61.1719,153.333 71.8385,153.5 82.5,154C 86.8314,158.83 89.9981,164.33 92,170.5C 93.2379,164.873 94.7379,159.373 96.5,154C 105.5,153.333 114.5,153.333 123.5,154C 128.075,158.65 130.908,164.15 132,170.5C 133.45,164.528 135.284,158.695 137.5,153C 147.833,152.333 158.167,152.333 168.5,153C 172.629,157.096 175.295,161.929 176.5,167.5 Z"/></g>
<g><path style="opacity:1" fill="#fbfbfb" d="M 138.5,155.5 C 148.015,155.173 157.348,155.506 166.5,156.5C 159.067,182.733 151.4,208.899 143.5,235C 134.255,235.817 125.089,235.65 116,234.5C 114.075,222.043 111.575,209.709 108.5,197.5C 104.867,209.699 101.7,222.032 99,234.5C 89.6667,235.833 80.3333,235.833 71,234.5C 64.6673,208.171 58.5006,181.838 52.5,155.5C 62.1667,155.5 71.8333,155.5 81.5,155.5C 83.6646,169.155 85.8313,182.821 88,196.5C 91.3732,182.955 94.5399,169.288 97.5,155.5C 105.833,155.5 114.167,155.5 122.5,155.5C 124.247,168.892 126.413,182.226 129,195.5C 131.743,181.925 134.91,168.592 138.5,155.5 Z"/></g>
<g><path style="opacity:1" fill="#888888" d="M 138.5,155.5 C 148.008,154.177 157.675,154.177 167.5,155.5C 167.376,156.107 167.043,156.44 166.5,156.5C 157.348,155.506 148.015,155.173 138.5,155.5 Z"/></g>
<g><path style="opacity:1" fill="#cccccc" d="M 297.5,200.5 C 298.479,203.625 298.813,206.958 298.5,210.5C 298.5,218.5 298.5,226.5 298.5,234.5C 297.833,237.833 297.167,241.167 296.5,244.5C 296.891,229.835 297.225,215.168 297.5,200.5 Z"/></g>
<g><path style="opacity:1" fill="#ababab" d="M 301.5,210.5 C 301.5,217.833 301.5,225.167 301.5,232.5C 310.833,232.5 320.167,232.5 329.5,232.5C 320.014,233.494 310.348,233.827 300.5,233.5C 300.175,225.648 300.508,217.982 301.5,210.5 Z"/></g>
<g><path style="opacity:1" fill="#3e3e3e" d="M 258.5,219.5 C 258.5,224.167 258.5,228.833 258.5,233.5C 267.833,233.5 277.167,233.5 286.5,233.5C 277.014,234.494 267.348,234.827 257.5,234.5C 257.179,229.305 257.513,224.305 258.5,219.5 Z"/></g>
</svg>
