<?xml version="1.0" encoding="UTF-8"?>
<!DOCTYPE svg PUBLIC "-//W3C//DTD SVG 1.1//EN" "http://www.w3.org/Graphics/SVG/1.1/DTD/svg11.dtd">
<svg xmlns="http://www.w3.org/2000/svg" version="1.1" width="400px" height="400px" style="shape-rendering:geometricPrecision; text-rendering:geometricPrecision; image-rendering:optimizeQuality; fill-rule:evenodd; clip-rule:evenodd" xmlns:xlink="http://www.w3.org/1999/xlink">
<g><path style="opacity:0.988" fill="#010000" d="M 343.5,61.5 C 343.317,63.9363 343.984,66.103 345.5,68C 344.376,68.8388 343.709,70.0055 343.5,71.5C 344.068,73.2044 344.068,74.7044 343.5,76C 344.167,76.3333 344.833,76.6667 345.5,77C 344.484,77.5194 343.818,78.3527 343.5,79.5C 344.903,82.3749 345.903,85.3749 346.5,88.5C 347.689,89.4287 349.022,89.762 350.5,89.5C 350.042,86.6062 350.709,84.1062 352.5,82C 349.895,79.5886 349.895,77.0886 352.5,74.5C 350.896,72.8211 350.229,70.8211 350.5,68.5C 378.264,100.707 394.597,138.04 399.5,180.5C 399.5,193.5 399.5,206.5 399.5,219.5C 387.196,304.644 340.529,361.811 259.5,391C 246.233,394.818 232.9,397.652 219.5,399.5C 206.5,399.5 193.5,399.5 180.5,399.5C 132.714,394.272 92.0477,374.606 58.5,340.5C 58.6665,329.828 58.4998,319.161 58,308.5C 57,307.167 56,307.167 55,308.5C 54.5026,311.146 54.3359,313.813 54.5,316.5C 53.5,316.5 52.5,316.5 51.5,316.5C 51.5,318.5 51.5,320.5 51.5,322.5C 52.5,322.5 53.5,322.5 54.5,322.5C 53.7587,327.092 53.7587,331.758 54.5,336.5C 18.686,298.326 0.685988,252.826 0.5,200C 0.685988,147.174 18.686,101.674 54.5,63.5C 54.5,72.1667 54.5,80.8333 54.5,89.5C 55.8333,89.5 57.1667,89.5 58.5,89.5C 58.5,79.5 58.5,69.5 58.5,59.5C 97.3237,20.485 144.49,0.818345 200,0.5C 256.638,0.751414 304.472,21.0847 343.5,61.5 Z"/></g>
<g><path style="opacity:0.963" fill="#1a1a1a" d="M 58.5,59.5 C 58.5,69.5 58.5,79.5 58.5,89.5C 57.1667,89.5 55.8333,89.5 54.5,89.5C 54.5,80.8333 54.5,72.1667 54.5,63.5C 55.5,61.8333 56.8333,60.5 58.5,59.5 Z"/></g>
<g><path style="opacity:0.933" fill="#181818" d="M 343.5,61.5 C 346.167,63.5 348.5,65.8333 350.5,68.5C 350.229,70.8211 350.896,72.8211 352.5,74.5C 349.895,77.0886 349.895,79.5886 352.5,82C 350.709,84.1062 350.042,86.6062 350.5,89.5C 349.022,89.762 347.689,89.4287 346.5,88.5C 345.903,85.3749 344.903,82.3749 343.5,79.5C 343.818,78.3527 344.484,77.5194 345.5,77C 344.833,76.6667 344.167,76.3333 343.5,76C 344.068,74.7044 344.068,73.2044 343.5,71.5C 343.709,70.0055 344.376,68.8388 345.5,68C 343.984,66.103 343.317,63.9363 343.5,61.5 Z"/></g>
<g><path style="opacity:1" fill="#1a1a1a" d="M 119.5,85.5 C 121.355,85.272 122.188,85.9387 122,87.5C 111.779,97.7208 101.613,107.887 91.5,118C 90.552,118.483 89.552,118.649 88.5,118.5C 88.3505,117.448 88.5172,116.448 89,115.5C 99.0618,105.271 109.228,95.2706 119.5,85.5 Z"/></g>
<g><path style="opacity:1" fill="#191919" d="M 157.5,116.5 C 156.167,116.5 154.833,116.5 153.5,116.5C 163.943,105.962 174.609,95.6286 185.5,85.5C 186.408,86.79 186.241,88.1233 185,89.5C 175.321,98.0124 166.155,107.012 157.5,116.5 Z"/></g>
<g><path style="opacity:1" fill="#1a1a1a" d="M 223.5,116.5 C 222.167,116.5 220.833,116.5 219.5,116.5C 220.412,114.405 221.579,112.405 223,110.5C 231.554,103.279 239.388,95.4458 246.5,87C 247.729,86.2189 249.062,85.7189 250.5,85.5C 251.932,85.7332 252.432,86.3999 252,87.5C 241.71,96.2907 232.21,105.957 223.5,116.5 Z"/></g>
<g><path style="opacity:1" fill="#191919" d="M 286.5,116.5 C 285.5,116.5 284.5,116.5 283.5,116.5C 292.627,107.044 301.627,97.5444 310.5,88C 312.24,86.3055 314.24,85.1389 316.5,84.5C 316.657,85.8734 316.49,87.2068 316,88.5C 306.797,96.1328 298.631,104.633 291.5,114C 289.922,115.094 288.255,115.928 286.5,116.5 Z"/></g>
<g><path style="opacity:1" fill="#ea2b2b" d="M 153.5,116.5 C 154.833,116.5 156.167,116.5 157.5,116.5C 178.167,116.5 198.833,116.5 219.5,116.5C 220.833,116.5 222.167,116.5 223.5,116.5C 243.5,116.5 263.5,116.5 283.5,116.5C 284.5,116.5 285.5,116.5 286.5,116.5C 286.5,116.833 286.5,117.167 286.5,117.5C 286.5,140.5 286.5,163.5 286.5,186.5C 286.158,187.338 285.492,187.672 284.5,187.5C 254.831,187.333 225.165,187.5 195.5,188C 194.52,195.079 194.187,202.245 194.5,209.5C 216.167,209.5 237.833,209.5 259.5,209.5C 268.5,209.5 277.5,209.5 286.5,209.5C 286.5,218.167 286.5,226.833 286.5,235.5C 247.494,235.833 208.494,235.5 169.5,234.5C 168.344,210.876 168.177,187.209 169,163.5C 169.75,162.874 170.584,162.374 171.5,162C 193.497,161.5 215.497,161.333 237.5,161.5C 245.833,161.5 254.167,161.5 262.5,161.5C 262.811,154.91 262.478,148.41 261.5,142C 216.501,141.5 171.501,141.333 126.5,141.5C 124.983,141.489 123.816,140.823 123,139.5C 122.187,131.92 122.353,124.42 123.5,117C 133.494,116.5 143.494,116.334 153.5,116.5 Z"/></g>
<g><path style="opacity:1" fill="#641313" d="M 281.5,182.5 C 281.5,162.5 281.5,142.5 281.5,122.5C 230.5,122.5 179.5,122.5 128.5,122.5C 128.5,127.167 128.5,131.833 128.5,136.5C 127.513,131.695 127.179,126.695 127.5,121.5C 179.167,121.5 230.833,121.5 282.5,121.5C 282.83,142.007 282.497,162.34 281.5,182.5 Z"/></g>
<g><path style="opacity:1" fill="#050202" d="M 281.5,182.5 C 252.165,182.333 222.831,182.5 193.5,183C 192.333,184.167 191.167,185.333 190,186.5C 189.333,194.5 189.333,202.5 190,210.5C 190.748,212.751 192.248,214.084 194.5,214.5C 223.329,215.498 252.329,215.831 281.5,215.5C 281.5,220.5 281.5,225.5 281.5,230.5C 245.5,230.5 209.5,230.5 173.5,230.5C 173.5,209.5 173.5,188.5 173.5,167.5C 203.005,167.831 232.338,167.498 261.5,166.5C 264.148,166.262 265.982,164.928 267,162.5C 267.667,155.167 267.667,147.833 267,140.5C 265.786,138.951 264.286,137.785 262.5,137C 217.835,136.5 173.168,136.333 128.5,136.5C 128.5,131.833 128.5,127.167 128.5,122.5C 179.5,122.5 230.5,122.5 281.5,122.5C 281.5,142.5 281.5,162.5 281.5,182.5 Z"/></g>
<g><path style="opacity:1" fill="#110d0d" d="M 126.5,141.5 C 171.501,141.333 216.501,141.5 261.5,142C 262.478,148.41 262.811,154.91 262.5,161.5C 254.167,161.5 245.833,161.5 237.5,161.5C 243.502,155.49 249.502,149.49 255.5,143.5C 214.171,142.333 172.837,142.167 131.5,143C 117.581,155.585 104.248,168.919 91.5,183C 90.552,183.483 89.552,183.649 88.5,183.5C 88.3505,182.448 88.5172,181.448 89,180.5C 102.089,167.914 114.589,154.914 126.5,141.5 Z"/></g>
<g><path style="opacity:1" fill="#2d1b18" d="M 286.5,117.5 C 287.332,136.329 287.832,155.329 288,174.5C 296.846,166.653 305.346,158.486 313.5,150C 314.448,149.517 315.448,149.351 316.5,149.5C 316.762,150.978 316.429,152.311 315.5,153.5C 306.322,162.368 297.155,171.368 288,180.5C 287.809,182.708 287.309,184.708 286.5,186.5C 286.5,163.5 286.5,140.5 286.5,117.5 Z"/></g>
<g><path style="opacity:1" fill="#ec2b2b" d="M 147.5,256.5 C 193.664,257.499 239.997,257.832 286.5,257.5C 286.5,264.5 286.5,271.5 286.5,278.5C 232.167,278.5 177.833,278.5 123.5,278.5C 122.596,277.791 122.263,276.791 122.5,275.5C 122.5,255.833 122.5,236.167 122.5,216.5C 122.5,215.167 122.5,213.833 122.5,212.5C 122.333,196.497 122.5,180.497 123,164.5C 130.667,163.167 138.333,163.167 146,164.5C 146.168,195.336 146.668,226.003 147.5,256.5 Z"/></g>
<g><path style="opacity:1" fill="#931b1b" d="M 261.5,166.5 C 232.338,167.498 203.005,167.831 173.5,167.5C 173.5,188.5 173.5,209.5 173.5,230.5C 172.503,209.34 172.169,188.007 172.5,166.5C 202.167,166.5 231.833,166.5 261.5,166.5 Z"/></g>
<g><path style="opacity:1" fill="#140d0d" d="M 284.5,187.5 C 275.035,193.282 266.702,200.616 259.5,209.5C 237.833,209.5 216.167,209.5 194.5,209.5C 194.187,202.245 194.52,195.079 195.5,188C 225.165,187.5 254.831,187.333 284.5,187.5 Z"/></g>
<g><path style="opacity:1" fill="#000000" d="M 214.5,188.5 C 234.503,188.333 254.503,188.5 274.5,189C 268.248,195.252 261.914,201.586 255.5,208C 235.5,208.667 215.5,208.667 195.5,208C 202.009,201.658 208.342,195.158 214.5,188.5 Z"/></g>
<g><path style="opacity:1" fill="#191919" d="M 122.5,212.5 C 122.5,213.833 122.5,215.167 122.5,216.5C 112.729,226.772 102.729,236.938 92.5,247C 91.0563,247.781 89.723,247.614 88.5,246.5C 93.8512,240.983 99.0178,235.316 104,229.5C 110.602,224.282 116.769,218.615 122.5,212.5 Z"/></g>
<g><path style="opacity:1" fill="#271816" d="M 286.5,257.5 C 239.997,257.832 193.664,257.499 147.5,256.5C 189.168,256.667 230.835,256.5 272.5,256C 286.051,242.449 299.718,228.782 313.5,215C 314.448,214.517 315.448,214.351 316.5,214.5C 316.649,215.552 316.483,216.552 316,217.5C 303.219,229.949 290.719,242.782 278.5,256C 281.365,256.183 284.031,256.683 286.5,257.5 Z"/></g>
<g><path style="opacity:1" fill="#5d1213" d="M 194.5,214.5 C 223.833,214.5 253.167,214.5 282.5,214.5C 282.821,220.026 282.488,225.36 281.5,230.5C 281.5,225.5 281.5,220.5 281.5,215.5C 252.329,215.831 223.329,215.498 194.5,214.5 Z"/></g>
<g><path style="opacity:1" fill="#030202" d="M 128.5,168.5 C 132.833,168.5 137.167,168.5 141.5,168.5C 141.333,198.169 141.5,227.835 142,257.5C 142.785,259.286 143.951,260.786 145.5,262C 190.832,262.5 236.165,262.667 281.5,262.5C 281.5,266.5 281.5,270.5 281.5,274.5C 230.5,274.5 179.5,274.5 128.5,274.5C 128.5,239.167 128.5,203.833 128.5,168.5 Z"/></g>
<g><path style="opacity:1" fill="#b92322" d="M 128.5,168.5 C 128.5,203.833 128.5,239.167 128.5,274.5C 179.5,274.5 230.5,274.5 281.5,274.5C 281.5,270.5 281.5,266.5 281.5,262.5C 282.485,266.634 282.818,270.968 282.5,275.5C 230.833,275.5 179.167,275.5 127.5,275.5C 127.168,239.663 127.502,203.996 128.5,168.5 Z"/></g>
<g><path style="opacity:1" fill="#ce2626" d="M 286.5,257.5 C 287.492,264.648 287.825,271.981 287.5,279.5C 276.167,279.5 264.833,279.5 253.5,279.5C 251.833,279.5 250.167,279.5 248.5,279.5C 228.833,279.5 209.167,279.5 189.5,279.5C 187.5,279.5 185.5,279.5 183.5,279.5C 163.5,279.5 143.5,279.5 123.5,279.5C 123.5,279.167 123.5,278.833 123.5,278.5C 177.833,278.5 232.167,278.5 286.5,278.5C 286.5,271.5 286.5,264.5 286.5,257.5 Z"/></g>
<g><path style="opacity:1" fill="#1a1a1a" d="M 183.5,279.5 C 185.5,279.5 187.5,279.5 189.5,279.5C 178.395,290.104 167.395,300.937 156.5,312C 155.552,312.483 154.552,312.649 153.5,312.5C 154.71,309.448 156.544,306.781 159,304.5C 167.424,296.245 175.59,287.911 183.5,279.5 Z"/></g>
<g><path style="opacity:1" fill="#1a1a1a" d="M 248.5,279.5 C 250.167,279.5 251.833,279.5 253.5,279.5C 249.836,283.997 245.669,287.997 241,291.5C 240.517,292.448 240.351,293.448 240.5,294.5C 233.85,299.636 227.517,305.469 221.5,312C 220.552,312.483 219.552,312.649 218.5,312.5C 218.351,311.448 218.517,310.448 219,309.5C 229.036,299.632 238.869,289.632 248.5,279.5 Z"/></g>
<g><path style="opacity:1" fill="#191919" d="M 313.5,279.5 C 314.5,279.5 315.5,279.5 316.5,279.5C 315.313,281.905 313.813,284.239 312,286.5C 302.86,294.306 294.36,302.806 286.5,312C 285.833,312.167 285.167,312.333 284.5,312.5C 283.068,312.267 282.568,311.6 283,310.5C 293.369,300.298 303.535,289.965 313.5,279.5 Z"/></g>
<g><path style="opacity:1" fill="#1a1a1a" d="M 122.5,275.5 C 122.263,276.791 122.596,277.791 123.5,278.5C 123.5,278.833 123.5,279.167 123.5,279.5C 122.71,280.794 121.71,281.961 120.5,283C 121.167,283.333 121.833,283.667 122.5,284C 120.382,284.26 118.716,285.26 117.5,287C 118,287.5 118.5,288 119,288.5C 121.795,287.217 124.628,287.217 127.5,288.5C 122.868,289.328 118.202,289.828 113.5,290C 106.163,297.004 99.1629,304.337 92.5,312C 90.7412,312.798 89.0745,312.631 87.5,311.5C 97.7506,300.78 106.417,291.946 113.5,285C 116.309,282.34 119.309,279.173 122.5,275.5 Z"/></g>
<g><path style="opacity:0.961" fill="#1c1c1c" d="M 58.5,340.5 C 56.8333,339.5 55.5,338.167 54.5,336.5C 53.7587,331.758 53.7587,327.092 54.5,322.5C 53.5,322.5 52.5,322.5 51.5,322.5C 51.5,320.5 51.5,318.5 51.5,316.5C 52.5,316.5 53.5,316.5 54.5,316.5C 54.3359,313.813 54.5026,311.146 55,308.5C 56,307.167 57,307.167 58,308.5C 58.4998,319.161 58.6665,329.828 58.5,340.5 Z"/></g>
</svg>
